M48
; DRILL file {KiCad 8.0.2} date 2024-07-10T14:47:39-0400
; FORMAT={-:-/ absolute / inch / decimal}
; #@! TF.CreationDate,2024-07-10T14:47:39-04:00
; #@! TF.GenerationSoftware,Kicad,Pcbnew,8.0.2
; #@! TF.FileFunction,Plated,1,2,PTH
FMAT,2
INCH
; #@! TA.AperFunction,Plated,PTH,ViaDrill
T1C0.0118
; #@! TA.AperFunction,Plated,PTH,ComponentDrill
T2C0.0394
; #@! TA.AperFunction,Plated,PTH,ComponentDrill
T3C0.0510
; #@! TA.AperFunction,Plated,PTH,ComponentDrill
T4C0.0591
%
G90
G05
T1
X2.4134Y-2.1654
X2.4134Y-2.2087
X2.4134Y-2.248
X2.4134Y-2.2913
X2.4134Y-2.3346
X2.4134Y-2.3819
X2.4646Y-2.1654
X2.4646Y-2.2087
X2.4646Y-2.248
X2.4646Y-2.2913
X2.4646Y-2.3346
X2.4646Y-2.3819
X2.5118Y-2.1654
X2.5118Y-2.2087
X2.5118Y-2.248
X2.5118Y-2.2913
X2.5118Y-2.3346
X2.5118Y-2.3819
X2.5669Y-2.1654
X2.5669Y-2.2087
X2.5669Y-2.248
X2.5669Y-2.2913
X2.5669Y-2.3346
X2.5669Y-2.3819
X2.6181Y-2.1654
X2.6181Y-2.2087
X2.6181Y-2.248
X2.6181Y-2.2913
X2.6181Y-2.3346
X2.6181Y-2.3819
X2.6654Y-2.1654
X2.6654Y-2.2087
X2.6654Y-2.248
X2.6654Y-2.2913
X2.6654Y-2.3346
X2.6654Y-2.3819
X2.7126Y-2.1654
X2.7126Y-2.2087
X2.7126Y-2.248
X2.7126Y-2.2913
X2.7126Y-2.3346
X2.7126Y-2.3819
X2.7638Y-2.1654
X2.7638Y-2.2087
X2.7638Y-2.248
X2.7638Y-2.2913
X2.7638Y-2.3346
X2.7638Y-2.3819
X2.811Y-2.1654
X2.811Y-2.2087
X2.811Y-2.248
X2.811Y-2.2913
X2.811Y-2.3346
X2.811Y-2.3819
X3.878Y-2.1654
X3.878Y-2.2087
X3.878Y-2.248
X3.878Y-2.2913
X3.878Y-2.3346
X3.878Y-2.3819
X3.9134Y-1.7008
X3.9134Y-1.7441
X3.9134Y-1.7835
X3.9134Y-1.8268
X3.9134Y-1.8701
X3.9134Y-1.9173
X3.9291Y-2.1654
X3.9291Y-2.2087
X3.9291Y-2.248
X3.9291Y-2.2913
X3.9291Y-2.3346
X3.9291Y-2.3819
X3.9646Y-1.7008
X3.9646Y-1.7441
X3.9646Y-1.7835
X3.9646Y-1.8268
X3.9646Y-1.8701
X3.9646Y-1.9173
X3.9764Y-2.1654
X3.9764Y-2.2087
X3.9764Y-2.248
X3.9764Y-2.2913
X3.9764Y-2.3346
X3.9764Y-2.3819
X4.0118Y-1.7008
X4.0118Y-1.7441
X4.0118Y-1.7835
X4.0118Y-1.8268
X4.0118Y-1.8701
X4.0118Y-1.9173
X4.0315Y-2.1654
X4.0315Y-2.2087
X4.0315Y-2.248
X4.0315Y-2.2913
X4.0315Y-2.3346
X4.0315Y-2.3819
X4.0669Y-1.7008
X4.0669Y-1.7441
X4.0669Y-1.7835
X4.0669Y-1.8268
X4.0669Y-1.8701
X4.0669Y-1.9173
X4.0827Y-2.1654
X4.0827Y-2.2087
X4.0827Y-2.248
X4.0827Y-2.2913
X4.0827Y-2.3346
X4.0827Y-2.3819
X4.1181Y-1.7008
X4.1181Y-1.7441
X4.1181Y-1.7835
X4.1181Y-1.8268
X4.1181Y-1.8701
X4.1181Y-1.9173
X4.1299Y-2.1654
X4.1299Y-2.2087
X4.1299Y-2.248
X4.1299Y-2.2913
X4.1299Y-2.3346
X4.1299Y-2.3819
X4.1654Y-1.7008
X4.1654Y-1.7441
X4.1654Y-1.7835
X4.1654Y-1.8268
X4.1654Y-1.8701
X4.1654Y-1.9173
X4.1772Y-2.1654
X4.1772Y-2.2087
X4.1772Y-2.248
X4.1772Y-2.2913
X4.1772Y-2.3346
X4.1772Y-2.3819
X4.2126Y-1.7008
X4.2126Y-1.7441
X4.2126Y-1.7835
X4.2126Y-1.8268
X4.2126Y-1.8701
X4.2126Y-1.9173
X4.2283Y-2.1654
X4.2283Y-2.2087
X4.2283Y-2.248
X4.2283Y-2.2913
X4.2283Y-2.3346
X4.2283Y-2.3819
X4.2638Y-1.7008
X4.2638Y-1.7441
X4.2638Y-1.7835
X4.2638Y-1.8268
X4.2638Y-1.8701
X4.2638Y-1.9173
X4.2756Y-2.1654
X4.2756Y-2.2087
X4.2756Y-2.248
X4.2756Y-2.2913
X4.2756Y-2.3346
X4.2756Y-2.3819
X4.311Y-1.7008
X4.311Y-1.7441
X4.311Y-1.7835
X4.311Y-1.8268
X4.311Y-1.8701
X4.311Y-1.9173
T2
X2.8622Y-1.3452
X2.8622Y-1.542
T3
X3.2561Y-2.5198
X3.4529Y-2.5198
T4
X2.0984Y-1.4414
X2.0984Y-1.6383
X2.0984Y-2.0231
X2.0984Y-2.22
X2.4208Y-1.1142
X2.6176Y-1.1142
X3.0945Y-1.1102
X3.2913Y-1.1102
X3.6299Y-1.1142
X3.8268Y-1.1142
X4.1496Y-1.1142
X4.3465Y-1.1142
X4.5591Y-1.4257
X4.5591Y-1.6225
X4.563Y-2.0005
X4.563Y-2.1973
M30
