%TF.GenerationSoftware,KiCad,Pcbnew,8.0.2*%
%TF.CreationDate,2024-07-10T14:47:37-04:00*%
%TF.ProjectId,Low-Power_PDP,4c6f772d-506f-4776-9572-5f5044502e6b,rev?*%
%TF.SameCoordinates,Original*%
%TF.FileFunction,Copper,L2,Bot*%
%TF.FilePolarity,Positive*%
%FSLAX46Y46*%
G04 Gerber Fmt 4.6, Leading zero omitted, Abs format (unit mm)*
G04 Created by KiCad (PCBNEW 8.0.2) date 2024-07-10 14:47:37*
%MOMM*%
%LPD*%
G01*
G04 APERTURE LIST*
%TA.AperFunction,ComponentPad*%
%ADD10R,2.250000X2.250000*%
%TD*%
%TA.AperFunction,ComponentPad*%
%ADD11C,2.250000*%
%TD*%
%TA.AperFunction,ComponentPad*%
%ADD12R,2.000000X2.000000*%
%TD*%
%TA.AperFunction,ComponentPad*%
%ADD13C,2.000000*%
%TD*%
%TA.AperFunction,ComponentPad*%
%ADD14C,1.803400*%
%TD*%
%TA.AperFunction,ViaPad*%
%ADD15C,0.600000*%
%TD*%
G04 APERTURE END LIST*
D10*
%TO.P,J3,01,01*%
%TO.N,VCC*%
X78600000Y-28200000D03*
D11*
%TO.P,J3,02,02*%
%TO.N,GND*%
X83600000Y-28200000D03*
%TD*%
D10*
%TO.P,J7,01,01*%
%TO.N,VCC*%
X53300000Y-41612500D03*
D11*
%TO.P,J7,02,02*%
%TO.N,GND*%
X53300000Y-36612500D03*
%TD*%
D12*
%TO.P,C5,1*%
%TO.N,VCC*%
X72700000Y-39167677D03*
D13*
%TO.P,C5,2*%
%TO.N,GND*%
X72700000Y-34167677D03*
%TD*%
D10*
%TO.P,J5,01,01*%
%TO.N,VCC*%
X105400000Y-28300000D03*
D11*
%TO.P,J5,02,02*%
%TO.N,GND*%
X110400000Y-28300000D03*
%TD*%
D10*
%TO.P,J4,01,01*%
%TO.N,VCC*%
X92200000Y-28300000D03*
D11*
%TO.P,J4,02,02*%
%TO.N,GND*%
X97200000Y-28300000D03*
%TD*%
D10*
%TO.P,J8,01,01*%
%TO.N,VCC*%
X53300000Y-51387500D03*
D11*
%TO.P,J8,02,02*%
%TO.N,GND*%
X53300000Y-56387500D03*
%TD*%
D10*
%TO.P,J6,01,01*%
%TO.N,VCC*%
X115800000Y-41212500D03*
D11*
%TO.P,J6,02,02*%
%TO.N,GND*%
X115800000Y-36212500D03*
%TD*%
D10*
%TO.P,J2,01,01*%
%TO.N,VCC*%
X61487500Y-28300000D03*
D11*
%TO.P,J2,02,02*%
%TO.N,GND*%
X66487500Y-28300000D03*
%TD*%
D10*
%TO.P,J9,01,01*%
%TO.N,VCC*%
X115900000Y-55812500D03*
D11*
%TO.P,J9,02,02*%
%TO.N,GND*%
X115900000Y-50812500D03*
%TD*%
D14*
%TO.P,J1,1,Pin_1*%
%TO.N,VCC*%
X82704900Y-64002701D03*
%TO.P,J1,2,Pin_2*%
%TO.N,GND*%
X87704900Y-64002701D03*
%TD*%
D15*
%TO.N,GND*%
X103300000Y-48700000D03*
X101900000Y-44300000D03*
X62600000Y-57100000D03*
X107000000Y-47500000D03*
X103300000Y-45300000D03*
X107000000Y-48700000D03*
X61300000Y-59300000D03*
X61300000Y-55000000D03*
X108300000Y-43200000D03*
X109500000Y-45300000D03*
X98500000Y-58200000D03*
X71400000Y-59300000D03*
X98500000Y-59300000D03*
X65200000Y-57100000D03*
X70200000Y-60500000D03*
X66500000Y-57100000D03*
X104900000Y-57100000D03*
X109500000Y-47500000D03*
X106100000Y-60500000D03*
X100700000Y-47500000D03*
X100700000Y-48700000D03*
X61300000Y-57100000D03*
X63800000Y-60500000D03*
X68900000Y-56100000D03*
X107400000Y-60500000D03*
X67700000Y-56100000D03*
X104900000Y-58200000D03*
X62600000Y-58200000D03*
X105800000Y-43200000D03*
X103700000Y-57100000D03*
X100700000Y-45300000D03*
X109500000Y-48700000D03*
X61300000Y-56100000D03*
X107000000Y-43200000D03*
X98500000Y-56100000D03*
X108600000Y-56100000D03*
X67700000Y-55000000D03*
X105800000Y-47500000D03*
X107400000Y-56100000D03*
X63800000Y-59300000D03*
X98500000Y-57100000D03*
X104900000Y-60500000D03*
X99800000Y-55000000D03*
X99400000Y-44300000D03*
X71400000Y-55000000D03*
X107000000Y-46400000D03*
X101000000Y-56100000D03*
X108600000Y-60500000D03*
X71400000Y-58200000D03*
X108300000Y-47500000D03*
X101900000Y-48700000D03*
X107000000Y-45300000D03*
X68900000Y-59300000D03*
X99800000Y-60500000D03*
X108600000Y-55000000D03*
X105800000Y-44300000D03*
X99400000Y-45300000D03*
X107400000Y-59300000D03*
X105800000Y-45300000D03*
X109500000Y-44300000D03*
X109500000Y-43200000D03*
X104600000Y-45300000D03*
X99400000Y-46400000D03*
X99400000Y-47500000D03*
X65200000Y-55000000D03*
X68900000Y-58200000D03*
X105800000Y-48700000D03*
X63800000Y-56100000D03*
X106100000Y-55000000D03*
X67700000Y-58200000D03*
X101000000Y-59300000D03*
X101000000Y-55000000D03*
X102400000Y-60500000D03*
X101000000Y-57100000D03*
X66500000Y-58200000D03*
X61300000Y-58200000D03*
X70200000Y-55000000D03*
X65200000Y-60500000D03*
X101900000Y-46400000D03*
X63800000Y-55000000D03*
X70200000Y-57100000D03*
X108600000Y-57100000D03*
X108300000Y-46400000D03*
X99400000Y-48700000D03*
X62600000Y-60500000D03*
X62600000Y-59300000D03*
X104600000Y-44300000D03*
X104900000Y-55000000D03*
X70200000Y-56100000D03*
X62600000Y-56100000D03*
X102400000Y-55000000D03*
X70200000Y-58200000D03*
X108300000Y-44300000D03*
X104600000Y-43200000D03*
X106100000Y-56100000D03*
X99800000Y-59300000D03*
X107000000Y-44300000D03*
X104600000Y-47500000D03*
X62600000Y-55000000D03*
X99400000Y-43200000D03*
X103300000Y-43200000D03*
X100700000Y-43200000D03*
X102400000Y-57100000D03*
X108300000Y-48700000D03*
X108600000Y-59300000D03*
X99800000Y-58200000D03*
X101900000Y-43200000D03*
X66500000Y-60500000D03*
X102400000Y-59300000D03*
X103300000Y-44300000D03*
X65200000Y-58200000D03*
X71400000Y-57100000D03*
X71400000Y-60500000D03*
X67700000Y-57100000D03*
X68900000Y-60500000D03*
X99800000Y-57100000D03*
X67700000Y-60500000D03*
X102400000Y-58200000D03*
X108300000Y-45300000D03*
X107400000Y-55000000D03*
X107400000Y-58200000D03*
X103700000Y-55000000D03*
X98500000Y-55000000D03*
X66500000Y-55000000D03*
X109500000Y-46400000D03*
X104900000Y-56100000D03*
X103700000Y-59300000D03*
X103700000Y-56100000D03*
X101000000Y-60500000D03*
X104600000Y-46400000D03*
X66500000Y-59300000D03*
X65200000Y-59300000D03*
X102400000Y-56100000D03*
X104600000Y-48700000D03*
X68900000Y-57100000D03*
X101000000Y-58200000D03*
X100700000Y-44300000D03*
X70200000Y-59300000D03*
X103300000Y-46400000D03*
X106100000Y-58200000D03*
X98500000Y-60500000D03*
X100700000Y-46400000D03*
X103700000Y-58200000D03*
X65200000Y-56100000D03*
X66500000Y-56100000D03*
X103700000Y-60500000D03*
X106100000Y-59300000D03*
X71400000Y-56100000D03*
X61300000Y-60500000D03*
X107400000Y-57100000D03*
X101900000Y-45300000D03*
X103300000Y-47500000D03*
X63800000Y-58200000D03*
X108600000Y-58200000D03*
X99800000Y-56100000D03*
X68900000Y-55000000D03*
X104900000Y-59300000D03*
X63800000Y-57100000D03*
X67700000Y-59300000D03*
X106100000Y-57100000D03*
X105800000Y-46400000D03*
X101900000Y-47500000D03*
%TD*%
%TA.AperFunction,Conductor*%
%TO.N,GND*%
G36*
X121942539Y-23520185D02*
G01*
X121988294Y-23572989D01*
X121999500Y-23624500D01*
X121999500Y-68375500D01*
X121979815Y-68442539D01*
X121927011Y-68488294D01*
X121875500Y-68499500D01*
X49124500Y-68499500D01*
X49057461Y-68479815D01*
X49011706Y-68427011D01*
X49000500Y-68375500D01*
X49000500Y-64478711D01*
X51349500Y-64478711D01*
X51349500Y-64721288D01*
X51381161Y-64961785D01*
X51443947Y-65196104D01*
X51514389Y-65366165D01*
X51536776Y-65420212D01*
X51658064Y-65630289D01*
X51658066Y-65630292D01*
X51658067Y-65630293D01*
X51805733Y-65822736D01*
X51805739Y-65822743D01*
X51977256Y-65994260D01*
X51977262Y-65994265D01*
X52169711Y-66141936D01*
X52379788Y-66263224D01*
X52603900Y-66356054D01*
X52838211Y-66418838D01*
X53018586Y-66442584D01*
X53078711Y-66450500D01*
X53078712Y-66450500D01*
X53321289Y-66450500D01*
X53369388Y-66444167D01*
X53561789Y-66418838D01*
X53796100Y-66356054D01*
X54020212Y-66263224D01*
X54230289Y-66141936D01*
X54422738Y-65994265D01*
X54594265Y-65822738D01*
X54741936Y-65630289D01*
X54863224Y-65420212D01*
X54956054Y-65196100D01*
X55018838Y-64961789D01*
X55050500Y-64721288D01*
X55050500Y-64478712D01*
X55018838Y-64238211D01*
X54956054Y-64003900D01*
X54955555Y-64002695D01*
X81297894Y-64002695D01*
X81297894Y-64002706D01*
X81317083Y-64234283D01*
X81374129Y-64459555D01*
X81467475Y-64672363D01*
X81499440Y-64721288D01*
X81594575Y-64866902D01*
X81751961Y-65037869D01*
X81751964Y-65037871D01*
X81751967Y-65037874D01*
X81935332Y-65180593D01*
X81935338Y-65180597D01*
X81935341Y-65180599D01*
X82139712Y-65291200D01*
X82359500Y-65366653D01*
X82588710Y-65404901D01*
X82821090Y-65404901D01*
X83050300Y-65366653D01*
X83270088Y-65291200D01*
X83474459Y-65180599D01*
X83475003Y-65180176D01*
X83583018Y-65096104D01*
X83657839Y-65037869D01*
X83815225Y-64866902D01*
X83942325Y-64672362D01*
X84035671Y-64459555D01*
X84092716Y-64234287D01*
X84111906Y-64002701D01*
X84111906Y-64002695D01*
X86298396Y-64002695D01*
X86298396Y-64002706D01*
X86317578Y-64234200D01*
X86374604Y-64459392D01*
X86467915Y-64672119D01*
X86552484Y-64801562D01*
X87105618Y-64248428D01*
X87130916Y-64309502D01*
X87201799Y-64415586D01*
X87292015Y-64505802D01*
X87398099Y-64576685D01*
X87459171Y-64601982D01*
X86904889Y-65156263D01*
X86904890Y-65156264D01*
X86935612Y-65180176D01*
X86935618Y-65180181D01*
X87139907Y-65290736D01*
X87139917Y-65290741D01*
X87359621Y-65366165D01*
X87588753Y-65404401D01*
X87821047Y-65404401D01*
X88050178Y-65366165D01*
X88269882Y-65290741D01*
X88269887Y-65290739D01*
X88474188Y-65180176D01*
X88504908Y-65156264D01*
X88504908Y-65156263D01*
X87950628Y-64601982D01*
X88011701Y-64576685D01*
X88117785Y-64505802D01*
X88208001Y-64415586D01*
X88278884Y-64309502D01*
X88304181Y-64248429D01*
X88857314Y-64801562D01*
X88941880Y-64672126D01*
X88941885Y-64672118D01*
X89035195Y-64459392D01*
X89055626Y-64378711D01*
X116149500Y-64378711D01*
X116149500Y-64621288D01*
X116181161Y-64861785D01*
X116243947Y-65096104D01*
X116324568Y-65290739D01*
X116336776Y-65320212D01*
X116458064Y-65530289D01*
X116458066Y-65530292D01*
X116458067Y-65530293D01*
X116605733Y-65722736D01*
X116605739Y-65722743D01*
X116777256Y-65894260D01*
X116777262Y-65894265D01*
X116969711Y-66041936D01*
X117179788Y-66163224D01*
X117403900Y-66256054D01*
X117638211Y-66318838D01*
X117818586Y-66342584D01*
X117878711Y-66350500D01*
X117878712Y-66350500D01*
X118121289Y-66350500D01*
X118169388Y-66344167D01*
X118361789Y-66318838D01*
X118596100Y-66256054D01*
X118820212Y-66163224D01*
X119030289Y-66041936D01*
X119222738Y-65894265D01*
X119394265Y-65722738D01*
X119541936Y-65530289D01*
X119663224Y-65320212D01*
X119756054Y-65096100D01*
X119818838Y-64861789D01*
X119850500Y-64621288D01*
X119850500Y-64378712D01*
X119818838Y-64138211D01*
X119756054Y-63903900D01*
X119663224Y-63679788D01*
X119541936Y-63469711D01*
X119394265Y-63277262D01*
X119394260Y-63277256D01*
X119222743Y-63105739D01*
X119222736Y-63105733D01*
X119030293Y-62958067D01*
X119030292Y-62958066D01*
X119030289Y-62958064D01*
X118841620Y-62849136D01*
X118820214Y-62836777D01*
X118820205Y-62836773D01*
X118596104Y-62743947D01*
X118361785Y-62681161D01*
X118121289Y-62649500D01*
X118121288Y-62649500D01*
X117878712Y-62649500D01*
X117878711Y-62649500D01*
X117638214Y-62681161D01*
X117403895Y-62743947D01*
X117179794Y-62836773D01*
X117179785Y-62836777D01*
X116969706Y-62958067D01*
X116777263Y-63105733D01*
X116777256Y-63105739D01*
X116605739Y-63277256D01*
X116605733Y-63277263D01*
X116458067Y-63469706D01*
X116336777Y-63679785D01*
X116336773Y-63679794D01*
X116243947Y-63903895D01*
X116181161Y-64138214D01*
X116149500Y-64378711D01*
X89055626Y-64378711D01*
X89092221Y-64234200D01*
X89111404Y-64002706D01*
X89111404Y-64002695D01*
X89092221Y-63771201D01*
X89035195Y-63546009D01*
X88941882Y-63333277D01*
X88857314Y-63203838D01*
X88304180Y-63756971D01*
X88278884Y-63695900D01*
X88208001Y-63589816D01*
X88117785Y-63499600D01*
X88011701Y-63428717D01*
X87950627Y-63403419D01*
X88504909Y-62849137D01*
X88504909Y-62849136D01*
X88474186Y-62825224D01*
X88474181Y-62825220D01*
X88269892Y-62714665D01*
X88269882Y-62714660D01*
X88050178Y-62639236D01*
X87821047Y-62601001D01*
X87588753Y-62601001D01*
X87359621Y-62639236D01*
X87139917Y-62714660D01*
X87139907Y-62714665D01*
X86935617Y-62825221D01*
X86935606Y-62825228D01*
X86904890Y-62849135D01*
X86904890Y-62849137D01*
X87459172Y-63403419D01*
X87398099Y-63428717D01*
X87292015Y-63499600D01*
X87201799Y-63589816D01*
X87130916Y-63695900D01*
X87105618Y-63756972D01*
X86552484Y-63203838D01*
X86467916Y-63333279D01*
X86374604Y-63546009D01*
X86317578Y-63771201D01*
X86298396Y-64002695D01*
X84111906Y-64002695D01*
X84092716Y-63771115D01*
X84035671Y-63545847D01*
X83942325Y-63333040D01*
X83815225Y-63138500D01*
X83657839Y-62967533D01*
X83657834Y-62967529D01*
X83657832Y-62967527D01*
X83474467Y-62824808D01*
X83474461Y-62824804D01*
X83270088Y-62714202D01*
X83270080Y-62714199D01*
X83050302Y-62638749D01*
X82821090Y-62600501D01*
X82588710Y-62600501D01*
X82359497Y-62638749D01*
X82139719Y-62714199D01*
X82139711Y-62714202D01*
X81935338Y-62824804D01*
X81935332Y-62824808D01*
X81751967Y-62967527D01*
X81751964Y-62967530D01*
X81594576Y-63138498D01*
X81594573Y-63138502D01*
X81467475Y-63333038D01*
X81374129Y-63545846D01*
X81317083Y-63771118D01*
X81297894Y-64002695D01*
X54955555Y-64002695D01*
X54863224Y-63779788D01*
X54741936Y-63569711D01*
X54681018Y-63490321D01*
X54594266Y-63377263D01*
X54594260Y-63377256D01*
X54422743Y-63205739D01*
X54422736Y-63205733D01*
X54230293Y-63058067D01*
X54230292Y-63058066D01*
X54230289Y-63058064D01*
X54020212Y-62936776D01*
X54020205Y-62936773D01*
X53796104Y-62843947D01*
X53561785Y-62781161D01*
X53321289Y-62749500D01*
X53321288Y-62749500D01*
X53078712Y-62749500D01*
X53078711Y-62749500D01*
X52838214Y-62781161D01*
X52603895Y-62843947D01*
X52379794Y-62936773D01*
X52379785Y-62936777D01*
X52169706Y-63058067D01*
X51977263Y-63205733D01*
X51977256Y-63205739D01*
X51805739Y-63377256D01*
X51805733Y-63377263D01*
X51658067Y-63569706D01*
X51536777Y-63779785D01*
X51536773Y-63779794D01*
X51443947Y-64003895D01*
X51381161Y-64238214D01*
X51349500Y-64478711D01*
X49000500Y-64478711D01*
X49000500Y-56387500D01*
X51669975Y-56387500D01*
X51690042Y-56642489D01*
X51749752Y-56891202D01*
X51847634Y-57127512D01*
X51847636Y-57127515D01*
X51981277Y-57345598D01*
X51981284Y-57345607D01*
X51984533Y-57349412D01*
X52622421Y-56711524D01*
X52635359Y-56742758D01*
X52717437Y-56865597D01*
X52821903Y-56970063D01*
X52944742Y-57052141D01*
X52975974Y-57065078D01*
X52338087Y-57702965D01*
X52341897Y-57706219D01*
X52559984Y-57839863D01*
X52559987Y-57839865D01*
X52796297Y-57937747D01*
X53045011Y-57997457D01*
X53045010Y-57997457D01*
X53300000Y-58017524D01*
X53554989Y-57997457D01*
X53803702Y-57937747D01*
X54040012Y-57839865D01*
X54040015Y-57839863D01*
X54258095Y-57706224D01*
X54258110Y-57706213D01*
X54261911Y-57702966D01*
X54261911Y-57702964D01*
X53624025Y-57065077D01*
X53655258Y-57052141D01*
X53778097Y-56970063D01*
X53882563Y-56865597D01*
X53964641Y-56742758D01*
X53977578Y-56711525D01*
X54615464Y-57349411D01*
X54615466Y-57349411D01*
X54618713Y-57345610D01*
X54618724Y-57345595D01*
X54752363Y-57127515D01*
X54752365Y-57127512D01*
X54850247Y-56891202D01*
X54909957Y-56642489D01*
X54930024Y-56387500D01*
X54909957Y-56132510D01*
X54850247Y-55883797D01*
X54752365Y-55647487D01*
X54752363Y-55647484D01*
X54618719Y-55429397D01*
X54615465Y-55425587D01*
X53977578Y-56063474D01*
X53964641Y-56032242D01*
X53882563Y-55909403D01*
X53778097Y-55804937D01*
X53655258Y-55722859D01*
X53624024Y-55709921D01*
X54261912Y-55072033D01*
X54258107Y-55068784D01*
X54258098Y-55068777D01*
X54040015Y-54935136D01*
X54040012Y-54935134D01*
X53803702Y-54837252D01*
X53554988Y-54777542D01*
X53554989Y-54777542D01*
X53300000Y-54757475D01*
X53045010Y-54777542D01*
X52796297Y-54837252D01*
X52559987Y-54935134D01*
X52559984Y-54935136D01*
X52341893Y-55068782D01*
X52338086Y-55072032D01*
X52975975Y-55709921D01*
X52944742Y-55722859D01*
X52821903Y-55804937D01*
X52717437Y-55909403D01*
X52635359Y-56032242D01*
X52622421Y-56063475D01*
X51984532Y-55425586D01*
X51981282Y-55429393D01*
X51847636Y-55647484D01*
X51847634Y-55647487D01*
X51749752Y-55883797D01*
X51690042Y-56132510D01*
X51669975Y-56387500D01*
X49000500Y-56387500D01*
X49000500Y-54639635D01*
X114274500Y-54639635D01*
X114274500Y-56985370D01*
X114274501Y-56985376D01*
X114280908Y-57044983D01*
X114331202Y-57179828D01*
X114331206Y-57179835D01*
X114417452Y-57295044D01*
X114417455Y-57295047D01*
X114532664Y-57381293D01*
X114532671Y-57381297D01*
X114667517Y-57431591D01*
X114667516Y-57431591D01*
X114674444Y-57432335D01*
X114727127Y-57438000D01*
X117072872Y-57437999D01*
X117132483Y-57431591D01*
X117267331Y-57381296D01*
X117382546Y-57295046D01*
X117468796Y-57179831D01*
X117519091Y-57044983D01*
X117525500Y-56985373D01*
X117525499Y-54639628D01*
X117519091Y-54580017D01*
X117468796Y-54445169D01*
X117468795Y-54445168D01*
X117468793Y-54445164D01*
X117382547Y-54329955D01*
X117382544Y-54329952D01*
X117267335Y-54243706D01*
X117267328Y-54243702D01*
X117132482Y-54193408D01*
X117132483Y-54193408D01*
X117072883Y-54187001D01*
X117072881Y-54187000D01*
X117072873Y-54187000D01*
X117072864Y-54187000D01*
X114727129Y-54187000D01*
X114727123Y-54187001D01*
X114667516Y-54193408D01*
X114532671Y-54243702D01*
X114532664Y-54243706D01*
X114417455Y-54329952D01*
X114417452Y-54329955D01*
X114331206Y-54445164D01*
X114331202Y-54445171D01*
X114280908Y-54580017D01*
X114274501Y-54639616D01*
X114274501Y-54639623D01*
X114274500Y-54639635D01*
X49000500Y-54639635D01*
X49000500Y-50214635D01*
X51674500Y-50214635D01*
X51674500Y-52560370D01*
X51674501Y-52560376D01*
X51680908Y-52619983D01*
X51731202Y-52754828D01*
X51731206Y-52754835D01*
X51817452Y-52870044D01*
X51817455Y-52870047D01*
X51932664Y-52956293D01*
X51932671Y-52956297D01*
X52067517Y-53006591D01*
X52067516Y-53006591D01*
X52074444Y-53007335D01*
X52127127Y-53013000D01*
X54472872Y-53012999D01*
X54532483Y-53006591D01*
X54667331Y-52956296D01*
X54782546Y-52870046D01*
X54868796Y-52754831D01*
X54919091Y-52619983D01*
X54925500Y-52560373D01*
X54925499Y-50812500D01*
X114269975Y-50812500D01*
X114290042Y-51067489D01*
X114349752Y-51316202D01*
X114447634Y-51552512D01*
X114447636Y-51552515D01*
X114581277Y-51770598D01*
X114581284Y-51770607D01*
X114584533Y-51774412D01*
X115222421Y-51136524D01*
X115235359Y-51167758D01*
X115317437Y-51290597D01*
X115421903Y-51395063D01*
X115544742Y-51477141D01*
X115575974Y-51490078D01*
X114938087Y-52127965D01*
X114941897Y-52131219D01*
X115159984Y-52264863D01*
X115159987Y-52264865D01*
X115396297Y-52362747D01*
X115645011Y-52422457D01*
X115645010Y-52422457D01*
X115900000Y-52442524D01*
X116154989Y-52422457D01*
X116403702Y-52362747D01*
X116640012Y-52264865D01*
X116640015Y-52264863D01*
X116858095Y-52131224D01*
X116858110Y-52131213D01*
X116861911Y-52127966D01*
X116861911Y-52127964D01*
X116224025Y-51490077D01*
X116255258Y-51477141D01*
X116378097Y-51395063D01*
X116482563Y-51290597D01*
X116564641Y-51167758D01*
X116577578Y-51136525D01*
X117215464Y-51774411D01*
X117215466Y-51774411D01*
X117218713Y-51770610D01*
X117218724Y-51770595D01*
X117352363Y-51552515D01*
X117352365Y-51552512D01*
X117450247Y-51316202D01*
X117509957Y-51067489D01*
X117530024Y-50812500D01*
X117509957Y-50557510D01*
X117450247Y-50308797D01*
X117352365Y-50072487D01*
X117352363Y-50072484D01*
X117218719Y-49854397D01*
X117215465Y-49850587D01*
X116577578Y-50488474D01*
X116564641Y-50457242D01*
X116482563Y-50334403D01*
X116378097Y-50229937D01*
X116255258Y-50147859D01*
X116224024Y-50134921D01*
X116861912Y-49497033D01*
X116858107Y-49493784D01*
X116858098Y-49493777D01*
X116640015Y-49360136D01*
X116640012Y-49360134D01*
X116403702Y-49262252D01*
X116154988Y-49202542D01*
X116154989Y-49202542D01*
X115900000Y-49182475D01*
X115645010Y-49202542D01*
X115396297Y-49262252D01*
X115159987Y-49360134D01*
X115159984Y-49360136D01*
X114941893Y-49493782D01*
X114938086Y-49497032D01*
X115575975Y-50134921D01*
X115544742Y-50147859D01*
X115421903Y-50229937D01*
X115317437Y-50334403D01*
X115235359Y-50457242D01*
X115222421Y-50488475D01*
X114584532Y-49850586D01*
X114581282Y-49854393D01*
X114447636Y-50072484D01*
X114447634Y-50072487D01*
X114349752Y-50308797D01*
X114290042Y-50557510D01*
X114269975Y-50812500D01*
X54925499Y-50812500D01*
X54925499Y-50214628D01*
X54919091Y-50155017D01*
X54916421Y-50147859D01*
X54868797Y-50020171D01*
X54868793Y-50020164D01*
X54782547Y-49904955D01*
X54782544Y-49904952D01*
X54667335Y-49818706D01*
X54667328Y-49818702D01*
X54532482Y-49768408D01*
X54532483Y-49768408D01*
X54472883Y-49762001D01*
X54472881Y-49762000D01*
X54472873Y-49762000D01*
X54472864Y-49762000D01*
X52127129Y-49762000D01*
X52127123Y-49762001D01*
X52067516Y-49768408D01*
X51932671Y-49818702D01*
X51932664Y-49818706D01*
X51817455Y-49904952D01*
X51817452Y-49904955D01*
X51731206Y-50020164D01*
X51731202Y-50020171D01*
X51680908Y-50155017D01*
X51674501Y-50214616D01*
X51674501Y-50214623D01*
X51674500Y-50214635D01*
X49000500Y-50214635D01*
X49000500Y-40439635D01*
X51674500Y-40439635D01*
X51674500Y-42785370D01*
X51674501Y-42785376D01*
X51680908Y-42844983D01*
X51731202Y-42979828D01*
X51731206Y-42979835D01*
X51817452Y-43095044D01*
X51817455Y-43095047D01*
X51932664Y-43181293D01*
X51932671Y-43181297D01*
X52067517Y-43231591D01*
X52067516Y-43231591D01*
X52074444Y-43232335D01*
X52127127Y-43238000D01*
X54472872Y-43237999D01*
X54532483Y-43231591D01*
X54667331Y-43181296D01*
X54782546Y-43095046D01*
X54868796Y-42979831D01*
X54919091Y-42844983D01*
X54925500Y-42785373D01*
X54925499Y-40439628D01*
X54919091Y-40380017D01*
X54868796Y-40245169D01*
X54868795Y-40245168D01*
X54868793Y-40245164D01*
X54782547Y-40129955D01*
X54782544Y-40129952D01*
X54667335Y-40043706D01*
X54667328Y-40043702D01*
X54532482Y-39993408D01*
X54532483Y-39993408D01*
X54472883Y-39987001D01*
X54472881Y-39987000D01*
X54472873Y-39987000D01*
X54472864Y-39987000D01*
X52127129Y-39987000D01*
X52127123Y-39987001D01*
X52067516Y-39993408D01*
X51932671Y-40043702D01*
X51932664Y-40043706D01*
X51817455Y-40129952D01*
X51817452Y-40129955D01*
X51731206Y-40245164D01*
X51731202Y-40245171D01*
X51680908Y-40380017D01*
X51674501Y-40439616D01*
X51674501Y-40439623D01*
X51674500Y-40439635D01*
X49000500Y-40439635D01*
X49000500Y-36612500D01*
X51669975Y-36612500D01*
X51690042Y-36867489D01*
X51749752Y-37116202D01*
X51847634Y-37352512D01*
X51847636Y-37352515D01*
X51981277Y-37570598D01*
X51981284Y-37570607D01*
X51984533Y-37574412D01*
X52622421Y-36936524D01*
X52635359Y-36967758D01*
X52717437Y-37090597D01*
X52821903Y-37195063D01*
X52944742Y-37277141D01*
X52975974Y-37290078D01*
X52338087Y-37927965D01*
X52341897Y-37931219D01*
X52559984Y-38064863D01*
X52559987Y-38064865D01*
X52796297Y-38162747D01*
X53045011Y-38222457D01*
X53045010Y-38222457D01*
X53300000Y-38242524D01*
X53554989Y-38222457D01*
X53803702Y-38162747D01*
X53907357Y-38119812D01*
X71199500Y-38119812D01*
X71199500Y-40215547D01*
X71199501Y-40215553D01*
X71205908Y-40275160D01*
X71256202Y-40410005D01*
X71256206Y-40410012D01*
X71342452Y-40525221D01*
X71342455Y-40525224D01*
X71457664Y-40611470D01*
X71457671Y-40611474D01*
X71592517Y-40661768D01*
X71592516Y-40661768D01*
X71599444Y-40662512D01*
X71652127Y-40668177D01*
X73747872Y-40668176D01*
X73807483Y-40661768D01*
X73942331Y-40611473D01*
X74057546Y-40525223D01*
X74143796Y-40410008D01*
X74194091Y-40275160D01*
X74200500Y-40215550D01*
X74200500Y-40039635D01*
X114174500Y-40039635D01*
X114174500Y-42385370D01*
X114174501Y-42385376D01*
X114180908Y-42444983D01*
X114231202Y-42579828D01*
X114231206Y-42579835D01*
X114317452Y-42695044D01*
X114317455Y-42695047D01*
X114432664Y-42781293D01*
X114432671Y-42781297D01*
X114567517Y-42831591D01*
X114567516Y-42831591D01*
X114574444Y-42832335D01*
X114627127Y-42838000D01*
X116972872Y-42837999D01*
X117032483Y-42831591D01*
X117167331Y-42781296D01*
X117282546Y-42695046D01*
X117368796Y-42579831D01*
X117419091Y-42444983D01*
X117425500Y-42385373D01*
X117425499Y-40039628D01*
X117419091Y-39980017D01*
X117368796Y-39845169D01*
X117368795Y-39845168D01*
X117368793Y-39845164D01*
X117282547Y-39729955D01*
X117282544Y-39729952D01*
X117167335Y-39643706D01*
X117167328Y-39643702D01*
X117032482Y-39593408D01*
X117032483Y-39593408D01*
X116972883Y-39587001D01*
X116972881Y-39587000D01*
X116972873Y-39587000D01*
X116972864Y-39587000D01*
X114627129Y-39587000D01*
X114627123Y-39587001D01*
X114567516Y-39593408D01*
X114432671Y-39643702D01*
X114432664Y-39643706D01*
X114317455Y-39729952D01*
X114317452Y-39729955D01*
X114231206Y-39845164D01*
X114231202Y-39845171D01*
X114180908Y-39980017D01*
X114174501Y-40039616D01*
X114174501Y-40039623D01*
X114174500Y-40039635D01*
X74200500Y-40039635D01*
X74200499Y-38119805D01*
X74194091Y-38060194D01*
X74145988Y-37931224D01*
X74143797Y-37925348D01*
X74143793Y-37925341D01*
X74057547Y-37810132D01*
X74057544Y-37810129D01*
X73942335Y-37723883D01*
X73942328Y-37723879D01*
X73807482Y-37673585D01*
X73807483Y-37673585D01*
X73747883Y-37667178D01*
X73747881Y-37667177D01*
X73747873Y-37667177D01*
X73747864Y-37667177D01*
X71652129Y-37667177D01*
X71652123Y-37667178D01*
X71592516Y-37673585D01*
X71457671Y-37723879D01*
X71457664Y-37723883D01*
X71342455Y-37810129D01*
X71342452Y-37810132D01*
X71256206Y-37925341D01*
X71256202Y-37925348D01*
X71205908Y-38060194D01*
X71199501Y-38119793D01*
X71199501Y-38119800D01*
X71199500Y-38119812D01*
X53907357Y-38119812D01*
X54040012Y-38064865D01*
X54040015Y-38064863D01*
X54258095Y-37931224D01*
X54258110Y-37931213D01*
X54261911Y-37927966D01*
X54261911Y-37927964D01*
X53624025Y-37290077D01*
X53655258Y-37277141D01*
X53778097Y-37195063D01*
X53882563Y-37090597D01*
X53964641Y-36967758D01*
X53977578Y-36936525D01*
X54615464Y-37574411D01*
X54615466Y-37574411D01*
X54618713Y-37570610D01*
X54618724Y-37570595D01*
X54752363Y-37352515D01*
X54752365Y-37352512D01*
X54850247Y-37116202D01*
X54909957Y-36867489D01*
X54930024Y-36612500D01*
X54909957Y-36357510D01*
X54875144Y-36212500D01*
X114169975Y-36212500D01*
X114190042Y-36467489D01*
X114249752Y-36716202D01*
X114347634Y-36952512D01*
X114347636Y-36952515D01*
X114481277Y-37170598D01*
X114481284Y-37170607D01*
X114484533Y-37174412D01*
X115122421Y-36536524D01*
X115135359Y-36567758D01*
X115217437Y-36690597D01*
X115321903Y-36795063D01*
X115444742Y-36877141D01*
X115475974Y-36890078D01*
X114838087Y-37527965D01*
X114841897Y-37531219D01*
X115059984Y-37664863D01*
X115059987Y-37664865D01*
X115296297Y-37762747D01*
X115545011Y-37822457D01*
X115545010Y-37822457D01*
X115800000Y-37842524D01*
X116054989Y-37822457D01*
X116303702Y-37762747D01*
X116540012Y-37664865D01*
X116540015Y-37664863D01*
X116758095Y-37531224D01*
X116758110Y-37531213D01*
X116761911Y-37527966D01*
X116761911Y-37527964D01*
X116124025Y-36890077D01*
X116155258Y-36877141D01*
X116278097Y-36795063D01*
X116382563Y-36690597D01*
X116464641Y-36567758D01*
X116477578Y-36536525D01*
X117115464Y-37174411D01*
X117115466Y-37174411D01*
X117118713Y-37170610D01*
X117118724Y-37170595D01*
X117252363Y-36952515D01*
X117252365Y-36952512D01*
X117350247Y-36716202D01*
X117409957Y-36467489D01*
X117430024Y-36212500D01*
X117409957Y-35957510D01*
X117350247Y-35708797D01*
X117252365Y-35472487D01*
X117252363Y-35472484D01*
X117118719Y-35254397D01*
X117115465Y-35250587D01*
X116477578Y-35888474D01*
X116464641Y-35857242D01*
X116382563Y-35734403D01*
X116278097Y-35629937D01*
X116155258Y-35547859D01*
X116124024Y-35534921D01*
X116761912Y-34897033D01*
X116758107Y-34893784D01*
X116758098Y-34893777D01*
X116540015Y-34760136D01*
X116540012Y-34760134D01*
X116303702Y-34662252D01*
X116054988Y-34602542D01*
X116054989Y-34602542D01*
X115800000Y-34582475D01*
X115545010Y-34602542D01*
X115296297Y-34662252D01*
X115059987Y-34760134D01*
X115059984Y-34760136D01*
X114841893Y-34893782D01*
X114838086Y-34897032D01*
X115475975Y-35534921D01*
X115444742Y-35547859D01*
X115321903Y-35629937D01*
X115217437Y-35734403D01*
X115135359Y-35857242D01*
X115122421Y-35888475D01*
X114484532Y-35250586D01*
X114481282Y-35254393D01*
X114347636Y-35472484D01*
X114347634Y-35472487D01*
X114249752Y-35708797D01*
X114190042Y-35957510D01*
X114169975Y-36212500D01*
X54875144Y-36212500D01*
X54850247Y-36108797D01*
X54752365Y-35872487D01*
X54752363Y-35872484D01*
X54618719Y-35654397D01*
X54615465Y-35650587D01*
X53977578Y-36288474D01*
X53964641Y-36257242D01*
X53882563Y-36134403D01*
X53778097Y-36029937D01*
X53655258Y-35947859D01*
X53624024Y-35934921D01*
X54261912Y-35297033D01*
X54258107Y-35293784D01*
X54258098Y-35293777D01*
X54040015Y-35160136D01*
X54040012Y-35160134D01*
X53803702Y-35062252D01*
X53554988Y-35002542D01*
X53554989Y-35002542D01*
X53300000Y-34982475D01*
X53045010Y-35002542D01*
X52796297Y-35062252D01*
X52559987Y-35160134D01*
X52559984Y-35160136D01*
X52341893Y-35293782D01*
X52338086Y-35297032D01*
X52975975Y-35934921D01*
X52944742Y-35947859D01*
X52821903Y-36029937D01*
X52717437Y-36134403D01*
X52635359Y-36257242D01*
X52622421Y-36288475D01*
X51984532Y-35650586D01*
X51981282Y-35654393D01*
X51847636Y-35872484D01*
X51847634Y-35872487D01*
X51749752Y-36108797D01*
X51690042Y-36357510D01*
X51669975Y-36612500D01*
X49000500Y-36612500D01*
X49000500Y-34167671D01*
X71194859Y-34167671D01*
X71194859Y-34167682D01*
X71215385Y-34415406D01*
X71215387Y-34415415D01*
X71276412Y-34656394D01*
X71376266Y-34884041D01*
X71476564Y-35037559D01*
X72217037Y-34297086D01*
X72234075Y-34360670D01*
X72299901Y-34474684D01*
X72392993Y-34567776D01*
X72507007Y-34633602D01*
X72570590Y-34650639D01*
X71829942Y-35391286D01*
X71876768Y-35427732D01*
X71876770Y-35427733D01*
X72095385Y-35546041D01*
X72095396Y-35546046D01*
X72330506Y-35626760D01*
X72575707Y-35667677D01*
X72824293Y-35667677D01*
X73069493Y-35626760D01*
X73304603Y-35546046D01*
X73304614Y-35546041D01*
X73523228Y-35427734D01*
X73523231Y-35427732D01*
X73570056Y-35391286D01*
X72829409Y-34650639D01*
X72892993Y-34633602D01*
X73007007Y-34567776D01*
X73100099Y-34474684D01*
X73165925Y-34360670D01*
X73182962Y-34297087D01*
X73923434Y-35037559D01*
X74023731Y-34884046D01*
X74123587Y-34656394D01*
X74184612Y-34415415D01*
X74184614Y-34415406D01*
X74205141Y-34167682D01*
X74205141Y-34167671D01*
X74184614Y-33919947D01*
X74184612Y-33919938D01*
X74123587Y-33678959D01*
X74023731Y-33451307D01*
X73923434Y-33297793D01*
X73182962Y-34038266D01*
X73165925Y-33974684D01*
X73100099Y-33860670D01*
X73007007Y-33767578D01*
X72892993Y-33701752D01*
X72829410Y-33684714D01*
X73570057Y-32944067D01*
X73570056Y-32944066D01*
X73523229Y-32907620D01*
X73304614Y-32789312D01*
X73304603Y-32789307D01*
X73069493Y-32708593D01*
X72824293Y-32667677D01*
X72575707Y-32667677D01*
X72330506Y-32708593D01*
X72095396Y-32789307D01*
X72095390Y-32789309D01*
X71876761Y-32907626D01*
X71829942Y-32944065D01*
X71829942Y-32944067D01*
X72570590Y-33684714D01*
X72507007Y-33701752D01*
X72392993Y-33767578D01*
X72299901Y-33860670D01*
X72234075Y-33974684D01*
X72217037Y-34038266D01*
X71476564Y-33297793D01*
X71376267Y-33451309D01*
X71276412Y-33678959D01*
X71215387Y-33919938D01*
X71215385Y-33919947D01*
X71194859Y-34167671D01*
X49000500Y-34167671D01*
X49000500Y-26978711D01*
X51149500Y-26978711D01*
X51149500Y-27221288D01*
X51181161Y-27461785D01*
X51243947Y-27696104D01*
X51296055Y-27821903D01*
X51336776Y-27920212D01*
X51458064Y-28130289D01*
X51458066Y-28130292D01*
X51458067Y-28130293D01*
X51605733Y-28322736D01*
X51605739Y-28322743D01*
X51777256Y-28494260D01*
X51777263Y-28494266D01*
X51854528Y-28553553D01*
X51969711Y-28641936D01*
X52179788Y-28763224D01*
X52403900Y-28856054D01*
X52638211Y-28918838D01*
X52799069Y-28940015D01*
X52878711Y-28950500D01*
X52878712Y-28950500D01*
X53121289Y-28950500D01*
X53169388Y-28944167D01*
X53361789Y-28918838D01*
X53596100Y-28856054D01*
X53820212Y-28763224D01*
X54030289Y-28641936D01*
X54222738Y-28494265D01*
X54394265Y-28322738D01*
X54541936Y-28130289D01*
X54663224Y-27920212D01*
X54756054Y-27696100D01*
X54818838Y-27461789D01*
X54850500Y-27221288D01*
X54850500Y-27127135D01*
X59862000Y-27127135D01*
X59862000Y-29472870D01*
X59862001Y-29472876D01*
X59868408Y-29532483D01*
X59918702Y-29667328D01*
X59918706Y-29667335D01*
X60004952Y-29782544D01*
X60004955Y-29782547D01*
X60120164Y-29868793D01*
X60120171Y-29868797D01*
X60255017Y-29919091D01*
X60255016Y-29919091D01*
X60261944Y-29919835D01*
X60314627Y-29925500D01*
X62660372Y-29925499D01*
X62719983Y-29919091D01*
X62854831Y-29868796D01*
X62970046Y-29782546D01*
X63056296Y-29667331D01*
X63106591Y-29532483D01*
X63113000Y-29472873D01*
X63112999Y-28300000D01*
X64857475Y-28300000D01*
X64877542Y-28554989D01*
X64937252Y-28803702D01*
X65035134Y-29040012D01*
X65035136Y-29040015D01*
X65168777Y-29258098D01*
X65168784Y-29258107D01*
X65172033Y-29261912D01*
X65809921Y-28624024D01*
X65822859Y-28655258D01*
X65904937Y-28778097D01*
X66009403Y-28882563D01*
X66132242Y-28964641D01*
X66163474Y-28977578D01*
X65525587Y-29615465D01*
X65529397Y-29618719D01*
X65747484Y-29752363D01*
X65747487Y-29752365D01*
X65983797Y-29850247D01*
X66232511Y-29909957D01*
X66232510Y-29909957D01*
X66487500Y-29930024D01*
X66742489Y-29909957D01*
X66991202Y-29850247D01*
X67227512Y-29752365D01*
X67227515Y-29752363D01*
X67445595Y-29618724D01*
X67445610Y-29618713D01*
X67449411Y-29615466D01*
X67449411Y-29615464D01*
X66811525Y-28977577D01*
X66842758Y-28964641D01*
X66965597Y-28882563D01*
X67070063Y-28778097D01*
X67152141Y-28655258D01*
X67165078Y-28624025D01*
X67802964Y-29261911D01*
X67802966Y-29261911D01*
X67806213Y-29258110D01*
X67806224Y-29258095D01*
X67939863Y-29040015D01*
X67939865Y-29040012D01*
X68037747Y-28803702D01*
X68097457Y-28554989D01*
X68117524Y-28300000D01*
X68097457Y-28045010D01*
X68037747Y-27796297D01*
X67939865Y-27559987D01*
X67939863Y-27559984D01*
X67806219Y-27341897D01*
X67802965Y-27338087D01*
X67165078Y-27975974D01*
X67152141Y-27944742D01*
X67070063Y-27821903D01*
X66965597Y-27717437D01*
X66842758Y-27635359D01*
X66811524Y-27622421D01*
X67406810Y-27027135D01*
X76974500Y-27027135D01*
X76974500Y-29372870D01*
X76974501Y-29372876D01*
X76980908Y-29432483D01*
X77031202Y-29567328D01*
X77031206Y-29567335D01*
X77117452Y-29682544D01*
X77117455Y-29682547D01*
X77232664Y-29768793D01*
X77232671Y-29768797D01*
X77367517Y-29819091D01*
X77367516Y-29819091D01*
X77374444Y-29819835D01*
X77427127Y-29825500D01*
X79772872Y-29825499D01*
X79832483Y-29819091D01*
X79967331Y-29768796D01*
X80082546Y-29682546D01*
X80168796Y-29567331D01*
X80219091Y-29432483D01*
X80225500Y-29372873D01*
X80225499Y-28200000D01*
X81969975Y-28200000D01*
X81990042Y-28454989D01*
X82049752Y-28703702D01*
X82147634Y-28940012D01*
X82147636Y-28940015D01*
X82281277Y-29158098D01*
X82281284Y-29158107D01*
X82284533Y-29161912D01*
X82922421Y-28524024D01*
X82935359Y-28555258D01*
X83017437Y-28678097D01*
X83121903Y-28782563D01*
X83244742Y-28864641D01*
X83275974Y-28877578D01*
X82638087Y-29515465D01*
X82641897Y-29518719D01*
X82859984Y-29652363D01*
X82859987Y-29652365D01*
X83096297Y-29750247D01*
X83345011Y-29809957D01*
X83345010Y-29809957D01*
X83600000Y-29830024D01*
X83854989Y-29809957D01*
X84103702Y-29750247D01*
X84340012Y-29652365D01*
X84340015Y-29652363D01*
X84558095Y-29518724D01*
X84558110Y-29518713D01*
X84561911Y-29515466D01*
X84561911Y-29515464D01*
X83924025Y-28877577D01*
X83955258Y-28864641D01*
X84078097Y-28782563D01*
X84182563Y-28678097D01*
X84264641Y-28555258D01*
X84277578Y-28524025D01*
X84915464Y-29161911D01*
X84915466Y-29161911D01*
X84918713Y-29158110D01*
X84918724Y-29158095D01*
X85052363Y-28940015D01*
X85052365Y-28940012D01*
X85150247Y-28703702D01*
X85209957Y-28454989D01*
X85230024Y-28200000D01*
X85209957Y-27945010D01*
X85150247Y-27696297D01*
X85052365Y-27459987D01*
X85052363Y-27459984D01*
X84918719Y-27241897D01*
X84915465Y-27238087D01*
X84277578Y-27875974D01*
X84264641Y-27844742D01*
X84182563Y-27721903D01*
X84078097Y-27617437D01*
X83955258Y-27535359D01*
X83924024Y-27522421D01*
X84319310Y-27127135D01*
X90574500Y-27127135D01*
X90574500Y-29472870D01*
X90574501Y-29472876D01*
X90580908Y-29532483D01*
X90631202Y-29667328D01*
X90631206Y-29667335D01*
X90717452Y-29782544D01*
X90717455Y-29782547D01*
X90832664Y-29868793D01*
X90832671Y-29868797D01*
X90967517Y-29919091D01*
X90967516Y-29919091D01*
X90974444Y-29919835D01*
X91027127Y-29925500D01*
X93372872Y-29925499D01*
X93432483Y-29919091D01*
X93567331Y-29868796D01*
X93682546Y-29782546D01*
X93768796Y-29667331D01*
X93819091Y-29532483D01*
X93825500Y-29472873D01*
X93825499Y-28300000D01*
X95569975Y-28300000D01*
X95590042Y-28554989D01*
X95649752Y-28803702D01*
X95747634Y-29040012D01*
X95747636Y-29040015D01*
X95881277Y-29258098D01*
X95881284Y-29258107D01*
X95884533Y-29261912D01*
X96522421Y-28624024D01*
X96535359Y-28655258D01*
X96617437Y-28778097D01*
X96721903Y-28882563D01*
X96844742Y-28964641D01*
X96875974Y-28977578D01*
X96238087Y-29615465D01*
X96241897Y-29618719D01*
X96459984Y-29752363D01*
X96459987Y-29752365D01*
X96696297Y-29850247D01*
X96945011Y-29909957D01*
X96945010Y-29909957D01*
X97200000Y-29930024D01*
X97454989Y-29909957D01*
X97703702Y-29850247D01*
X97940012Y-29752365D01*
X97940015Y-29752363D01*
X98158095Y-29618724D01*
X98158110Y-29618713D01*
X98161911Y-29615466D01*
X98161911Y-29615464D01*
X97524025Y-28977577D01*
X97555258Y-28964641D01*
X97678097Y-28882563D01*
X97782563Y-28778097D01*
X97864641Y-28655258D01*
X97877578Y-28624025D01*
X98515464Y-29261911D01*
X98515466Y-29261911D01*
X98518713Y-29258110D01*
X98518724Y-29258095D01*
X98652363Y-29040015D01*
X98652365Y-29040012D01*
X98750247Y-28803702D01*
X98809957Y-28554989D01*
X98830024Y-28300000D01*
X98809957Y-28045010D01*
X98750247Y-27796297D01*
X98652365Y-27559987D01*
X98652363Y-27559984D01*
X98518719Y-27341897D01*
X98515465Y-27338087D01*
X97877578Y-27975974D01*
X97864641Y-27944742D01*
X97782563Y-27821903D01*
X97678097Y-27717437D01*
X97555258Y-27635359D01*
X97524024Y-27622421D01*
X98019310Y-27127135D01*
X103774500Y-27127135D01*
X103774500Y-29472870D01*
X103774501Y-29472876D01*
X103780908Y-29532483D01*
X103831202Y-29667328D01*
X103831206Y-29667335D01*
X103917452Y-29782544D01*
X103917455Y-29782547D01*
X104032664Y-29868793D01*
X104032671Y-29868797D01*
X104167517Y-29919091D01*
X104167516Y-29919091D01*
X104174444Y-29919835D01*
X104227127Y-29925500D01*
X106572872Y-29925499D01*
X106632483Y-29919091D01*
X106767331Y-29868796D01*
X106882546Y-29782546D01*
X106968796Y-29667331D01*
X107019091Y-29532483D01*
X107025500Y-29472873D01*
X107025499Y-28300000D01*
X108769975Y-28300000D01*
X108790042Y-28554989D01*
X108849752Y-28803702D01*
X108947634Y-29040012D01*
X108947636Y-29040015D01*
X109081277Y-29258098D01*
X109081284Y-29258107D01*
X109084533Y-29261912D01*
X109722421Y-28624024D01*
X109735359Y-28655258D01*
X109817437Y-28778097D01*
X109921903Y-28882563D01*
X110044742Y-28964641D01*
X110075974Y-28977578D01*
X109438087Y-29615465D01*
X109441897Y-29618719D01*
X109659984Y-29752363D01*
X109659987Y-29752365D01*
X109896297Y-29850247D01*
X110145011Y-29909957D01*
X110145010Y-29909957D01*
X110400000Y-29930024D01*
X110654989Y-29909957D01*
X110903702Y-29850247D01*
X111140012Y-29752365D01*
X111140015Y-29752363D01*
X111358095Y-29618724D01*
X111358110Y-29618713D01*
X111361911Y-29615466D01*
X111361911Y-29615464D01*
X110724025Y-28977577D01*
X110755258Y-28964641D01*
X110878097Y-28882563D01*
X110982563Y-28778097D01*
X111064641Y-28655258D01*
X111077578Y-28624025D01*
X111715464Y-29261911D01*
X111715466Y-29261911D01*
X111718713Y-29258110D01*
X111718724Y-29258095D01*
X111852363Y-29040015D01*
X111852365Y-29040012D01*
X111950247Y-28803702D01*
X112009957Y-28554989D01*
X112030024Y-28300000D01*
X112009957Y-28045010D01*
X111950247Y-27796297D01*
X111852365Y-27559987D01*
X111852363Y-27559984D01*
X111718719Y-27341897D01*
X111715465Y-27338087D01*
X111077578Y-27975974D01*
X111064641Y-27944742D01*
X110982563Y-27821903D01*
X110878097Y-27717437D01*
X110755258Y-27635359D01*
X110724024Y-27622421D01*
X111361912Y-26984533D01*
X111358107Y-26981284D01*
X111358098Y-26981277D01*
X111353911Y-26978711D01*
X115949500Y-26978711D01*
X115949500Y-27221288D01*
X115981161Y-27461785D01*
X116043947Y-27696104D01*
X116096055Y-27821903D01*
X116136776Y-27920212D01*
X116258064Y-28130289D01*
X116258066Y-28130292D01*
X116258067Y-28130293D01*
X116405733Y-28322736D01*
X116405739Y-28322743D01*
X116577256Y-28494260D01*
X116577263Y-28494266D01*
X116654528Y-28553553D01*
X116769711Y-28641936D01*
X116979788Y-28763224D01*
X117203900Y-28856054D01*
X117438211Y-28918838D01*
X117599069Y-28940015D01*
X117678711Y-28950500D01*
X117678712Y-28950500D01*
X117921289Y-28950500D01*
X117969388Y-28944167D01*
X118161789Y-28918838D01*
X118396100Y-28856054D01*
X118620212Y-28763224D01*
X118830289Y-28641936D01*
X119022738Y-28494265D01*
X119194265Y-28322738D01*
X119341936Y-28130289D01*
X119463224Y-27920212D01*
X119556054Y-27696100D01*
X119618838Y-27461789D01*
X119650500Y-27221288D01*
X119650500Y-26978712D01*
X119618838Y-26738211D01*
X119556054Y-26503900D01*
X119463224Y-26279788D01*
X119341936Y-26069711D01*
X119194265Y-25877262D01*
X119194260Y-25877256D01*
X119022743Y-25705739D01*
X119022736Y-25705733D01*
X118830293Y-25558067D01*
X118830292Y-25558066D01*
X118830289Y-25558064D01*
X118620212Y-25436776D01*
X118620205Y-25436773D01*
X118396104Y-25343947D01*
X118161785Y-25281161D01*
X117921289Y-25249500D01*
X117921288Y-25249500D01*
X117678712Y-25249500D01*
X117678711Y-25249500D01*
X117438214Y-25281161D01*
X117203895Y-25343947D01*
X116979794Y-25436773D01*
X116979785Y-25436777D01*
X116769706Y-25558067D01*
X116577263Y-25705733D01*
X116577256Y-25705739D01*
X116405739Y-25877256D01*
X116405733Y-25877263D01*
X116258067Y-26069706D01*
X116136777Y-26279785D01*
X116136773Y-26279794D01*
X116043947Y-26503895D01*
X115981161Y-26738214D01*
X115949500Y-26978711D01*
X111353911Y-26978711D01*
X111140015Y-26847636D01*
X111140012Y-26847634D01*
X110903702Y-26749752D01*
X110654988Y-26690042D01*
X110654989Y-26690042D01*
X110400000Y-26669975D01*
X110145010Y-26690042D01*
X109896297Y-26749752D01*
X109659987Y-26847634D01*
X109659984Y-26847636D01*
X109441893Y-26981282D01*
X109438086Y-26984532D01*
X110075975Y-27622421D01*
X110044742Y-27635359D01*
X109921903Y-27717437D01*
X109817437Y-27821903D01*
X109735359Y-27944742D01*
X109722421Y-27975975D01*
X109084532Y-27338086D01*
X109081282Y-27341893D01*
X108947636Y-27559984D01*
X108947634Y-27559987D01*
X108849752Y-27796297D01*
X108790042Y-28045010D01*
X108769975Y-28300000D01*
X107025499Y-28300000D01*
X107025499Y-27127128D01*
X107019091Y-27067517D01*
X107004027Y-27027129D01*
X106968797Y-26932671D01*
X106968793Y-26932664D01*
X106882547Y-26817455D01*
X106882544Y-26817452D01*
X106767335Y-26731206D01*
X106767328Y-26731202D01*
X106632482Y-26680908D01*
X106632483Y-26680908D01*
X106572883Y-26674501D01*
X106572881Y-26674500D01*
X106572873Y-26674500D01*
X106572864Y-26674500D01*
X104227129Y-26674500D01*
X104227123Y-26674501D01*
X104167516Y-26680908D01*
X104032671Y-26731202D01*
X104032664Y-26731206D01*
X103917455Y-26817452D01*
X103917452Y-26817455D01*
X103831206Y-26932664D01*
X103831202Y-26932671D01*
X103780908Y-27067517D01*
X103774501Y-27127116D01*
X103774501Y-27127123D01*
X103774500Y-27127135D01*
X98019310Y-27127135D01*
X98161912Y-26984533D01*
X98158107Y-26981284D01*
X98158098Y-26981277D01*
X97940015Y-26847636D01*
X97940012Y-26847634D01*
X97703702Y-26749752D01*
X97454988Y-26690042D01*
X97454989Y-26690042D01*
X97200000Y-26669975D01*
X96945010Y-26690042D01*
X96696297Y-26749752D01*
X96459987Y-26847634D01*
X96459984Y-26847636D01*
X96241893Y-26981282D01*
X96238086Y-26984532D01*
X96875975Y-27622421D01*
X96844742Y-27635359D01*
X96721903Y-27717437D01*
X96617437Y-27821903D01*
X96535359Y-27944742D01*
X96522421Y-27975975D01*
X95884532Y-27338086D01*
X95881282Y-27341893D01*
X95747636Y-27559984D01*
X95747634Y-27559987D01*
X95649752Y-27796297D01*
X95590042Y-28045010D01*
X95569975Y-28300000D01*
X93825499Y-28300000D01*
X93825499Y-27127128D01*
X93819091Y-27067517D01*
X93804027Y-27027129D01*
X93768797Y-26932671D01*
X93768793Y-26932664D01*
X93682547Y-26817455D01*
X93682544Y-26817452D01*
X93567335Y-26731206D01*
X93567328Y-26731202D01*
X93432482Y-26680908D01*
X93432483Y-26680908D01*
X93372883Y-26674501D01*
X93372881Y-26674500D01*
X93372873Y-26674500D01*
X93372864Y-26674500D01*
X91027129Y-26674500D01*
X91027123Y-26674501D01*
X90967516Y-26680908D01*
X90832671Y-26731202D01*
X90832664Y-26731206D01*
X90717455Y-26817452D01*
X90717452Y-26817455D01*
X90631206Y-26932664D01*
X90631202Y-26932671D01*
X90580908Y-27067517D01*
X90574501Y-27127116D01*
X90574501Y-27127123D01*
X90574500Y-27127135D01*
X84319310Y-27127135D01*
X84561912Y-26884533D01*
X84558107Y-26881284D01*
X84558098Y-26881277D01*
X84340015Y-26747636D01*
X84340012Y-26747634D01*
X84103702Y-26649752D01*
X83854988Y-26590042D01*
X83854989Y-26590042D01*
X83600000Y-26569975D01*
X83345010Y-26590042D01*
X83096297Y-26649752D01*
X82859987Y-26747634D01*
X82859984Y-26747636D01*
X82641893Y-26881282D01*
X82638086Y-26884532D01*
X83275975Y-27522421D01*
X83244742Y-27535359D01*
X83121903Y-27617437D01*
X83017437Y-27721903D01*
X82935359Y-27844742D01*
X82922421Y-27875975D01*
X82284532Y-27238086D01*
X82281282Y-27241893D01*
X82147636Y-27459984D01*
X82147634Y-27459987D01*
X82049752Y-27696297D01*
X81990042Y-27945010D01*
X81969975Y-28200000D01*
X80225499Y-28200000D01*
X80225499Y-27027128D01*
X80219091Y-26967517D01*
X80206094Y-26932671D01*
X80168797Y-26832671D01*
X80168793Y-26832664D01*
X80082547Y-26717455D01*
X80082544Y-26717452D01*
X79967335Y-26631206D01*
X79967328Y-26631202D01*
X79832482Y-26580908D01*
X79832483Y-26580908D01*
X79772883Y-26574501D01*
X79772881Y-26574500D01*
X79772873Y-26574500D01*
X79772864Y-26574500D01*
X77427129Y-26574500D01*
X77427123Y-26574501D01*
X77367516Y-26580908D01*
X77232671Y-26631202D01*
X77232664Y-26631206D01*
X77117455Y-26717452D01*
X77117452Y-26717455D01*
X77031206Y-26832664D01*
X77031202Y-26832671D01*
X76980908Y-26967517D01*
X76974501Y-27027116D01*
X76974501Y-27027123D01*
X76974500Y-27027135D01*
X67406810Y-27027135D01*
X67449412Y-26984533D01*
X67445607Y-26981284D01*
X67445598Y-26981277D01*
X67227515Y-26847636D01*
X67227512Y-26847634D01*
X66991202Y-26749752D01*
X66742488Y-26690042D01*
X66742489Y-26690042D01*
X66487500Y-26669975D01*
X66232510Y-26690042D01*
X65983797Y-26749752D01*
X65747487Y-26847634D01*
X65747484Y-26847636D01*
X65529393Y-26981282D01*
X65525586Y-26984532D01*
X66163475Y-27622421D01*
X66132242Y-27635359D01*
X66009403Y-27717437D01*
X65904937Y-27821903D01*
X65822859Y-27944742D01*
X65809921Y-27975975D01*
X65172032Y-27338086D01*
X65168782Y-27341893D01*
X65035136Y-27559984D01*
X65035134Y-27559987D01*
X64937252Y-27796297D01*
X64877542Y-28045010D01*
X64857475Y-28300000D01*
X63112999Y-28300000D01*
X63112999Y-27127128D01*
X63106591Y-27067517D01*
X63091527Y-27027129D01*
X63056297Y-26932671D01*
X63056293Y-26932664D01*
X62970047Y-26817455D01*
X62970044Y-26817452D01*
X62854835Y-26731206D01*
X62854828Y-26731202D01*
X62719982Y-26680908D01*
X62719983Y-26680908D01*
X62660383Y-26674501D01*
X62660381Y-26674500D01*
X62660373Y-26674500D01*
X62660364Y-26674500D01*
X60314629Y-26674500D01*
X60314623Y-26674501D01*
X60255016Y-26680908D01*
X60120171Y-26731202D01*
X60120164Y-26731206D01*
X60004955Y-26817452D01*
X60004952Y-26817455D01*
X59918706Y-26932664D01*
X59918702Y-26932671D01*
X59868408Y-27067517D01*
X59862001Y-27127116D01*
X59862001Y-27127123D01*
X59862000Y-27127135D01*
X54850500Y-27127135D01*
X54850500Y-26978712D01*
X54818838Y-26738211D01*
X54756054Y-26503900D01*
X54663224Y-26279788D01*
X54541936Y-26069711D01*
X54394265Y-25877262D01*
X54394260Y-25877256D01*
X54222743Y-25705739D01*
X54222736Y-25705733D01*
X54030293Y-25558067D01*
X54030292Y-25558066D01*
X54030289Y-25558064D01*
X53820212Y-25436776D01*
X53820205Y-25436773D01*
X53596104Y-25343947D01*
X53361785Y-25281161D01*
X53121289Y-25249500D01*
X53121288Y-25249500D01*
X52878712Y-25249500D01*
X52878711Y-25249500D01*
X52638214Y-25281161D01*
X52403895Y-25343947D01*
X52179794Y-25436773D01*
X52179785Y-25436777D01*
X51969706Y-25558067D01*
X51777263Y-25705733D01*
X51777256Y-25705739D01*
X51605739Y-25877256D01*
X51605733Y-25877263D01*
X51458067Y-26069706D01*
X51336777Y-26279785D01*
X51336773Y-26279794D01*
X51243947Y-26503895D01*
X51181161Y-26738214D01*
X51149500Y-26978711D01*
X49000500Y-26978711D01*
X49000500Y-23624500D01*
X49020185Y-23557461D01*
X49072989Y-23511706D01*
X49124500Y-23500500D01*
X121875500Y-23500500D01*
X121942539Y-23520185D01*
G37*
%TD.AperFunction*%
%TD*%
M02*
