%TF.GenerationSoftware,KiCad,Pcbnew,8.0.2*%
%TF.CreationDate,2024-07-10T14:47:37-04:00*%
%TF.ProjectId,Low-Power_PDP,4c6f772d-506f-4776-9572-5f5044502e6b,rev?*%
%TF.SameCoordinates,Original*%
%TF.FileFunction,Copper,L1,Top*%
%TF.FilePolarity,Positive*%
%FSLAX46Y46*%
G04 Gerber Fmt 4.6, Leading zero omitted, Abs format (unit mm)*
G04 Created by KiCad (PCBNEW 8.0.2) date 2024-07-10 14:47:37*
%MOMM*%
%LPD*%
G01*
G04 APERTURE LIST*
G04 Aperture macros list*
%AMRoundRect*
0 Rectangle with rounded corners*
0 $1 Rounding radius*
0 $2 $3 $4 $5 $6 $7 $8 $9 X,Y pos of 4 corners*
0 Add a 4 corners polygon primitive as box body*
4,1,4,$2,$3,$4,$5,$6,$7,$8,$9,$2,$3,0*
0 Add four circle primitives for the rounded corners*
1,1,$1+$1,$2,$3*
1,1,$1+$1,$4,$5*
1,1,$1+$1,$6,$7*
1,1,$1+$1,$8,$9*
0 Add four rect primitives between the rounded corners*
20,1,$1+$1,$2,$3,$4,$5,0*
20,1,$1+$1,$4,$5,$6,$7,0*
20,1,$1+$1,$6,$7,$8,$9,0*
20,1,$1+$1,$8,$9,$2,$3,0*%
G04 Aperture macros list end*
%TA.AperFunction,ComponentPad*%
%ADD10R,2.250000X2.250000*%
%TD*%
%TA.AperFunction,ComponentPad*%
%ADD11C,2.250000*%
%TD*%
%TA.AperFunction,SMDPad,CuDef*%
%ADD12RoundRect,0.225000X-0.250000X0.225000X-0.250000X-0.225000X0.250000X-0.225000X0.250000X0.225000X0*%
%TD*%
%TA.AperFunction,SMDPad,CuDef*%
%ADD13RoundRect,0.225000X0.250000X-0.225000X0.250000X0.225000X-0.250000X0.225000X-0.250000X-0.225000X0*%
%TD*%
%TA.AperFunction,ComponentPad*%
%ADD14R,2.000000X2.000000*%
%TD*%
%TA.AperFunction,ComponentPad*%
%ADD15C,2.000000*%
%TD*%
%TA.AperFunction,SMDPad,CuDef*%
%ADD16RoundRect,0.225000X0.225000X0.250000X-0.225000X0.250000X-0.225000X-0.250000X0.225000X-0.250000X0*%
%TD*%
%TA.AperFunction,SMDPad,CuDef*%
%ADD17R,1.092200X1.803400*%
%TD*%
%TA.AperFunction,SMDPad,CuDef*%
%ADD18R,0.838200X0.711200*%
%TD*%
%TA.AperFunction,ComponentPad*%
%ADD19C,1.803400*%
%TD*%
%TA.AperFunction,ViaPad*%
%ADD20C,0.600000*%
%TD*%
%TA.AperFunction,Conductor*%
%ADD21C,1.000000*%
%TD*%
G04 APERTURE END LIST*
D10*
%TO.P,J3,01,01*%
%TO.N,VCC*%
X78600000Y-28200000D03*
D11*
%TO.P,J3,02,02*%
%TO.N,GND*%
X83600000Y-28200000D03*
%TD*%
D12*
%TO.P,C6,1*%
%TO.N,VCC*%
X94300000Y-33125000D03*
%TO.P,C6,2*%
%TO.N,GND*%
X94300000Y-34675000D03*
%TD*%
D13*
%TO.P,C4,1*%
%TO.N,VCC*%
X81100000Y-40975000D03*
%TO.P,C4,2*%
%TO.N,GND*%
X81100000Y-39425000D03*
%TD*%
D10*
%TO.P,J7,01,01*%
%TO.N,VCC*%
X53300000Y-41612500D03*
D11*
%TO.P,J7,02,02*%
%TO.N,GND*%
X53300000Y-36612500D03*
%TD*%
D14*
%TO.P,C5,1*%
%TO.N,VCC*%
X72700000Y-39167677D03*
D15*
%TO.P,C5,2*%
%TO.N,GND*%
X72700000Y-34167677D03*
%TD*%
D10*
%TO.P,J5,01,01*%
%TO.N,VCC*%
X105400000Y-28300000D03*
D11*
%TO.P,J5,02,02*%
%TO.N,GND*%
X110400000Y-28300000D03*
%TD*%
D10*
%TO.P,J4,01,01*%
%TO.N,VCC*%
X92200000Y-28300000D03*
D11*
%TO.P,J4,02,02*%
%TO.N,GND*%
X97200000Y-28300000D03*
%TD*%
D12*
%TO.P,C3,1*%
%TO.N,VCC*%
X64400000Y-40650000D03*
%TO.P,C3,2*%
%TO.N,GND*%
X64400000Y-42200000D03*
%TD*%
D10*
%TO.P,J8,01,01*%
%TO.N,VCC*%
X53300000Y-51387500D03*
D11*
%TO.P,J8,02,02*%
%TO.N,GND*%
X53300000Y-56387500D03*
%TD*%
D16*
%TO.P,C8,1*%
%TO.N,VCC*%
X110900000Y-38900000D03*
%TO.P,C8,2*%
%TO.N,GND*%
X109350000Y-38900000D03*
%TD*%
D13*
%TO.P,C2,1*%
%TO.N,VCC*%
X64400000Y-38750000D03*
%TO.P,C2,2*%
%TO.N,GND*%
X64400000Y-37200000D03*
%TD*%
D17*
%TO.P,D1,1,K*%
%TO.N,VCC*%
X87700000Y-55051500D03*
D18*
%TO.P,D1,2,A*%
%TO.N,GND*%
X87700000Y-53202400D03*
%TD*%
D12*
%TO.P,C7,1*%
%TO.N,VCC*%
X107200000Y-33550000D03*
%TO.P,C7,2*%
%TO.N,GND*%
X107200000Y-35100000D03*
%TD*%
D16*
%TO.P,C10,1*%
%TO.N,VCC*%
X111875000Y-53100000D03*
%TO.P,C10,2*%
%TO.N,GND*%
X110325000Y-53100000D03*
%TD*%
D13*
%TO.P,C9,1*%
%TO.N,VCC*%
X59800000Y-38575000D03*
%TO.P,C9,2*%
%TO.N,GND*%
X59800000Y-37025000D03*
%TD*%
D10*
%TO.P,J6,01,01*%
%TO.N,VCC*%
X115800000Y-41212500D03*
D11*
%TO.P,J6,02,02*%
%TO.N,GND*%
X115800000Y-36212500D03*
%TD*%
D10*
%TO.P,J2,01,01*%
%TO.N,VCC*%
X61487500Y-28300000D03*
D11*
%TO.P,J2,02,02*%
%TO.N,GND*%
X66487500Y-28300000D03*
%TD*%
D16*
%TO.P,C11,1*%
%TO.N,VCC*%
X61675000Y-50600000D03*
%TO.P,C11,2*%
%TO.N,GND*%
X60125000Y-50600000D03*
%TD*%
D10*
%TO.P,J9,01,01*%
%TO.N,VCC*%
X115900000Y-55812500D03*
D11*
%TO.P,J9,02,02*%
%TO.N,GND*%
X115900000Y-50812500D03*
%TD*%
D12*
%TO.P,C1,1*%
%TO.N,VCC*%
X81100000Y-34350000D03*
%TO.P,C1,2*%
%TO.N,GND*%
X81100000Y-35900000D03*
%TD*%
D19*
%TO.P,J1,1,Pin_1*%
%TO.N,VCC*%
X82704900Y-64002701D03*
%TO.P,J1,2,Pin_2*%
%TO.N,GND*%
X87704900Y-64002701D03*
%TD*%
D20*
%TO.N,GND*%
X103300000Y-48700000D03*
X101900000Y-44300000D03*
X62600000Y-57100000D03*
X107000000Y-47500000D03*
X103300000Y-45300000D03*
X107000000Y-48700000D03*
X61300000Y-59300000D03*
X61300000Y-55000000D03*
X108300000Y-43200000D03*
X109500000Y-45300000D03*
X98500000Y-58200000D03*
X71400000Y-59300000D03*
X98500000Y-59300000D03*
X65200000Y-57100000D03*
X70200000Y-60500000D03*
X66500000Y-57100000D03*
X104900000Y-57100000D03*
X109500000Y-47500000D03*
X106100000Y-60500000D03*
X100700000Y-47500000D03*
X100700000Y-48700000D03*
X61300000Y-57100000D03*
X63800000Y-60500000D03*
X68900000Y-56100000D03*
X107400000Y-60500000D03*
X67700000Y-56100000D03*
X104900000Y-58200000D03*
X62600000Y-58200000D03*
X105800000Y-43200000D03*
X103700000Y-57100000D03*
X100700000Y-45300000D03*
X109500000Y-48700000D03*
X61300000Y-56100000D03*
X107000000Y-43200000D03*
X98500000Y-56100000D03*
X108600000Y-56100000D03*
X67700000Y-55000000D03*
X105800000Y-47500000D03*
X107400000Y-56100000D03*
X63800000Y-59300000D03*
X98500000Y-57100000D03*
X104900000Y-60500000D03*
X99800000Y-55000000D03*
X99400000Y-44300000D03*
X71400000Y-55000000D03*
X107000000Y-46400000D03*
X101000000Y-56100000D03*
X108600000Y-60500000D03*
X71400000Y-58200000D03*
X108300000Y-47500000D03*
X101900000Y-48700000D03*
X107000000Y-45300000D03*
X68900000Y-59300000D03*
X99800000Y-60500000D03*
X108600000Y-55000000D03*
X105800000Y-44300000D03*
X99400000Y-45300000D03*
X107400000Y-59300000D03*
X105800000Y-45300000D03*
X109500000Y-44300000D03*
X109500000Y-43200000D03*
X104600000Y-45300000D03*
X99400000Y-46400000D03*
X99400000Y-47500000D03*
X65200000Y-55000000D03*
X68900000Y-58200000D03*
X105800000Y-48700000D03*
X63800000Y-56100000D03*
X106100000Y-55000000D03*
X67700000Y-58200000D03*
X101000000Y-59300000D03*
X101000000Y-55000000D03*
X102400000Y-60500000D03*
X101000000Y-57100000D03*
X66500000Y-58200000D03*
X61300000Y-58200000D03*
X70200000Y-55000000D03*
X65200000Y-60500000D03*
X101900000Y-46400000D03*
X63800000Y-55000000D03*
X70200000Y-57100000D03*
X108600000Y-57100000D03*
X108300000Y-46400000D03*
X99400000Y-48700000D03*
X62600000Y-60500000D03*
X62600000Y-59300000D03*
X104600000Y-44300000D03*
X104900000Y-55000000D03*
X70200000Y-56100000D03*
X62600000Y-56100000D03*
X102400000Y-55000000D03*
X70200000Y-58200000D03*
X108300000Y-44300000D03*
X104600000Y-43200000D03*
X106100000Y-56100000D03*
X99800000Y-59300000D03*
X107000000Y-44300000D03*
X104600000Y-47500000D03*
X62600000Y-55000000D03*
X99400000Y-43200000D03*
X103300000Y-43200000D03*
X100700000Y-43200000D03*
X102400000Y-57100000D03*
X108300000Y-48700000D03*
X108600000Y-59300000D03*
X99800000Y-58200000D03*
X101900000Y-43200000D03*
X66500000Y-60500000D03*
X102400000Y-59300000D03*
X103300000Y-44300000D03*
X65200000Y-58200000D03*
X71400000Y-57100000D03*
X71400000Y-60500000D03*
X67700000Y-57100000D03*
X68900000Y-60500000D03*
X99800000Y-57100000D03*
X67700000Y-60500000D03*
X102400000Y-58200000D03*
X108300000Y-45300000D03*
X107400000Y-55000000D03*
X107400000Y-58200000D03*
X103700000Y-55000000D03*
X98500000Y-55000000D03*
X66500000Y-55000000D03*
X109500000Y-46400000D03*
X104900000Y-56100000D03*
X103700000Y-59300000D03*
X103700000Y-56100000D03*
X101000000Y-60500000D03*
X104600000Y-46400000D03*
X66500000Y-59300000D03*
X65200000Y-59300000D03*
X102400000Y-56100000D03*
X104600000Y-48700000D03*
X68900000Y-57100000D03*
X101000000Y-58200000D03*
X100700000Y-44300000D03*
X70200000Y-59300000D03*
X103300000Y-46400000D03*
X106100000Y-58200000D03*
X98500000Y-60500000D03*
X100700000Y-46400000D03*
X103700000Y-58200000D03*
X65200000Y-56100000D03*
X66500000Y-56100000D03*
X103700000Y-60500000D03*
X106100000Y-59300000D03*
X71400000Y-56100000D03*
X61300000Y-60500000D03*
X107400000Y-57100000D03*
X101900000Y-45300000D03*
X103300000Y-47500000D03*
X63800000Y-58200000D03*
X108600000Y-58200000D03*
X99800000Y-56100000D03*
X68900000Y-55000000D03*
X104900000Y-59300000D03*
X63800000Y-57100000D03*
X67700000Y-59300000D03*
X106100000Y-57100000D03*
X105800000Y-46400000D03*
X101900000Y-47500000D03*
%TD*%
D21*
%TO.N,VCC*%
X85700000Y-34300000D02*
X85700000Y-47400000D01*
X55012500Y-51387500D02*
X61400000Y-45000000D01*
X113212500Y-41212500D02*
X110900000Y-38900000D01*
X115800000Y-41212500D02*
X113212500Y-41212500D01*
X82200000Y-63497801D02*
X82704900Y-64002701D01*
X84600000Y-33200000D02*
X85700000Y-34300000D01*
X72700000Y-39167677D02*
X72700000Y-44800000D01*
X78700000Y-28300000D02*
X78600000Y-28200000D01*
X62512500Y-38412500D02*
X62850000Y-38750000D01*
X61400000Y-40600000D02*
X64350000Y-40600000D01*
X92200000Y-28300000D02*
X92200000Y-31025000D01*
X61400000Y-41300000D02*
X61400000Y-40600000D01*
X61400000Y-38500000D02*
X59875000Y-38500000D01*
X113212500Y-41212500D02*
X112900000Y-40900000D01*
X69900000Y-45000000D02*
X79000000Y-54100000D01*
X92200000Y-31025000D02*
X94300000Y-33125000D01*
X88200000Y-50900000D02*
X111100000Y-50900000D01*
X85200000Y-47900000D02*
X83850000Y-49250000D01*
X92200000Y-31025000D02*
X92200000Y-40900000D01*
X85451500Y-57300000D02*
X87700000Y-55051500D01*
X81100000Y-34350000D02*
X81100000Y-33700000D01*
X72900000Y-45000000D02*
X76925000Y-40975000D01*
X53300000Y-41612500D02*
X61087500Y-41612500D01*
X114587500Y-55812500D02*
X111875000Y-53100000D01*
X61675000Y-50600000D02*
X61675000Y-45275000D01*
X62850000Y-38750000D02*
X64400000Y-38750000D01*
X81100000Y-33700000D02*
X80600000Y-33200000D01*
X82200000Y-57300000D02*
X82200000Y-63497801D01*
X69900000Y-45000000D02*
X72900000Y-45000000D01*
X53300000Y-51387500D02*
X55012500Y-51387500D01*
X95400000Y-40900000D02*
X92200000Y-40900000D01*
X76925000Y-40975000D02*
X81100000Y-40975000D01*
X107200000Y-33550000D02*
X107200000Y-32325000D01*
X61087500Y-41612500D02*
X61400000Y-41300000D01*
X80600000Y-33200000D02*
X78700000Y-31300000D01*
X61487500Y-28300000D02*
X61487500Y-38412500D01*
X111875000Y-51675000D02*
X111875000Y-53100000D01*
X79000000Y-54100000D02*
X82200000Y-57300000D01*
X112900000Y-40900000D02*
X95400000Y-40900000D01*
X61675000Y-45275000D02*
X61400000Y-45000000D01*
X115900000Y-55812500D02*
X114587500Y-55812500D01*
X92200000Y-40900000D02*
X83850000Y-49250000D01*
X85700000Y-47400000D02*
X85200000Y-47900000D01*
X80600000Y-33200000D02*
X84600000Y-33200000D01*
X61400000Y-38500000D02*
X61487500Y-38412500D01*
X59875000Y-38500000D02*
X59800000Y-38575000D01*
X106700000Y-29600000D02*
X105400000Y-28300000D01*
X61400000Y-40600000D02*
X61400000Y-38500000D01*
X107200000Y-30100000D02*
X106700000Y-29600000D01*
X78700000Y-31300000D02*
X78700000Y-28300000D01*
X61400000Y-45000000D02*
X61400000Y-41300000D01*
X61487500Y-38412500D02*
X62512500Y-38412500D01*
X64350000Y-40600000D02*
X64400000Y-40650000D01*
X61400000Y-45000000D02*
X69900000Y-45000000D01*
X82200000Y-57300000D02*
X85451500Y-57300000D01*
X107200000Y-32325000D02*
X107200000Y-30100000D01*
X72700000Y-44800000D02*
X72900000Y-45000000D01*
X111100000Y-50900000D02*
X111875000Y-51675000D01*
X106700000Y-29600000D02*
X95400000Y-40900000D01*
X85200000Y-47900000D02*
X88200000Y-50900000D01*
X83850000Y-49250000D02*
X79000000Y-54100000D01*
%TD*%
%TA.AperFunction,Conductor*%
%TO.N,GND*%
G36*
X121942539Y-23520185D02*
G01*
X121988294Y-23572989D01*
X121999500Y-23624500D01*
X121999500Y-68375500D01*
X121979815Y-68442539D01*
X121927011Y-68488294D01*
X121875500Y-68499500D01*
X49124500Y-68499500D01*
X49057461Y-68479815D01*
X49011706Y-68427011D01*
X49000500Y-68375500D01*
X49000500Y-64478711D01*
X51349500Y-64478711D01*
X51349500Y-64721288D01*
X51381161Y-64961785D01*
X51443947Y-65196104D01*
X51514389Y-65366165D01*
X51536776Y-65420212D01*
X51658064Y-65630289D01*
X51658066Y-65630292D01*
X51658067Y-65630293D01*
X51805733Y-65822736D01*
X51805739Y-65822743D01*
X51977256Y-65994260D01*
X51977262Y-65994265D01*
X52169711Y-66141936D01*
X52379788Y-66263224D01*
X52603900Y-66356054D01*
X52838211Y-66418838D01*
X53018586Y-66442584D01*
X53078711Y-66450500D01*
X53078712Y-66450500D01*
X53321289Y-66450500D01*
X53369388Y-66444167D01*
X53561789Y-66418838D01*
X53796100Y-66356054D01*
X54020212Y-66263224D01*
X54230289Y-66141936D01*
X54422738Y-65994265D01*
X54594265Y-65822738D01*
X54741936Y-65630289D01*
X54863224Y-65420212D01*
X54956054Y-65196100D01*
X55018838Y-64961789D01*
X55050500Y-64721288D01*
X55050500Y-64478712D01*
X55018838Y-64238211D01*
X54956054Y-64003900D01*
X54863224Y-63779788D01*
X54741936Y-63569711D01*
X54681018Y-63490321D01*
X54594266Y-63377263D01*
X54594260Y-63377256D01*
X54422743Y-63205739D01*
X54422736Y-63205733D01*
X54230293Y-63058067D01*
X54230292Y-63058066D01*
X54230289Y-63058064D01*
X54020212Y-62936776D01*
X54020205Y-62936773D01*
X53796104Y-62843947D01*
X53561785Y-62781161D01*
X53321289Y-62749500D01*
X53321288Y-62749500D01*
X53078712Y-62749500D01*
X53078711Y-62749500D01*
X52838214Y-62781161D01*
X52603895Y-62843947D01*
X52379794Y-62936773D01*
X52379785Y-62936777D01*
X52169706Y-63058067D01*
X51977263Y-63205733D01*
X51977256Y-63205739D01*
X51805739Y-63377256D01*
X51805733Y-63377263D01*
X51658067Y-63569706D01*
X51536777Y-63779785D01*
X51536773Y-63779794D01*
X51443947Y-64003895D01*
X51381161Y-64238214D01*
X51349500Y-64478711D01*
X49000500Y-64478711D01*
X49000500Y-56387500D01*
X51669975Y-56387500D01*
X51690042Y-56642489D01*
X51749752Y-56891202D01*
X51847634Y-57127512D01*
X51847636Y-57127515D01*
X51981277Y-57345598D01*
X51981284Y-57345607D01*
X51984533Y-57349412D01*
X52622421Y-56711524D01*
X52635359Y-56742758D01*
X52717437Y-56865597D01*
X52821903Y-56970063D01*
X52944742Y-57052141D01*
X52975974Y-57065078D01*
X52338087Y-57702965D01*
X52341897Y-57706219D01*
X52559984Y-57839863D01*
X52559987Y-57839865D01*
X52796297Y-57937747D01*
X53045011Y-57997457D01*
X53045010Y-57997457D01*
X53300000Y-58017524D01*
X53554989Y-57997457D01*
X53803702Y-57937747D01*
X54040012Y-57839865D01*
X54040015Y-57839863D01*
X54258095Y-57706224D01*
X54258110Y-57706213D01*
X54261911Y-57702966D01*
X54261911Y-57702964D01*
X53624025Y-57065077D01*
X53655258Y-57052141D01*
X53778097Y-56970063D01*
X53882563Y-56865597D01*
X53964641Y-56742758D01*
X53977578Y-56711525D01*
X54615464Y-57349411D01*
X54615466Y-57349411D01*
X54618713Y-57345610D01*
X54618724Y-57345595D01*
X54752363Y-57127515D01*
X54752365Y-57127512D01*
X54850247Y-56891202D01*
X54909957Y-56642489D01*
X54930024Y-56387500D01*
X54909957Y-56132510D01*
X54850247Y-55883797D01*
X54752365Y-55647487D01*
X54752363Y-55647484D01*
X54618719Y-55429397D01*
X54615465Y-55425587D01*
X53977578Y-56063474D01*
X53964641Y-56032242D01*
X53882563Y-55909403D01*
X53778097Y-55804937D01*
X53655258Y-55722859D01*
X53624024Y-55709921D01*
X54261912Y-55072033D01*
X54258107Y-55068784D01*
X54258098Y-55068777D01*
X54040015Y-54935136D01*
X54040012Y-54935134D01*
X53803702Y-54837252D01*
X53554988Y-54777542D01*
X53554989Y-54777542D01*
X53300000Y-54757475D01*
X53045010Y-54777542D01*
X52796297Y-54837252D01*
X52559987Y-54935134D01*
X52559984Y-54935136D01*
X52341893Y-55068782D01*
X52338086Y-55072032D01*
X52975975Y-55709921D01*
X52944742Y-55722859D01*
X52821903Y-55804937D01*
X52717437Y-55909403D01*
X52635359Y-56032242D01*
X52622421Y-56063475D01*
X51984532Y-55425586D01*
X51981282Y-55429393D01*
X51847636Y-55647484D01*
X51847634Y-55647487D01*
X51749752Y-55883797D01*
X51690042Y-56132510D01*
X51669975Y-56387500D01*
X49000500Y-56387500D01*
X49000500Y-40439635D01*
X51674500Y-40439635D01*
X51674500Y-42785370D01*
X51674501Y-42785376D01*
X51680908Y-42844983D01*
X51731202Y-42979828D01*
X51731206Y-42979835D01*
X51817452Y-43095044D01*
X51817455Y-43095047D01*
X51932664Y-43181293D01*
X51932671Y-43181297D01*
X52067517Y-43231591D01*
X52067516Y-43231591D01*
X52074444Y-43232335D01*
X52127127Y-43238000D01*
X54472872Y-43237999D01*
X54532483Y-43231591D01*
X54667331Y-43181296D01*
X54782546Y-43095046D01*
X54868796Y-42979831D01*
X54919091Y-42844983D01*
X54925500Y-42785373D01*
X54925500Y-42737000D01*
X54945185Y-42669961D01*
X54997989Y-42624206D01*
X55049500Y-42613000D01*
X60275500Y-42613000D01*
X60342539Y-42632685D01*
X60388294Y-42685489D01*
X60399500Y-42737000D01*
X60399500Y-44534217D01*
X60379815Y-44601256D01*
X60363181Y-44621898D01*
X55011132Y-49973946D01*
X54949809Y-50007431D01*
X54880117Y-50002447D01*
X54824185Y-49960577D01*
X54782546Y-49904954D01*
X54715011Y-49854397D01*
X54667335Y-49818706D01*
X54667328Y-49818702D01*
X54532482Y-49768408D01*
X54532483Y-49768408D01*
X54472883Y-49762001D01*
X54472881Y-49762000D01*
X54472873Y-49762000D01*
X54472864Y-49762000D01*
X52127129Y-49762000D01*
X52127123Y-49762001D01*
X52067516Y-49768408D01*
X51932671Y-49818702D01*
X51932664Y-49818706D01*
X51817455Y-49904952D01*
X51817452Y-49904955D01*
X51731206Y-50020164D01*
X51731202Y-50020171D01*
X51680908Y-50155017D01*
X51674501Y-50214616D01*
X51674500Y-50214635D01*
X51674500Y-52560370D01*
X51674501Y-52560376D01*
X51680908Y-52619983D01*
X51731202Y-52754828D01*
X51731206Y-52754835D01*
X51817452Y-52870044D01*
X51817455Y-52870047D01*
X51932664Y-52956293D01*
X51932671Y-52956297D01*
X52067517Y-53006591D01*
X52067516Y-53006591D01*
X52074444Y-53007335D01*
X52127127Y-53013000D01*
X54472872Y-53012999D01*
X54532483Y-53006591D01*
X54667331Y-52956296D01*
X54782546Y-52870046D01*
X54868796Y-52754831D01*
X54919091Y-52619983D01*
X54925500Y-52560373D01*
X54925500Y-52512000D01*
X54945185Y-52444961D01*
X54997989Y-52399206D01*
X55049500Y-52388000D01*
X55111042Y-52388000D01*
X55130370Y-52384155D01*
X55207688Y-52368775D01*
X55304336Y-52349551D01*
X55368771Y-52322861D01*
X55486414Y-52274132D01*
X55650282Y-52164639D01*
X55789639Y-52025282D01*
X55789640Y-52025280D01*
X55796706Y-52018214D01*
X55796708Y-52018210D01*
X56916596Y-50898322D01*
X59175001Y-50898322D01*
X59185144Y-50997607D01*
X59238452Y-51158481D01*
X59238457Y-51158492D01*
X59327424Y-51302728D01*
X59327427Y-51302732D01*
X59447267Y-51422572D01*
X59447271Y-51422575D01*
X59591507Y-51511542D01*
X59591518Y-51511547D01*
X59752393Y-51564855D01*
X59851683Y-51574999D01*
X59875000Y-51574998D01*
X59875000Y-50850000D01*
X59175001Y-50850000D01*
X59175001Y-50898322D01*
X56916596Y-50898322D01*
X57513241Y-50301677D01*
X59175000Y-50301677D01*
X59175000Y-50350000D01*
X59875000Y-50350000D01*
X59875000Y-49624999D01*
X59851693Y-49625000D01*
X59851674Y-49625001D01*
X59752392Y-49635144D01*
X59591518Y-49688452D01*
X59591507Y-49688457D01*
X59447271Y-49777424D01*
X59447267Y-49777427D01*
X59327427Y-49897267D01*
X59327424Y-49897271D01*
X59238457Y-50041507D01*
X59238452Y-50041518D01*
X59185144Y-50202393D01*
X59175000Y-50301677D01*
X57513241Y-50301677D01*
X60462821Y-47352098D01*
X60524142Y-47318615D01*
X60593834Y-47323599D01*
X60649767Y-47365471D01*
X60674184Y-47430935D01*
X60674500Y-47439781D01*
X60674500Y-49522040D01*
X60654815Y-49589079D01*
X60602011Y-49634834D01*
X60532853Y-49644778D01*
X60511498Y-49639747D01*
X60497606Y-49635143D01*
X60398322Y-49625000D01*
X60375000Y-49625000D01*
X60375000Y-51574999D01*
X60398308Y-51574999D01*
X60398322Y-51574998D01*
X60497607Y-51564855D01*
X60658481Y-51511547D01*
X60658492Y-51511542D01*
X60802731Y-51422573D01*
X60811959Y-51413345D01*
X60873279Y-51379856D01*
X60942971Y-51384835D01*
X60987327Y-51413339D01*
X60996955Y-51422967D01*
X60996959Y-51422970D01*
X61141294Y-51511998D01*
X61141297Y-51511999D01*
X61141303Y-51512003D01*
X61302292Y-51565349D01*
X61401655Y-51575500D01*
X61438563Y-51575499D01*
X61462754Y-51577881D01*
X61528596Y-51590979D01*
X61576458Y-51600500D01*
X61576459Y-51600500D01*
X61773543Y-51600500D01*
X61887247Y-51577882D01*
X61911439Y-51575499D01*
X61948338Y-51575499D01*
X61948344Y-51575499D01*
X61948352Y-51575498D01*
X61948355Y-51575498D01*
X62002760Y-51569940D01*
X62047708Y-51565349D01*
X62208697Y-51512003D01*
X62353044Y-51422968D01*
X62472968Y-51303044D01*
X62562003Y-51158697D01*
X62615349Y-50997708D01*
X62620755Y-50944788D01*
X62629550Y-50909942D01*
X62637051Y-50891835D01*
X62675500Y-50698541D01*
X62675500Y-46124500D01*
X62695185Y-46057461D01*
X62747989Y-46011706D01*
X62799500Y-46000500D01*
X69434218Y-46000500D01*
X69501257Y-46020185D01*
X69521898Y-46036818D01*
X74042589Y-50557510D01*
X78369283Y-54884204D01*
X78369289Y-54884209D01*
X81163181Y-57678101D01*
X81196666Y-57739424D01*
X81199500Y-57765782D01*
X81199500Y-63596342D01*
X81199500Y-63596344D01*
X81199499Y-63596344D01*
X81237947Y-63789630D01*
X81237949Y-63789636D01*
X81285278Y-63903900D01*
X81291117Y-63917995D01*
X81300132Y-63975688D01*
X81297894Y-64002696D01*
X81297894Y-64002706D01*
X81317083Y-64234283D01*
X81374129Y-64459555D01*
X81467475Y-64672363D01*
X81499440Y-64721288D01*
X81594575Y-64866902D01*
X81751961Y-65037869D01*
X81751964Y-65037871D01*
X81751967Y-65037874D01*
X81935332Y-65180593D01*
X81935338Y-65180597D01*
X81935341Y-65180599D01*
X82139712Y-65291200D01*
X82359500Y-65366653D01*
X82588710Y-65404901D01*
X82821090Y-65404901D01*
X83050300Y-65366653D01*
X83270088Y-65291200D01*
X83474459Y-65180599D01*
X83475003Y-65180176D01*
X83583018Y-65096104D01*
X83657839Y-65037869D01*
X83815225Y-64866902D01*
X83942325Y-64672362D01*
X84035671Y-64459555D01*
X84092716Y-64234287D01*
X84111906Y-64002701D01*
X84111906Y-64002695D01*
X86298396Y-64002695D01*
X86298396Y-64002706D01*
X86317578Y-64234200D01*
X86374604Y-64459392D01*
X86467915Y-64672119D01*
X86552484Y-64801562D01*
X87105618Y-64248428D01*
X87130916Y-64309502D01*
X87201799Y-64415586D01*
X87292015Y-64505802D01*
X87398099Y-64576685D01*
X87459171Y-64601982D01*
X86904889Y-65156263D01*
X86904890Y-65156264D01*
X86935612Y-65180176D01*
X86935618Y-65180181D01*
X87139907Y-65290736D01*
X87139917Y-65290741D01*
X87359621Y-65366165D01*
X87588753Y-65404401D01*
X87821047Y-65404401D01*
X88050178Y-65366165D01*
X88269882Y-65290741D01*
X88269887Y-65290739D01*
X88474188Y-65180176D01*
X88504908Y-65156264D01*
X88504908Y-65156263D01*
X87950628Y-64601982D01*
X88011701Y-64576685D01*
X88117785Y-64505802D01*
X88208001Y-64415586D01*
X88278884Y-64309502D01*
X88304181Y-64248429D01*
X88857314Y-64801562D01*
X88941880Y-64672126D01*
X88941885Y-64672118D01*
X89035195Y-64459392D01*
X89055626Y-64378711D01*
X116149500Y-64378711D01*
X116149500Y-64621288D01*
X116181161Y-64861785D01*
X116243947Y-65096104D01*
X116324568Y-65290739D01*
X116336776Y-65320212D01*
X116458064Y-65530289D01*
X116458066Y-65530292D01*
X116458067Y-65530293D01*
X116605733Y-65722736D01*
X116605739Y-65722743D01*
X116777256Y-65894260D01*
X116777262Y-65894265D01*
X116969711Y-66041936D01*
X117179788Y-66163224D01*
X117403900Y-66256054D01*
X117638211Y-66318838D01*
X117818586Y-66342584D01*
X117878711Y-66350500D01*
X117878712Y-66350500D01*
X118121289Y-66350500D01*
X118169388Y-66344167D01*
X118361789Y-66318838D01*
X118596100Y-66256054D01*
X118820212Y-66163224D01*
X119030289Y-66041936D01*
X119222738Y-65894265D01*
X119394265Y-65722738D01*
X119541936Y-65530289D01*
X119663224Y-65320212D01*
X119756054Y-65096100D01*
X119818838Y-64861789D01*
X119850500Y-64621288D01*
X119850500Y-64378712D01*
X119818838Y-64138211D01*
X119756054Y-63903900D01*
X119663224Y-63679788D01*
X119541936Y-63469711D01*
X119394265Y-63277262D01*
X119394260Y-63277256D01*
X119222743Y-63105739D01*
X119222736Y-63105733D01*
X119030293Y-62958067D01*
X119030292Y-62958066D01*
X119030289Y-62958064D01*
X118841620Y-62849136D01*
X118820214Y-62836777D01*
X118820205Y-62836773D01*
X118596104Y-62743947D01*
X118361785Y-62681161D01*
X118121289Y-62649500D01*
X118121288Y-62649500D01*
X117878712Y-62649500D01*
X117878711Y-62649500D01*
X117638214Y-62681161D01*
X117403895Y-62743947D01*
X117179794Y-62836773D01*
X117179785Y-62836777D01*
X116969706Y-62958067D01*
X116777263Y-63105733D01*
X116777256Y-63105739D01*
X116605739Y-63277256D01*
X116605733Y-63277263D01*
X116458067Y-63469706D01*
X116336777Y-63679785D01*
X116336773Y-63679794D01*
X116243947Y-63903895D01*
X116181161Y-64138214D01*
X116149500Y-64378711D01*
X89055626Y-64378711D01*
X89092221Y-64234200D01*
X89111404Y-64002706D01*
X89111404Y-64002695D01*
X89092221Y-63771201D01*
X89035195Y-63546009D01*
X88941882Y-63333277D01*
X88857314Y-63203838D01*
X88304180Y-63756971D01*
X88278884Y-63695900D01*
X88208001Y-63589816D01*
X88117785Y-63499600D01*
X88011701Y-63428717D01*
X87950627Y-63403419D01*
X88504909Y-62849137D01*
X88504909Y-62849136D01*
X88474186Y-62825224D01*
X88474181Y-62825220D01*
X88269892Y-62714665D01*
X88269882Y-62714660D01*
X88050178Y-62639236D01*
X87821047Y-62601001D01*
X87588753Y-62601001D01*
X87359621Y-62639236D01*
X87139917Y-62714660D01*
X87139907Y-62714665D01*
X86935617Y-62825221D01*
X86935606Y-62825228D01*
X86904890Y-62849135D01*
X86904890Y-62849137D01*
X87459172Y-63403419D01*
X87398099Y-63428717D01*
X87292015Y-63499600D01*
X87201799Y-63589816D01*
X87130916Y-63695900D01*
X87105618Y-63756972D01*
X86552484Y-63203838D01*
X86467916Y-63333279D01*
X86374604Y-63546009D01*
X86317578Y-63771201D01*
X86298396Y-64002695D01*
X84111906Y-64002695D01*
X84092716Y-63771115D01*
X84035671Y-63545847D01*
X83942325Y-63333040D01*
X83815225Y-63138500D01*
X83657839Y-62967533D01*
X83657834Y-62967529D01*
X83657832Y-62967527D01*
X83474467Y-62824808D01*
X83474461Y-62824804D01*
X83325051Y-62743947D01*
X83270088Y-62714202D01*
X83270086Y-62714201D01*
X83265577Y-62711761D01*
X83266732Y-62709625D01*
X83221005Y-62670964D01*
X83200509Y-62604168D01*
X83200500Y-62602664D01*
X83200500Y-58424500D01*
X83220185Y-58357461D01*
X83272989Y-58311706D01*
X83324500Y-58300500D01*
X85550042Y-58300500D01*
X85569370Y-58296655D01*
X85646688Y-58281275D01*
X85743336Y-58262051D01*
X85796665Y-58239961D01*
X85925414Y-58186632D01*
X86089282Y-58077139D01*
X86228639Y-57937782D01*
X86228640Y-57937779D01*
X86235706Y-57930714D01*
X86235709Y-57930710D01*
X87676401Y-56490018D01*
X87737724Y-56456533D01*
X87764082Y-56453699D01*
X88293971Y-56453699D01*
X88293972Y-56453699D01*
X88353583Y-56447291D01*
X88488431Y-56396996D01*
X88603646Y-56310746D01*
X88689896Y-56195531D01*
X88740191Y-56060683D01*
X88746600Y-56001073D01*
X88746599Y-54101928D01*
X88740191Y-54042317D01*
X88695677Y-53922970D01*
X88689897Y-53907471D01*
X88689893Y-53907464D01*
X88618679Y-53812335D01*
X88594261Y-53746871D01*
X88601764Y-53694689D01*
X88612697Y-53665375D01*
X88612698Y-53665372D01*
X88619099Y-53605844D01*
X88619100Y-53605827D01*
X88619100Y-53452400D01*
X86780900Y-53452400D01*
X86780900Y-53605844D01*
X86787301Y-53665372D01*
X86787303Y-53665379D01*
X86798236Y-53694692D01*
X86803220Y-53764383D01*
X86781320Y-53812336D01*
X86710106Y-53907464D01*
X86710102Y-53907471D01*
X86659808Y-54042317D01*
X86656295Y-54074998D01*
X86653401Y-54101923D01*
X86653400Y-54101935D01*
X86653400Y-54631817D01*
X86633715Y-54698856D01*
X86617081Y-54719498D01*
X85073399Y-56263181D01*
X85012076Y-56296666D01*
X84985718Y-56299500D01*
X82665783Y-56299500D01*
X82598744Y-56279815D01*
X82578102Y-56263181D01*
X80502601Y-54187680D01*
X80469116Y-54126357D01*
X80474100Y-54056665D01*
X80502601Y-54012318D01*
X81116597Y-53398322D01*
X109375001Y-53398322D01*
X109385144Y-53497607D01*
X109438452Y-53658481D01*
X109438457Y-53658492D01*
X109527424Y-53802728D01*
X109527427Y-53802732D01*
X109647267Y-53922572D01*
X109647271Y-53922575D01*
X109791507Y-54011542D01*
X109791518Y-54011547D01*
X109952393Y-54064855D01*
X110051683Y-54074999D01*
X110075000Y-54074998D01*
X110075000Y-53350000D01*
X109375001Y-53350000D01*
X109375001Y-53398322D01*
X81116597Y-53398322D01*
X81316379Y-53198540D01*
X81715964Y-52798955D01*
X86780900Y-52798955D01*
X86780900Y-52952400D01*
X87450000Y-52952400D01*
X87950000Y-52952400D01*
X88619100Y-52952400D01*
X88619100Y-52798972D01*
X88619099Y-52798955D01*
X88612698Y-52739427D01*
X88612696Y-52739420D01*
X88562454Y-52604713D01*
X88562450Y-52604706D01*
X88476290Y-52489612D01*
X88476287Y-52489609D01*
X88361193Y-52403449D01*
X88361186Y-52403445D01*
X88226479Y-52353203D01*
X88226472Y-52353201D01*
X88166944Y-52346800D01*
X87950000Y-52346800D01*
X87950000Y-52952400D01*
X87450000Y-52952400D01*
X87450000Y-52346800D01*
X87233055Y-52346800D01*
X87173527Y-52353201D01*
X87173520Y-52353203D01*
X87038813Y-52403445D01*
X87038806Y-52403449D01*
X86923712Y-52489609D01*
X86923709Y-52489612D01*
X86837549Y-52604706D01*
X86837545Y-52604713D01*
X86787303Y-52739420D01*
X86787301Y-52739427D01*
X86780900Y-52798955D01*
X81715964Y-52798955D01*
X84627140Y-49887781D01*
X84627141Y-49887778D01*
X84634201Y-49880719D01*
X84634206Y-49880712D01*
X85112322Y-49402597D01*
X85173641Y-49369115D01*
X85243333Y-49374099D01*
X85287680Y-49402600D01*
X87562215Y-51677137D01*
X87562219Y-51677140D01*
X87726079Y-51786628D01*
X87726085Y-51786631D01*
X87726086Y-51786632D01*
X87908165Y-51862052D01*
X88069389Y-51894121D01*
X88101457Y-51900499D01*
X88101458Y-51900500D01*
X88101459Y-51900500D01*
X88101460Y-51900500D01*
X88298541Y-51900500D01*
X109892077Y-51900500D01*
X109959116Y-51920185D01*
X110004871Y-51972989D01*
X110014815Y-52042147D01*
X109985790Y-52105703D01*
X109931081Y-52142206D01*
X109791518Y-52188452D01*
X109791507Y-52188457D01*
X109647271Y-52277424D01*
X109647267Y-52277427D01*
X109527427Y-52397267D01*
X109527424Y-52397271D01*
X109438457Y-52541507D01*
X109438452Y-52541518D01*
X109385144Y-52702393D01*
X109375000Y-52801677D01*
X109375000Y-52850000D01*
X110451000Y-52850000D01*
X110518039Y-52869685D01*
X110563794Y-52922489D01*
X110575000Y-52974000D01*
X110575000Y-54074999D01*
X110598308Y-54074999D01*
X110598322Y-54074998D01*
X110697607Y-54064855D01*
X110858481Y-54011547D01*
X110858492Y-54011542D01*
X111002731Y-53922573D01*
X111011959Y-53913345D01*
X111073279Y-53879856D01*
X111142971Y-53884835D01*
X111187327Y-53913339D01*
X111196956Y-53922968D01*
X111341303Y-54012003D01*
X111359440Y-54018012D01*
X111408117Y-54048037D01*
X113810360Y-56450281D01*
X113810361Y-56450282D01*
X113949718Y-56589639D01*
X113949719Y-56589640D01*
X114113579Y-56699128D01*
X114113586Y-56699132D01*
X114197953Y-56734078D01*
X114252355Y-56777917D01*
X114274421Y-56844211D01*
X114274500Y-56848637D01*
X114274500Y-56985369D01*
X114274501Y-56985376D01*
X114280908Y-57044983D01*
X114331202Y-57179828D01*
X114331206Y-57179835D01*
X114417452Y-57295044D01*
X114417455Y-57295047D01*
X114532664Y-57381293D01*
X114532671Y-57381297D01*
X114667517Y-57431591D01*
X114667516Y-57431591D01*
X114674444Y-57432335D01*
X114727127Y-57438000D01*
X117072872Y-57437999D01*
X117132483Y-57431591D01*
X117267331Y-57381296D01*
X117382546Y-57295046D01*
X117468796Y-57179831D01*
X117519091Y-57044983D01*
X117525500Y-56985373D01*
X117525499Y-54639628D01*
X117519091Y-54580017D01*
X117468796Y-54445169D01*
X117468795Y-54445168D01*
X117468793Y-54445164D01*
X117382547Y-54329955D01*
X117382544Y-54329952D01*
X117267335Y-54243706D01*
X117267328Y-54243702D01*
X117132482Y-54193408D01*
X117132483Y-54193408D01*
X117072883Y-54187001D01*
X117072881Y-54187000D01*
X117072873Y-54187000D01*
X117072864Y-54187000D01*
X114727129Y-54187000D01*
X114727123Y-54187001D01*
X114667515Y-54193409D01*
X114535193Y-54242761D01*
X114465502Y-54247745D01*
X114404180Y-54214260D01*
X112911819Y-52721898D01*
X112878334Y-52660575D01*
X112875500Y-52634217D01*
X112875500Y-51779675D01*
X112875501Y-51779654D01*
X112875501Y-51576457D01*
X112875500Y-51576455D01*
X112866991Y-51533678D01*
X112837052Y-51383165D01*
X112761632Y-51201086D01*
X112761631Y-51201085D01*
X112761628Y-51201079D01*
X112652140Y-51037219D01*
X112652137Y-51037215D01*
X112427421Y-50812500D01*
X114269975Y-50812500D01*
X114290042Y-51067489D01*
X114349752Y-51316202D01*
X114447634Y-51552512D01*
X114447636Y-51552515D01*
X114581277Y-51770598D01*
X114581284Y-51770607D01*
X114584533Y-51774412D01*
X115222421Y-51136524D01*
X115235359Y-51167758D01*
X115317437Y-51290597D01*
X115421903Y-51395063D01*
X115544742Y-51477141D01*
X115575974Y-51490078D01*
X114938087Y-52127965D01*
X114941897Y-52131219D01*
X115159984Y-52264863D01*
X115159987Y-52264865D01*
X115396297Y-52362747D01*
X115645011Y-52422457D01*
X115645010Y-52422457D01*
X115900000Y-52442524D01*
X116154989Y-52422457D01*
X116403702Y-52362747D01*
X116640012Y-52264865D01*
X116640015Y-52264863D01*
X116858095Y-52131224D01*
X116858110Y-52131213D01*
X116861911Y-52127966D01*
X116861911Y-52127964D01*
X116224025Y-51490077D01*
X116255258Y-51477141D01*
X116378097Y-51395063D01*
X116482563Y-51290597D01*
X116564641Y-51167758D01*
X116577578Y-51136525D01*
X117215464Y-51774411D01*
X117215466Y-51774411D01*
X117218713Y-51770610D01*
X117218724Y-51770595D01*
X117352363Y-51552515D01*
X117352365Y-51552512D01*
X117450247Y-51316202D01*
X117509957Y-51067489D01*
X117530024Y-50812500D01*
X117509957Y-50557510D01*
X117450247Y-50308797D01*
X117352365Y-50072487D01*
X117352363Y-50072484D01*
X117218719Y-49854397D01*
X117215465Y-49850587D01*
X116577578Y-50488474D01*
X116564641Y-50457242D01*
X116482563Y-50334403D01*
X116378097Y-50229937D01*
X116255258Y-50147859D01*
X116224024Y-50134921D01*
X116861912Y-49497033D01*
X116858107Y-49493784D01*
X116858098Y-49493777D01*
X116640015Y-49360136D01*
X116640012Y-49360134D01*
X116403702Y-49262252D01*
X116154988Y-49202542D01*
X116154989Y-49202542D01*
X115900000Y-49182475D01*
X115645010Y-49202542D01*
X115396297Y-49262252D01*
X115159987Y-49360134D01*
X115159984Y-49360136D01*
X114941893Y-49493782D01*
X114938086Y-49497032D01*
X115575975Y-50134921D01*
X115544742Y-50147859D01*
X115421903Y-50229937D01*
X115317437Y-50334403D01*
X115235359Y-50457242D01*
X115222421Y-50488475D01*
X114584532Y-49850586D01*
X114581282Y-49854393D01*
X114447636Y-50072484D01*
X114447634Y-50072487D01*
X114349752Y-50308797D01*
X114290042Y-50557510D01*
X114269975Y-50812500D01*
X112427421Y-50812500D01*
X111884209Y-50269289D01*
X111884206Y-50269285D01*
X111884206Y-50269286D01*
X111877139Y-50262219D01*
X111877139Y-50262218D01*
X111737782Y-50122861D01*
X111737781Y-50122860D01*
X111737780Y-50122859D01*
X111573920Y-50013371D01*
X111573911Y-50013366D01*
X111501315Y-49983296D01*
X111445165Y-49960038D01*
X111391836Y-49937949D01*
X111391832Y-49937948D01*
X111391828Y-49937946D01*
X111295188Y-49918724D01*
X111198544Y-49899500D01*
X111198541Y-49899500D01*
X88665783Y-49899500D01*
X88598744Y-49879815D01*
X88578102Y-49863181D01*
X86702601Y-47987680D01*
X86669116Y-47926357D01*
X86674100Y-47856665D01*
X86702601Y-47812318D01*
X92578101Y-41936819D01*
X92639424Y-41903334D01*
X92665782Y-41900500D01*
X95301459Y-41900500D01*
X95301460Y-41900500D01*
X95498540Y-41900500D01*
X112434217Y-41900500D01*
X112501256Y-41920185D01*
X112521899Y-41936820D01*
X112574714Y-41989636D01*
X112574718Y-41989639D01*
X112738579Y-42099128D01*
X112738592Y-42099135D01*
X112867333Y-42152461D01*
X112910244Y-42170235D01*
X112920664Y-42174551D01*
X113017312Y-42193775D01*
X113065635Y-42203387D01*
X113113958Y-42213000D01*
X113113959Y-42213000D01*
X113113960Y-42213000D01*
X113311040Y-42213000D01*
X114050501Y-42213000D01*
X114117540Y-42232685D01*
X114163295Y-42285489D01*
X114174501Y-42337000D01*
X114174501Y-42385376D01*
X114180908Y-42444983D01*
X114231202Y-42579828D01*
X114231206Y-42579835D01*
X114317452Y-42695044D01*
X114317455Y-42695047D01*
X114432664Y-42781293D01*
X114432671Y-42781297D01*
X114567517Y-42831591D01*
X114567516Y-42831591D01*
X114574444Y-42832335D01*
X114627127Y-42838000D01*
X116972872Y-42837999D01*
X117032483Y-42831591D01*
X117167331Y-42781296D01*
X117282546Y-42695046D01*
X117368796Y-42579831D01*
X117419091Y-42444983D01*
X117425500Y-42385373D01*
X117425499Y-40039628D01*
X117419091Y-39980017D01*
X117417033Y-39974500D01*
X117368797Y-39845171D01*
X117368793Y-39845164D01*
X117282547Y-39729955D01*
X117282544Y-39729952D01*
X117167335Y-39643706D01*
X117167328Y-39643702D01*
X117032482Y-39593408D01*
X117032483Y-39593408D01*
X116972883Y-39587001D01*
X116972881Y-39587000D01*
X116972873Y-39587000D01*
X116972864Y-39587000D01*
X114627129Y-39587000D01*
X114627123Y-39587001D01*
X114567516Y-39593408D01*
X114432671Y-39643702D01*
X114432664Y-39643706D01*
X114317455Y-39729952D01*
X114317452Y-39729955D01*
X114231206Y-39845164D01*
X114231202Y-39845171D01*
X114180908Y-39980017D01*
X114175035Y-40034651D01*
X114174501Y-40039623D01*
X114174500Y-40039635D01*
X114174500Y-40088000D01*
X114154815Y-40155039D01*
X114102011Y-40200794D01*
X114050500Y-40212000D01*
X113678283Y-40212000D01*
X113611244Y-40192315D01*
X113590601Y-40175680D01*
X113534686Y-40119764D01*
X113534655Y-40119735D01*
X111823038Y-38408118D01*
X111793013Y-38359441D01*
X111787074Y-38341518D01*
X111787003Y-38341303D01*
X111786999Y-38341297D01*
X111786998Y-38341294D01*
X111697970Y-38196959D01*
X111697967Y-38196955D01*
X111578044Y-38077032D01*
X111578040Y-38077029D01*
X111433705Y-37988001D01*
X111433699Y-37987998D01*
X111433697Y-37987997D01*
X111433694Y-37987996D01*
X111272709Y-37934651D01*
X111173352Y-37924500D01*
X111173345Y-37924500D01*
X111136434Y-37924500D01*
X111112243Y-37922117D01*
X111077052Y-37915117D01*
X110998542Y-37899500D01*
X110998540Y-37899500D01*
X110801460Y-37899500D01*
X110756913Y-37908360D01*
X110687746Y-37922118D01*
X110663559Y-37924500D01*
X110626663Y-37924500D01*
X110626643Y-37924501D01*
X110527292Y-37934650D01*
X110527289Y-37934651D01*
X110366305Y-37987996D01*
X110366294Y-37988001D01*
X110221959Y-38077029D01*
X110221953Y-38077033D01*
X110212324Y-38086663D01*
X110151000Y-38120146D01*
X110081308Y-38115159D01*
X110036965Y-38086660D01*
X110027732Y-38077427D01*
X110027728Y-38077424D01*
X109883492Y-37988457D01*
X109883481Y-37988452D01*
X109722606Y-37935144D01*
X109623322Y-37925000D01*
X109600000Y-37925000D01*
X109600000Y-39026000D01*
X109580315Y-39093039D01*
X109527511Y-39138794D01*
X109476000Y-39150000D01*
X108400001Y-39150000D01*
X108400001Y-39198322D01*
X108410144Y-39297607D01*
X108463452Y-39458481D01*
X108463457Y-39458492D01*
X108552424Y-39602728D01*
X108552427Y-39602732D01*
X108637514Y-39687819D01*
X108670999Y-39749142D01*
X108666015Y-39818834D01*
X108624143Y-39874767D01*
X108558679Y-39899184D01*
X108549833Y-39899500D01*
X98114782Y-39899500D01*
X98047743Y-39879815D01*
X98001988Y-39827011D01*
X97992044Y-39757853D01*
X98021069Y-39694297D01*
X98027101Y-39687819D01*
X99113243Y-38601677D01*
X108400000Y-38601677D01*
X108400000Y-38650000D01*
X109100000Y-38650000D01*
X109100000Y-37924999D01*
X109076693Y-37925000D01*
X109076674Y-37925001D01*
X108977392Y-37935144D01*
X108816518Y-37988452D01*
X108816507Y-37988457D01*
X108672271Y-38077424D01*
X108672267Y-38077427D01*
X108552427Y-38197267D01*
X108552424Y-38197271D01*
X108463457Y-38341507D01*
X108463452Y-38341518D01*
X108410144Y-38502393D01*
X108400000Y-38601677D01*
X99113243Y-38601677D01*
X101502420Y-36212500D01*
X114169975Y-36212500D01*
X114190042Y-36467489D01*
X114249752Y-36716202D01*
X114347634Y-36952512D01*
X114347636Y-36952515D01*
X114481277Y-37170598D01*
X114481284Y-37170607D01*
X114484533Y-37174412D01*
X115122421Y-36536524D01*
X115135359Y-36567758D01*
X115217437Y-36690597D01*
X115321903Y-36795063D01*
X115444742Y-36877141D01*
X115475974Y-36890078D01*
X114838087Y-37527965D01*
X114841897Y-37531219D01*
X115059984Y-37664863D01*
X115059987Y-37664865D01*
X115296297Y-37762747D01*
X115545011Y-37822457D01*
X115545010Y-37822457D01*
X115800000Y-37842524D01*
X116054989Y-37822457D01*
X116303702Y-37762747D01*
X116540012Y-37664865D01*
X116540015Y-37664863D01*
X116758095Y-37531224D01*
X116758110Y-37531213D01*
X116761911Y-37527966D01*
X116761911Y-37527964D01*
X116124025Y-36890077D01*
X116155258Y-36877141D01*
X116278097Y-36795063D01*
X116382563Y-36690597D01*
X116464641Y-36567758D01*
X116477578Y-36536525D01*
X117115464Y-37174411D01*
X117115466Y-37174411D01*
X117118713Y-37170610D01*
X117118724Y-37170595D01*
X117252363Y-36952515D01*
X117252365Y-36952512D01*
X117350247Y-36716202D01*
X117409957Y-36467489D01*
X117430024Y-36212500D01*
X117409957Y-35957510D01*
X117350247Y-35708797D01*
X117252365Y-35472487D01*
X117252363Y-35472484D01*
X117118719Y-35254397D01*
X117115465Y-35250587D01*
X116477578Y-35888474D01*
X116464641Y-35857242D01*
X116382563Y-35734403D01*
X116278097Y-35629937D01*
X116155258Y-35547859D01*
X116124024Y-35534921D01*
X116761912Y-34897033D01*
X116758107Y-34893784D01*
X116758098Y-34893777D01*
X116540015Y-34760136D01*
X116540012Y-34760134D01*
X116303702Y-34662252D01*
X116054988Y-34602542D01*
X116054989Y-34602542D01*
X115800000Y-34582475D01*
X115545010Y-34602542D01*
X115296297Y-34662252D01*
X115059987Y-34760134D01*
X115059984Y-34760136D01*
X114841893Y-34893782D01*
X114838086Y-34897032D01*
X115475975Y-35534921D01*
X115444742Y-35547859D01*
X115321903Y-35629937D01*
X115217437Y-35734403D01*
X115135359Y-35857242D01*
X115122421Y-35888475D01*
X114484532Y-35250586D01*
X114481282Y-35254393D01*
X114347636Y-35472484D01*
X114347634Y-35472487D01*
X114249752Y-35708797D01*
X114190042Y-35957510D01*
X114169975Y-36212500D01*
X101502420Y-36212500D01*
X102341598Y-35373322D01*
X106225001Y-35373322D01*
X106235144Y-35472607D01*
X106288452Y-35633481D01*
X106288457Y-35633492D01*
X106377424Y-35777728D01*
X106377427Y-35777732D01*
X106497267Y-35897572D01*
X106497271Y-35897575D01*
X106641507Y-35986542D01*
X106641518Y-35986547D01*
X106802393Y-36039855D01*
X106901683Y-36049999D01*
X107450000Y-36049999D01*
X107498308Y-36049999D01*
X107498322Y-36049998D01*
X107597607Y-36039855D01*
X107758481Y-35986547D01*
X107758492Y-35986542D01*
X107902728Y-35897575D01*
X107902732Y-35897572D01*
X108022572Y-35777732D01*
X108022575Y-35777728D01*
X108111542Y-35633492D01*
X108111547Y-35633481D01*
X108164855Y-35472606D01*
X108174999Y-35373322D01*
X108175000Y-35373309D01*
X108175000Y-35350000D01*
X107450000Y-35350000D01*
X107450000Y-36049999D01*
X106901683Y-36049999D01*
X106949999Y-36049998D01*
X106950000Y-36049998D01*
X106950000Y-35350000D01*
X106225001Y-35350000D01*
X106225001Y-35373322D01*
X102341598Y-35373322D01*
X105987819Y-31727101D01*
X106049142Y-31693616D01*
X106118834Y-31698600D01*
X106174767Y-31740472D01*
X106199184Y-31805936D01*
X106199500Y-31814782D01*
X106199500Y-33648545D01*
X106222117Y-33762248D01*
X106224500Y-33786436D01*
X106224500Y-33823336D01*
X106224501Y-33823356D01*
X106234650Y-33922707D01*
X106234651Y-33922710D01*
X106287996Y-34083694D01*
X106288001Y-34083705D01*
X106377029Y-34228040D01*
X106377032Y-34228044D01*
X106386660Y-34237672D01*
X106420145Y-34298995D01*
X106415161Y-34368687D01*
X106386663Y-34413031D01*
X106377428Y-34422265D01*
X106377424Y-34422271D01*
X106288457Y-34566507D01*
X106288452Y-34566518D01*
X106235144Y-34727393D01*
X106225000Y-34826677D01*
X106225000Y-34850000D01*
X108174999Y-34850000D01*
X108174999Y-34826692D01*
X108174998Y-34826677D01*
X108164855Y-34727392D01*
X108111547Y-34566518D01*
X108111542Y-34566507D01*
X108022575Y-34422271D01*
X108022572Y-34422267D01*
X108013339Y-34413034D01*
X107979854Y-34351711D01*
X107984838Y-34282019D01*
X108013343Y-34237668D01*
X108022968Y-34228044D01*
X108112003Y-34083697D01*
X108165349Y-33922708D01*
X108175500Y-33823345D01*
X108175499Y-33786434D01*
X108177882Y-33762241D01*
X108200500Y-33648542D01*
X108200500Y-30001456D01*
X108175867Y-29877624D01*
X108165499Y-29825499D01*
X108164224Y-29819091D01*
X108162052Y-29808169D01*
X108162051Y-29808168D01*
X108162051Y-29808164D01*
X108139961Y-29754834D01*
X108139961Y-29754833D01*
X108086635Y-29626092D01*
X108086628Y-29626079D01*
X107977139Y-29462218D01*
X107977136Y-29462214D01*
X107834686Y-29319764D01*
X107834655Y-29319735D01*
X107481480Y-28966560D01*
X107481460Y-28966538D01*
X107061818Y-28546896D01*
X107028333Y-28485573D01*
X107025499Y-28459215D01*
X107025499Y-28300000D01*
X108769975Y-28300000D01*
X108790042Y-28554989D01*
X108849752Y-28803702D01*
X108947634Y-29040012D01*
X108947636Y-29040015D01*
X109081277Y-29258098D01*
X109081284Y-29258107D01*
X109084533Y-29261912D01*
X109722421Y-28624024D01*
X109735359Y-28655258D01*
X109817437Y-28778097D01*
X109921903Y-28882563D01*
X110044742Y-28964641D01*
X110075974Y-28977578D01*
X109438087Y-29615465D01*
X109441897Y-29618719D01*
X109659984Y-29752363D01*
X109659987Y-29752365D01*
X109896297Y-29850247D01*
X110145011Y-29909957D01*
X110145010Y-29909957D01*
X110400000Y-29930024D01*
X110654989Y-29909957D01*
X110903702Y-29850247D01*
X111140012Y-29752365D01*
X111140015Y-29752363D01*
X111358095Y-29618724D01*
X111358110Y-29618713D01*
X111361911Y-29615466D01*
X111361911Y-29615464D01*
X110724025Y-28977577D01*
X110755258Y-28964641D01*
X110878097Y-28882563D01*
X110982563Y-28778097D01*
X111064641Y-28655258D01*
X111077578Y-28624025D01*
X111715464Y-29261911D01*
X111715466Y-29261911D01*
X111718713Y-29258110D01*
X111718724Y-29258095D01*
X111852363Y-29040015D01*
X111852365Y-29040012D01*
X111950247Y-28803702D01*
X112009957Y-28554989D01*
X112030024Y-28300000D01*
X112009957Y-28045010D01*
X111950247Y-27796297D01*
X111852365Y-27559987D01*
X111852363Y-27559984D01*
X111718719Y-27341897D01*
X111715465Y-27338087D01*
X111077578Y-27975974D01*
X111064641Y-27944742D01*
X110982563Y-27821903D01*
X110878097Y-27717437D01*
X110755258Y-27635359D01*
X110724024Y-27622421D01*
X111361912Y-26984533D01*
X111358107Y-26981284D01*
X111358098Y-26981277D01*
X111353911Y-26978711D01*
X115949500Y-26978711D01*
X115949500Y-27221288D01*
X115981161Y-27461785D01*
X116043947Y-27696104D01*
X116096055Y-27821903D01*
X116136776Y-27920212D01*
X116258064Y-28130289D01*
X116258066Y-28130292D01*
X116258067Y-28130293D01*
X116405733Y-28322736D01*
X116405739Y-28322743D01*
X116577256Y-28494260D01*
X116577263Y-28494266D01*
X116645852Y-28546896D01*
X116769711Y-28641936D01*
X116979788Y-28763224D01*
X117203900Y-28856054D01*
X117438211Y-28918838D01*
X117599069Y-28940015D01*
X117678711Y-28950500D01*
X117678712Y-28950500D01*
X117921289Y-28950500D01*
X117969388Y-28944167D01*
X118161789Y-28918838D01*
X118396100Y-28856054D01*
X118620212Y-28763224D01*
X118830289Y-28641936D01*
X119022738Y-28494265D01*
X119194265Y-28322738D01*
X119341936Y-28130289D01*
X119463224Y-27920212D01*
X119556054Y-27696100D01*
X119618838Y-27461789D01*
X119650500Y-27221288D01*
X119650500Y-26978712D01*
X119618838Y-26738211D01*
X119556054Y-26503900D01*
X119463224Y-26279788D01*
X119341936Y-26069711D01*
X119194265Y-25877262D01*
X119194260Y-25877256D01*
X119022743Y-25705739D01*
X119022736Y-25705733D01*
X118830293Y-25558067D01*
X118830292Y-25558066D01*
X118830289Y-25558064D01*
X118620212Y-25436776D01*
X118620205Y-25436773D01*
X118396104Y-25343947D01*
X118161785Y-25281161D01*
X117921289Y-25249500D01*
X117921288Y-25249500D01*
X117678712Y-25249500D01*
X117678711Y-25249500D01*
X117438214Y-25281161D01*
X117203895Y-25343947D01*
X116979794Y-25436773D01*
X116979785Y-25436777D01*
X116769706Y-25558067D01*
X116577263Y-25705733D01*
X116577256Y-25705739D01*
X116405739Y-25877256D01*
X116405733Y-25877263D01*
X116258067Y-26069706D01*
X116136777Y-26279785D01*
X116136773Y-26279794D01*
X116043947Y-26503895D01*
X115981161Y-26738214D01*
X115949500Y-26978711D01*
X111353911Y-26978711D01*
X111140015Y-26847636D01*
X111140012Y-26847634D01*
X110903702Y-26749752D01*
X110654988Y-26690042D01*
X110654989Y-26690042D01*
X110400000Y-26669975D01*
X110145010Y-26690042D01*
X109896297Y-26749752D01*
X109659987Y-26847634D01*
X109659984Y-26847636D01*
X109441893Y-26981282D01*
X109438086Y-26984532D01*
X110075975Y-27622421D01*
X110044742Y-27635359D01*
X109921903Y-27717437D01*
X109817437Y-27821903D01*
X109735359Y-27944742D01*
X109722421Y-27975975D01*
X109084532Y-27338086D01*
X109081282Y-27341893D01*
X108947636Y-27559984D01*
X108947634Y-27559987D01*
X108849752Y-27796297D01*
X108790042Y-28045010D01*
X108769975Y-28300000D01*
X107025499Y-28300000D01*
X107025499Y-27127129D01*
X107025498Y-27127123D01*
X107025497Y-27127116D01*
X107019091Y-27067517D01*
X107004027Y-27027129D01*
X106968797Y-26932671D01*
X106968793Y-26932664D01*
X106882547Y-26817455D01*
X106882544Y-26817452D01*
X106767335Y-26731206D01*
X106767328Y-26731202D01*
X106632482Y-26680908D01*
X106632483Y-26680908D01*
X106572883Y-26674501D01*
X106572881Y-26674500D01*
X106572873Y-26674500D01*
X106572864Y-26674500D01*
X104227129Y-26674500D01*
X104227123Y-26674501D01*
X104167516Y-26680908D01*
X104032671Y-26731202D01*
X104032664Y-26731206D01*
X103917455Y-26817452D01*
X103917452Y-26817455D01*
X103831206Y-26932664D01*
X103831202Y-26932671D01*
X103780908Y-27067517D01*
X103774501Y-27127116D01*
X103774501Y-27127123D01*
X103774500Y-27127135D01*
X103774500Y-29472870D01*
X103774501Y-29472876D01*
X103780908Y-29532483D01*
X103831202Y-29667328D01*
X103831206Y-29667335D01*
X103917452Y-29782544D01*
X103917455Y-29782547D01*
X104032664Y-29868793D01*
X104032671Y-29868797D01*
X104056338Y-29877624D01*
X104167517Y-29919091D01*
X104227127Y-29925500D01*
X104660217Y-29925499D01*
X104727255Y-29945183D01*
X104773010Y-29997987D01*
X104782954Y-30067146D01*
X104753929Y-30130702D01*
X104747897Y-30137180D01*
X95021899Y-39863181D01*
X94960576Y-39896666D01*
X94934218Y-39899500D01*
X93324500Y-39899500D01*
X93257461Y-39879815D01*
X93211706Y-39827011D01*
X93200500Y-39775500D01*
X93200500Y-35341000D01*
X93220185Y-35273961D01*
X93272989Y-35228206D01*
X93342147Y-35218262D01*
X93405703Y-35247287D01*
X93430039Y-35275903D01*
X93477428Y-35352733D01*
X93597267Y-35472572D01*
X93597271Y-35472575D01*
X93741507Y-35561542D01*
X93741518Y-35561547D01*
X93902393Y-35614855D01*
X94001683Y-35624999D01*
X94550000Y-35624999D01*
X94598308Y-35624999D01*
X94598322Y-35624998D01*
X94697607Y-35614855D01*
X94858481Y-35561547D01*
X94858492Y-35561542D01*
X95002728Y-35472575D01*
X95002732Y-35472572D01*
X95122572Y-35352732D01*
X95122575Y-35352728D01*
X95211542Y-35208492D01*
X95211547Y-35208481D01*
X95264855Y-35047606D01*
X95274999Y-34948322D01*
X95275000Y-34948309D01*
X95275000Y-34925000D01*
X94550000Y-34925000D01*
X94550000Y-35624999D01*
X94001683Y-35624999D01*
X94049999Y-35624998D01*
X94050000Y-35624998D01*
X94050000Y-34549000D01*
X94069685Y-34481961D01*
X94122489Y-34436206D01*
X94174000Y-34425000D01*
X95274999Y-34425000D01*
X95274999Y-34401692D01*
X95274998Y-34401677D01*
X95264855Y-34302392D01*
X95211547Y-34141518D01*
X95211542Y-34141507D01*
X95122575Y-33997271D01*
X95122572Y-33997267D01*
X95113339Y-33988034D01*
X95079854Y-33926711D01*
X95084838Y-33857019D01*
X95113343Y-33812668D01*
X95122968Y-33803044D01*
X95212003Y-33658697D01*
X95265349Y-33497708D01*
X95275500Y-33398345D01*
X95275499Y-33361434D01*
X95277882Y-33337241D01*
X95285730Y-33297793D01*
X95300500Y-33223540D01*
X95300500Y-33026459D01*
X95300500Y-33026456D01*
X95277882Y-32912751D01*
X95275499Y-32888559D01*
X95275499Y-32851662D01*
X95275498Y-32851644D01*
X95265349Y-32752292D01*
X95265348Y-32752289D01*
X95250869Y-32708593D01*
X95212003Y-32591303D01*
X95211999Y-32591297D01*
X95211998Y-32591294D01*
X95122970Y-32446959D01*
X95122967Y-32446955D01*
X95003043Y-32327031D01*
X94858702Y-32237999D01*
X94858693Y-32237995D01*
X94840556Y-32231985D01*
X94791882Y-32201961D01*
X93236819Y-30646898D01*
X93203334Y-30585575D01*
X93200500Y-30559217D01*
X93200500Y-30049499D01*
X93220185Y-29982460D01*
X93272989Y-29936705D01*
X93324500Y-29925499D01*
X93372871Y-29925499D01*
X93372872Y-29925499D01*
X93432483Y-29919091D01*
X93567331Y-29868796D01*
X93682546Y-29782546D01*
X93768796Y-29667331D01*
X93819091Y-29532483D01*
X93825500Y-29472873D01*
X93825499Y-28300000D01*
X95569975Y-28300000D01*
X95590042Y-28554989D01*
X95649752Y-28803702D01*
X95747634Y-29040012D01*
X95747636Y-29040015D01*
X95881277Y-29258098D01*
X95881284Y-29258107D01*
X95884533Y-29261912D01*
X96522421Y-28624024D01*
X96535359Y-28655258D01*
X96617437Y-28778097D01*
X96721903Y-28882563D01*
X96844742Y-28964641D01*
X96875974Y-28977578D01*
X96238087Y-29615465D01*
X96241897Y-29618719D01*
X96459984Y-29752363D01*
X96459987Y-29752365D01*
X96696297Y-29850247D01*
X96945011Y-29909957D01*
X96945010Y-29909957D01*
X97200000Y-29930024D01*
X97454989Y-29909957D01*
X97703702Y-29850247D01*
X97940012Y-29752365D01*
X97940015Y-29752363D01*
X98158095Y-29618724D01*
X98158110Y-29618713D01*
X98161911Y-29615466D01*
X98161911Y-29615464D01*
X97524025Y-28977577D01*
X97555258Y-28964641D01*
X97678097Y-28882563D01*
X97782563Y-28778097D01*
X97864641Y-28655258D01*
X97877578Y-28624025D01*
X98515464Y-29261911D01*
X98515466Y-29261911D01*
X98518713Y-29258110D01*
X98518724Y-29258095D01*
X98652363Y-29040015D01*
X98652365Y-29040012D01*
X98750247Y-28803702D01*
X98809957Y-28554989D01*
X98830024Y-28300000D01*
X98809957Y-28045010D01*
X98750247Y-27796297D01*
X98652365Y-27559987D01*
X98652363Y-27559984D01*
X98518719Y-27341897D01*
X98515465Y-27338087D01*
X97877578Y-27975974D01*
X97864641Y-27944742D01*
X97782563Y-27821903D01*
X97678097Y-27717437D01*
X97555258Y-27635359D01*
X97524024Y-27622421D01*
X98161912Y-26984533D01*
X98158107Y-26981284D01*
X98158098Y-26981277D01*
X97940015Y-26847636D01*
X97940012Y-26847634D01*
X97703702Y-26749752D01*
X97454988Y-26690042D01*
X97454989Y-26690042D01*
X97200000Y-26669975D01*
X96945010Y-26690042D01*
X96696297Y-26749752D01*
X96459987Y-26847634D01*
X96459984Y-26847636D01*
X96241893Y-26981282D01*
X96238086Y-26984532D01*
X96875975Y-27622421D01*
X96844742Y-27635359D01*
X96721903Y-27717437D01*
X96617437Y-27821903D01*
X96535359Y-27944742D01*
X96522421Y-27975975D01*
X95884532Y-27338086D01*
X95881282Y-27341893D01*
X95747636Y-27559984D01*
X95747634Y-27559987D01*
X95649752Y-27796297D01*
X95590042Y-28045010D01*
X95569975Y-28300000D01*
X93825499Y-28300000D01*
X93825499Y-27127128D01*
X93819091Y-27067517D01*
X93804027Y-27027129D01*
X93768797Y-26932671D01*
X93768793Y-26932664D01*
X93682547Y-26817455D01*
X93682544Y-26817452D01*
X93567335Y-26731206D01*
X93567328Y-26731202D01*
X93432482Y-26680908D01*
X93432483Y-26680908D01*
X93372883Y-26674501D01*
X93372881Y-26674500D01*
X93372873Y-26674500D01*
X93372864Y-26674500D01*
X91027129Y-26674500D01*
X91027123Y-26674501D01*
X90967516Y-26680908D01*
X90832671Y-26731202D01*
X90832664Y-26731206D01*
X90717455Y-26817452D01*
X90717452Y-26817455D01*
X90631206Y-26932664D01*
X90631202Y-26932671D01*
X90580908Y-27067517D01*
X90574501Y-27127116D01*
X90574501Y-27127123D01*
X90574500Y-27127135D01*
X90574500Y-29472870D01*
X90574501Y-29472876D01*
X90580908Y-29532483D01*
X90631202Y-29667328D01*
X90631206Y-29667335D01*
X90717452Y-29782544D01*
X90717455Y-29782547D01*
X90832664Y-29868793D01*
X90832671Y-29868797D01*
X90856338Y-29877624D01*
X90967517Y-29919091D01*
X91027127Y-29925500D01*
X91075500Y-29925499D01*
X91142537Y-29945182D01*
X91188293Y-29997985D01*
X91199500Y-30049499D01*
X91199500Y-40434218D01*
X91179815Y-40501257D01*
X91163181Y-40521899D01*
X86912181Y-44772899D01*
X86850858Y-44806384D01*
X86781166Y-44801400D01*
X86725233Y-44759528D01*
X86700816Y-44694064D01*
X86700500Y-44685218D01*
X86700500Y-34201456D01*
X86665184Y-34023914D01*
X86665183Y-34023911D01*
X86662051Y-34008164D01*
X86662050Y-34008161D01*
X86639961Y-33954833D01*
X86586635Y-33826092D01*
X86586628Y-33826079D01*
X86477139Y-33662218D01*
X86477136Y-33662214D01*
X86334686Y-33519764D01*
X86334655Y-33519735D01*
X85381479Y-32566559D01*
X85381459Y-32566537D01*
X85237785Y-32422863D01*
X85237781Y-32422860D01*
X85073920Y-32313371D01*
X85073911Y-32313366D01*
X85001315Y-32283296D01*
X84945165Y-32260038D01*
X84891836Y-32237949D01*
X84891832Y-32237948D01*
X84891828Y-32237946D01*
X84795188Y-32218724D01*
X84698544Y-32199500D01*
X84698541Y-32199500D01*
X81065783Y-32199500D01*
X80998744Y-32179815D01*
X80978102Y-32163181D01*
X79736819Y-30921898D01*
X79703334Y-30860575D01*
X79700500Y-30834217D01*
X79700500Y-29944663D01*
X79720185Y-29877624D01*
X79772989Y-29831869D01*
X79811248Y-29821373D01*
X79832483Y-29819091D01*
X79967331Y-29768796D01*
X80082546Y-29682546D01*
X80168796Y-29567331D01*
X80219091Y-29432483D01*
X80225500Y-29372873D01*
X80225499Y-28200000D01*
X81969975Y-28200000D01*
X81990042Y-28454989D01*
X82049752Y-28703702D01*
X82147634Y-28940012D01*
X82147636Y-28940015D01*
X82281277Y-29158098D01*
X82281284Y-29158107D01*
X82284533Y-29161912D01*
X82922421Y-28524024D01*
X82935359Y-28555258D01*
X83017437Y-28678097D01*
X83121903Y-28782563D01*
X83244742Y-28864641D01*
X83275974Y-28877578D01*
X82638087Y-29515465D01*
X82641897Y-29518719D01*
X82859984Y-29652363D01*
X82859987Y-29652365D01*
X83096297Y-29750247D01*
X83345011Y-29809957D01*
X83345010Y-29809957D01*
X83600000Y-29830024D01*
X83854989Y-29809957D01*
X84103702Y-29750247D01*
X84340012Y-29652365D01*
X84340015Y-29652363D01*
X84558095Y-29518724D01*
X84558110Y-29518713D01*
X84561911Y-29515466D01*
X84561911Y-29515464D01*
X83924025Y-28877577D01*
X83955258Y-28864641D01*
X84078097Y-28782563D01*
X84182563Y-28678097D01*
X84264641Y-28555258D01*
X84277578Y-28524025D01*
X84915464Y-29161911D01*
X84915466Y-29161911D01*
X84918713Y-29158110D01*
X84918724Y-29158095D01*
X85052363Y-28940015D01*
X85052365Y-28940012D01*
X85150247Y-28703702D01*
X85209957Y-28454989D01*
X85230024Y-28200000D01*
X85209957Y-27945010D01*
X85150247Y-27696297D01*
X85052365Y-27459987D01*
X85052363Y-27459984D01*
X84918719Y-27241897D01*
X84915465Y-27238087D01*
X84277578Y-27875974D01*
X84264641Y-27844742D01*
X84182563Y-27721903D01*
X84078097Y-27617437D01*
X83955258Y-27535359D01*
X83924024Y-27522421D01*
X84561912Y-26884533D01*
X84558107Y-26881284D01*
X84558098Y-26881277D01*
X84340015Y-26747636D01*
X84340012Y-26747634D01*
X84103702Y-26649752D01*
X83854988Y-26590042D01*
X83854989Y-26590042D01*
X83600000Y-26569975D01*
X83345010Y-26590042D01*
X83096297Y-26649752D01*
X82859987Y-26747634D01*
X82859984Y-26747636D01*
X82641893Y-26881282D01*
X82638086Y-26884532D01*
X83275975Y-27522421D01*
X83244742Y-27535359D01*
X83121903Y-27617437D01*
X83017437Y-27721903D01*
X82935359Y-27844742D01*
X82922421Y-27875975D01*
X82284532Y-27238086D01*
X82281282Y-27241893D01*
X82147636Y-27459984D01*
X82147634Y-27459987D01*
X82049752Y-27696297D01*
X81990042Y-27945010D01*
X81969975Y-28200000D01*
X80225499Y-28200000D01*
X80225499Y-27027128D01*
X80219091Y-26967517D01*
X80206094Y-26932671D01*
X80168797Y-26832671D01*
X80168793Y-26832664D01*
X80082547Y-26717455D01*
X80082544Y-26717452D01*
X79967335Y-26631206D01*
X79967328Y-26631202D01*
X79832482Y-26580908D01*
X79832483Y-26580908D01*
X79772883Y-26574501D01*
X79772881Y-26574500D01*
X79772873Y-26574500D01*
X79772864Y-26574500D01*
X77427129Y-26574500D01*
X77427123Y-26574501D01*
X77367516Y-26580908D01*
X77232671Y-26631202D01*
X77232664Y-26631206D01*
X77117455Y-26717452D01*
X77117452Y-26717455D01*
X77031206Y-26832664D01*
X77031202Y-26832671D01*
X76980908Y-26967517D01*
X76974501Y-27027116D01*
X76974501Y-27027123D01*
X76974500Y-27027135D01*
X76974500Y-29372870D01*
X76974501Y-29372876D01*
X76980908Y-29432483D01*
X77031202Y-29567328D01*
X77031206Y-29567335D01*
X77117452Y-29682544D01*
X77117455Y-29682547D01*
X77232664Y-29768793D01*
X77232671Y-29768797D01*
X77269529Y-29782544D01*
X77367517Y-29819091D01*
X77427127Y-29825500D01*
X77575500Y-29825499D01*
X77642539Y-29845183D01*
X77688294Y-29897987D01*
X77699500Y-29949499D01*
X77699500Y-31398541D01*
X77699500Y-31398543D01*
X77699499Y-31398543D01*
X77737947Y-31591829D01*
X77737950Y-31591839D01*
X77813364Y-31773907D01*
X77813371Y-31773920D01*
X77922859Y-31937780D01*
X77922860Y-31937781D01*
X77922861Y-31937782D01*
X78062218Y-32077139D01*
X78062219Y-32077139D01*
X78069286Y-32084206D01*
X78069285Y-32084206D01*
X78069289Y-32084209D01*
X79966538Y-33981460D01*
X79966560Y-33981480D01*
X80063181Y-34078101D01*
X80096666Y-34139424D01*
X80099500Y-34165782D01*
X80099500Y-34448545D01*
X80122117Y-34562248D01*
X80124500Y-34586436D01*
X80124500Y-34623336D01*
X80124501Y-34623356D01*
X80134650Y-34722707D01*
X80134651Y-34722710D01*
X80187996Y-34883694D01*
X80188001Y-34883705D01*
X80277029Y-35028040D01*
X80277032Y-35028044D01*
X80286660Y-35037672D01*
X80320145Y-35098995D01*
X80315161Y-35168687D01*
X80286663Y-35213031D01*
X80277428Y-35222265D01*
X80277424Y-35222271D01*
X80188457Y-35366507D01*
X80188452Y-35366518D01*
X80135144Y-35527393D01*
X80125000Y-35626677D01*
X80125000Y-35650000D01*
X82074999Y-35650000D01*
X82074999Y-35626692D01*
X82074998Y-35626677D01*
X82064855Y-35527392D01*
X82011547Y-35366518D01*
X82011542Y-35366507D01*
X81922575Y-35222271D01*
X81922572Y-35222267D01*
X81913339Y-35213034D01*
X81879854Y-35151711D01*
X81884838Y-35082019D01*
X81913343Y-35037668D01*
X81922968Y-35028044D01*
X82012003Y-34883697D01*
X82065349Y-34722708D01*
X82075500Y-34623345D01*
X82075499Y-34586434D01*
X82077882Y-34562241D01*
X82086041Y-34521230D01*
X82100500Y-34448541D01*
X82100500Y-34324500D01*
X82120185Y-34257461D01*
X82172989Y-34211706D01*
X82224500Y-34200500D01*
X84134218Y-34200500D01*
X84201257Y-34220185D01*
X84221899Y-34236819D01*
X84663181Y-34678101D01*
X84696666Y-34739424D01*
X84699500Y-34765782D01*
X84699500Y-46934217D01*
X84679815Y-47001256D01*
X84663181Y-47021898D01*
X84562218Y-47122861D01*
X83811166Y-47873914D01*
X83212222Y-48472857D01*
X83212219Y-48472860D01*
X79087680Y-52597398D01*
X79026357Y-52630883D01*
X78956665Y-52625899D01*
X78912320Y-52597399D01*
X72527100Y-46212180D01*
X72493616Y-46150858D01*
X72498600Y-46081166D01*
X72540472Y-46025233D01*
X72605936Y-46000816D01*
X72614782Y-46000500D01*
X72998540Y-46000500D01*
X72998541Y-46000500D01*
X73005370Y-45999141D01*
X73026044Y-45995029D01*
X73026046Y-45995028D01*
X73191836Y-45962052D01*
X73298494Y-45917871D01*
X73373914Y-45886632D01*
X73455848Y-45831885D01*
X73537782Y-45777140D01*
X73677140Y-45637782D01*
X73677141Y-45637780D01*
X73684198Y-45630723D01*
X73684209Y-45630709D01*
X77303102Y-42011819D01*
X77364425Y-41978334D01*
X77390783Y-41975500D01*
X81198543Y-41975500D01*
X81328582Y-41949632D01*
X81391835Y-41937051D01*
X81409941Y-41929550D01*
X81444792Y-41920754D01*
X81497708Y-41915349D01*
X81658697Y-41862003D01*
X81803044Y-41772968D01*
X81922968Y-41653044D01*
X82012003Y-41508697D01*
X82065349Y-41347708D01*
X82075500Y-41248345D01*
X82075499Y-41211434D01*
X82077882Y-41187241D01*
X82078586Y-41183705D01*
X82100500Y-41073541D01*
X82100500Y-40876459D01*
X82100500Y-40876456D01*
X82077882Y-40762752D01*
X82075499Y-40738560D01*
X82075499Y-40701662D01*
X82075498Y-40701644D01*
X82065349Y-40602292D01*
X82065348Y-40602289D01*
X82048504Y-40551456D01*
X82012003Y-40441303D01*
X82011999Y-40441297D01*
X82011998Y-40441294D01*
X81922970Y-40296959D01*
X81922967Y-40296955D01*
X81913339Y-40287327D01*
X81879854Y-40226004D01*
X81884838Y-40156312D01*
X81913345Y-40111959D01*
X81922573Y-40102731D01*
X82011542Y-39958492D01*
X82011547Y-39958481D01*
X82064855Y-39797606D01*
X82074999Y-39698322D01*
X82075000Y-39698306D01*
X82075000Y-39675000D01*
X80125001Y-39675000D01*
X80125001Y-39698322D01*
X80135144Y-39797606D01*
X80139747Y-39811498D01*
X80142147Y-39881327D01*
X80106414Y-39941368D01*
X80043893Y-39972559D01*
X80022040Y-39974500D01*
X77029675Y-39974500D01*
X77029655Y-39974499D01*
X77023541Y-39974499D01*
X76826460Y-39974499D01*
X76826457Y-39974499D01*
X76633172Y-40012946D01*
X76633164Y-40012948D01*
X76451088Y-40088366D01*
X76451079Y-40088371D01*
X76287219Y-40197859D01*
X76287215Y-40197862D01*
X73912181Y-42572897D01*
X73850858Y-42606382D01*
X73781166Y-42601398D01*
X73725233Y-42559526D01*
X73700816Y-42494062D01*
X73700500Y-42485216D01*
X73700500Y-40784653D01*
X73720185Y-40717614D01*
X73772989Y-40671859D01*
X73800135Y-40664413D01*
X73799932Y-40663553D01*
X73807479Y-40661769D01*
X73807481Y-40661768D01*
X73807483Y-40661768D01*
X73942331Y-40611473D01*
X74057546Y-40525223D01*
X74143796Y-40410008D01*
X74194091Y-40275160D01*
X74200500Y-40215550D01*
X74200499Y-39151677D01*
X80125000Y-39151677D01*
X80125000Y-39175000D01*
X80850000Y-39175000D01*
X81350000Y-39175000D01*
X82074999Y-39175000D01*
X82074999Y-39151692D01*
X82074998Y-39151677D01*
X82064855Y-39052392D01*
X82011547Y-38891518D01*
X82011542Y-38891507D01*
X81922575Y-38747271D01*
X81922572Y-38747267D01*
X81802732Y-38627427D01*
X81802728Y-38627424D01*
X81658492Y-38538457D01*
X81658481Y-38538452D01*
X81497606Y-38485144D01*
X81398322Y-38475000D01*
X81350000Y-38475000D01*
X81350000Y-39175000D01*
X80850000Y-39175000D01*
X80850000Y-38475000D01*
X80849999Y-38474999D01*
X80801693Y-38475000D01*
X80801675Y-38475001D01*
X80702392Y-38485144D01*
X80541518Y-38538452D01*
X80541507Y-38538457D01*
X80397271Y-38627424D01*
X80397267Y-38627427D01*
X80277427Y-38747267D01*
X80277424Y-38747271D01*
X80188457Y-38891507D01*
X80188452Y-38891518D01*
X80135144Y-39052393D01*
X80125000Y-39151677D01*
X74200499Y-39151677D01*
X74200499Y-38119805D01*
X74194091Y-38060194D01*
X74167163Y-37987997D01*
X74143797Y-37925348D01*
X74143793Y-37925341D01*
X74057547Y-37810132D01*
X74057544Y-37810129D01*
X73942335Y-37723883D01*
X73942328Y-37723879D01*
X73807482Y-37673585D01*
X73807483Y-37673585D01*
X73747883Y-37667178D01*
X73747881Y-37667177D01*
X73747873Y-37667177D01*
X73747864Y-37667177D01*
X71652129Y-37667177D01*
X71652123Y-37667178D01*
X71592516Y-37673585D01*
X71457671Y-37723879D01*
X71457664Y-37723883D01*
X71342455Y-37810129D01*
X71342452Y-37810132D01*
X71256206Y-37925341D01*
X71256202Y-37925348D01*
X71205908Y-38060194D01*
X71203063Y-38086660D01*
X71199501Y-38119800D01*
X71199500Y-38119812D01*
X71199500Y-40215547D01*
X71199501Y-40215553D01*
X71205908Y-40275160D01*
X71256202Y-40410005D01*
X71256206Y-40410012D01*
X71342452Y-40525221D01*
X71342455Y-40525224D01*
X71457664Y-40611470D01*
X71457671Y-40611474D01*
X71592517Y-40661768D01*
X71600062Y-40663551D01*
X71599523Y-40665828D01*
X71653287Y-40688085D01*
X71693147Y-40745470D01*
X71699500Y-40784652D01*
X71699500Y-43875500D01*
X71679815Y-43942539D01*
X71627011Y-43988294D01*
X71575500Y-43999500D01*
X62524500Y-43999500D01*
X62457461Y-43979815D01*
X62411706Y-43927011D01*
X62400500Y-43875500D01*
X62400500Y-42473322D01*
X63425001Y-42473322D01*
X63435144Y-42572607D01*
X63488452Y-42733481D01*
X63488457Y-42733492D01*
X63577424Y-42877728D01*
X63577427Y-42877732D01*
X63697267Y-42997572D01*
X63697271Y-42997575D01*
X63841507Y-43086542D01*
X63841518Y-43086547D01*
X64002393Y-43139855D01*
X64101683Y-43149999D01*
X64650000Y-43149999D01*
X64698308Y-43149999D01*
X64698322Y-43149998D01*
X64797607Y-43139855D01*
X64958481Y-43086547D01*
X64958492Y-43086542D01*
X65102728Y-42997575D01*
X65102732Y-42997572D01*
X65222572Y-42877732D01*
X65222575Y-42877728D01*
X65311542Y-42733492D01*
X65311547Y-42733481D01*
X65364855Y-42572606D01*
X65374999Y-42473322D01*
X65375000Y-42473309D01*
X65375000Y-42450000D01*
X64650000Y-42450000D01*
X64650000Y-43149999D01*
X64101683Y-43149999D01*
X64149999Y-43149998D01*
X64150000Y-43149998D01*
X64150000Y-42450000D01*
X63425001Y-42450000D01*
X63425001Y-42473322D01*
X62400500Y-42473322D01*
X62400500Y-41724500D01*
X62420185Y-41657461D01*
X62472989Y-41611706D01*
X62524500Y-41600500D01*
X63338609Y-41600500D01*
X63405648Y-41620185D01*
X63451403Y-41672989D01*
X63461347Y-41742147D01*
X63456315Y-41763504D01*
X63435144Y-41827393D01*
X63425000Y-41926677D01*
X63425000Y-41950000D01*
X65374999Y-41950000D01*
X65374999Y-41926692D01*
X65374998Y-41926677D01*
X65364855Y-41827392D01*
X65311547Y-41666518D01*
X65311542Y-41666507D01*
X65222575Y-41522271D01*
X65222572Y-41522267D01*
X65213339Y-41513034D01*
X65179854Y-41451711D01*
X65184838Y-41382019D01*
X65213343Y-41337668D01*
X65222968Y-41328044D01*
X65312003Y-41183697D01*
X65365349Y-41022708D01*
X65375500Y-40923345D01*
X65375499Y-40886438D01*
X65377882Y-40862246D01*
X65400500Y-40748543D01*
X65400500Y-40551459D01*
X65400499Y-40551456D01*
X65377882Y-40437749D01*
X65375499Y-40413558D01*
X65375499Y-40376662D01*
X65375498Y-40376644D01*
X65365349Y-40277292D01*
X65365348Y-40277289D01*
X65354705Y-40245171D01*
X65312003Y-40116303D01*
X65311999Y-40116297D01*
X65311998Y-40116294D01*
X65222970Y-39971959D01*
X65222967Y-39971955D01*
X65103045Y-39852033D01*
X65103044Y-39852032D01*
X65027663Y-39805536D01*
X64980942Y-39753591D01*
X64969719Y-39684628D01*
X64997563Y-39620546D01*
X65027661Y-39594464D01*
X65103044Y-39547968D01*
X65222968Y-39428044D01*
X65312003Y-39283697D01*
X65365349Y-39122708D01*
X65375500Y-39023345D01*
X65375499Y-38986434D01*
X65377882Y-38962241D01*
X65380774Y-38947707D01*
X65400500Y-38848541D01*
X65400500Y-38651459D01*
X65400500Y-38651456D01*
X65377882Y-38537752D01*
X65375499Y-38513560D01*
X65375499Y-38476662D01*
X65375498Y-38476644D01*
X65365349Y-38377292D01*
X65365348Y-38377289D01*
X65359434Y-38359441D01*
X65312003Y-38216303D01*
X65311999Y-38216297D01*
X65311998Y-38216294D01*
X65222970Y-38071959D01*
X65222967Y-38071955D01*
X65213339Y-38062327D01*
X65179854Y-38001004D01*
X65184838Y-37931312D01*
X65213345Y-37886959D01*
X65222573Y-37877731D01*
X65311542Y-37733492D01*
X65311547Y-37733481D01*
X65364855Y-37572606D01*
X65374999Y-37473322D01*
X65375000Y-37473309D01*
X65375000Y-37450000D01*
X63425001Y-37450000D01*
X63425001Y-37473322D01*
X63435144Y-37572606D01*
X63439747Y-37586498D01*
X63442147Y-37656327D01*
X63406414Y-37716368D01*
X63343893Y-37747559D01*
X63322040Y-37749500D01*
X63315783Y-37749500D01*
X63248744Y-37729815D01*
X63228106Y-37713185D01*
X63150282Y-37635361D01*
X63150281Y-37635360D01*
X63150280Y-37635359D01*
X62986420Y-37525871D01*
X62986411Y-37525866D01*
X62913815Y-37495796D01*
X62857665Y-37472538D01*
X62804336Y-37450449D01*
X62804332Y-37450448D01*
X62804328Y-37450446D01*
X62707688Y-37431224D01*
X62611044Y-37412000D01*
X62604980Y-37411403D01*
X62605120Y-37409979D01*
X62544961Y-37392315D01*
X62499206Y-37339511D01*
X62488000Y-37288000D01*
X62488000Y-36926677D01*
X63425000Y-36926677D01*
X63425000Y-36950000D01*
X64150000Y-36950000D01*
X64650000Y-36950000D01*
X65374999Y-36950000D01*
X65374999Y-36926692D01*
X65374998Y-36926677D01*
X65364855Y-36827392D01*
X65311547Y-36666518D01*
X65311542Y-36666507D01*
X65222575Y-36522271D01*
X65222572Y-36522267D01*
X65102732Y-36402427D01*
X65102728Y-36402424D01*
X64958492Y-36313457D01*
X64958481Y-36313452D01*
X64797606Y-36260144D01*
X64698322Y-36250000D01*
X64650000Y-36250000D01*
X64650000Y-36950000D01*
X64150000Y-36950000D01*
X64150000Y-36250000D01*
X64149999Y-36249999D01*
X64101693Y-36250000D01*
X64101675Y-36250001D01*
X64002392Y-36260144D01*
X63841518Y-36313452D01*
X63841507Y-36313457D01*
X63697271Y-36402424D01*
X63697267Y-36402427D01*
X63577427Y-36522267D01*
X63577424Y-36522271D01*
X63488457Y-36666507D01*
X63488452Y-36666518D01*
X63435144Y-36827393D01*
X63425000Y-36926677D01*
X62488000Y-36926677D01*
X62488000Y-36173322D01*
X80125001Y-36173322D01*
X80135144Y-36272607D01*
X80188452Y-36433481D01*
X80188457Y-36433492D01*
X80277424Y-36577728D01*
X80277427Y-36577732D01*
X80397267Y-36697572D01*
X80397271Y-36697575D01*
X80541507Y-36786542D01*
X80541518Y-36786547D01*
X80702393Y-36839855D01*
X80801683Y-36849999D01*
X81350000Y-36849999D01*
X81398308Y-36849999D01*
X81398322Y-36849998D01*
X81497607Y-36839855D01*
X81658481Y-36786547D01*
X81658492Y-36786542D01*
X81802728Y-36697575D01*
X81802732Y-36697572D01*
X81922572Y-36577732D01*
X81922575Y-36577728D01*
X82011542Y-36433492D01*
X82011547Y-36433481D01*
X82064855Y-36272606D01*
X82074999Y-36173322D01*
X82075000Y-36173309D01*
X82075000Y-36150000D01*
X81350000Y-36150000D01*
X81350000Y-36849999D01*
X80801683Y-36849999D01*
X80849999Y-36849998D01*
X80850000Y-36849998D01*
X80850000Y-36150000D01*
X80125001Y-36150000D01*
X80125001Y-36173322D01*
X62488000Y-36173322D01*
X62488000Y-34167671D01*
X71194859Y-34167671D01*
X71194859Y-34167682D01*
X71215385Y-34415406D01*
X71215387Y-34415415D01*
X71276412Y-34656394D01*
X71376266Y-34884041D01*
X71476564Y-35037559D01*
X72217037Y-34297086D01*
X72234075Y-34360670D01*
X72299901Y-34474684D01*
X72392993Y-34567776D01*
X72507007Y-34633602D01*
X72570590Y-34650639D01*
X71829942Y-35391286D01*
X71876768Y-35427732D01*
X71876770Y-35427733D01*
X72095385Y-35546041D01*
X72095396Y-35546046D01*
X72330506Y-35626760D01*
X72575707Y-35667677D01*
X72824293Y-35667677D01*
X73069493Y-35626760D01*
X73304603Y-35546046D01*
X73304614Y-35546041D01*
X73523228Y-35427734D01*
X73523231Y-35427732D01*
X73570056Y-35391286D01*
X72829409Y-34650639D01*
X72892993Y-34633602D01*
X73007007Y-34567776D01*
X73100099Y-34474684D01*
X73165925Y-34360670D01*
X73182962Y-34297087D01*
X73923434Y-35037559D01*
X74023731Y-34884046D01*
X74123587Y-34656394D01*
X74184612Y-34415415D01*
X74184614Y-34415406D01*
X74205141Y-34167682D01*
X74205141Y-34167671D01*
X74184614Y-33919947D01*
X74184612Y-33919938D01*
X74123587Y-33678959D01*
X74023731Y-33451307D01*
X73923434Y-33297793D01*
X73182962Y-34038266D01*
X73165925Y-33974684D01*
X73100099Y-33860670D01*
X73007007Y-33767578D01*
X72892993Y-33701752D01*
X72829410Y-33684714D01*
X73570057Y-32944067D01*
X73570056Y-32944066D01*
X73523229Y-32907620D01*
X73304614Y-32789312D01*
X73304603Y-32789307D01*
X73069493Y-32708593D01*
X72824293Y-32667677D01*
X72575707Y-32667677D01*
X72330506Y-32708593D01*
X72095396Y-32789307D01*
X72095390Y-32789309D01*
X71876761Y-32907626D01*
X71829942Y-32944065D01*
X71829942Y-32944067D01*
X72570590Y-33684714D01*
X72507007Y-33701752D01*
X72392993Y-33767578D01*
X72299901Y-33860670D01*
X72234075Y-33974684D01*
X72217037Y-34038266D01*
X71476564Y-33297793D01*
X71376267Y-33451309D01*
X71276412Y-33678959D01*
X71215387Y-33919938D01*
X71215385Y-33919947D01*
X71194859Y-34167671D01*
X62488000Y-34167671D01*
X62488000Y-30049499D01*
X62507685Y-29982460D01*
X62560489Y-29936705D01*
X62612000Y-29925499D01*
X62660371Y-29925499D01*
X62660372Y-29925499D01*
X62719983Y-29919091D01*
X62854831Y-29868796D01*
X62970046Y-29782546D01*
X63056296Y-29667331D01*
X63106591Y-29532483D01*
X63113000Y-29472873D01*
X63112999Y-28300000D01*
X64857475Y-28300000D01*
X64877542Y-28554989D01*
X64937252Y-28803702D01*
X65035134Y-29040012D01*
X65035136Y-29040015D01*
X65168777Y-29258098D01*
X65168784Y-29258107D01*
X65172033Y-29261912D01*
X65809921Y-28624024D01*
X65822859Y-28655258D01*
X65904937Y-28778097D01*
X66009403Y-28882563D01*
X66132242Y-28964641D01*
X66163474Y-28977578D01*
X65525587Y-29615465D01*
X65529397Y-29618719D01*
X65747484Y-29752363D01*
X65747487Y-29752365D01*
X65983797Y-29850247D01*
X66232511Y-29909957D01*
X66232510Y-29909957D01*
X66487500Y-29930024D01*
X66742489Y-29909957D01*
X66991202Y-29850247D01*
X67227512Y-29752365D01*
X67227515Y-29752363D01*
X67445595Y-29618724D01*
X67445610Y-29618713D01*
X67449411Y-29615466D01*
X67449411Y-29615464D01*
X66811525Y-28977577D01*
X66842758Y-28964641D01*
X66965597Y-28882563D01*
X67070063Y-28778097D01*
X67152141Y-28655258D01*
X67165078Y-28624025D01*
X67802964Y-29261911D01*
X67802966Y-29261911D01*
X67806213Y-29258110D01*
X67806224Y-29258095D01*
X67939863Y-29040015D01*
X67939865Y-29040012D01*
X68037747Y-28803702D01*
X68097457Y-28554989D01*
X68117524Y-28300000D01*
X68097457Y-28045010D01*
X68037747Y-27796297D01*
X67939865Y-27559987D01*
X67939863Y-27559984D01*
X67806219Y-27341897D01*
X67802965Y-27338087D01*
X67165078Y-27975974D01*
X67152141Y-27944742D01*
X67070063Y-27821903D01*
X66965597Y-27717437D01*
X66842758Y-27635359D01*
X66811524Y-27622421D01*
X67449412Y-26984533D01*
X67445607Y-26981284D01*
X67445598Y-26981277D01*
X67227515Y-26847636D01*
X67227512Y-26847634D01*
X66991202Y-26749752D01*
X66742488Y-26690042D01*
X66742489Y-26690042D01*
X66487500Y-26669975D01*
X66232510Y-26690042D01*
X65983797Y-26749752D01*
X65747487Y-26847634D01*
X65747484Y-26847636D01*
X65529393Y-26981282D01*
X65525586Y-26984532D01*
X66163475Y-27622421D01*
X66132242Y-27635359D01*
X66009403Y-27717437D01*
X65904937Y-27821903D01*
X65822859Y-27944742D01*
X65809921Y-27975975D01*
X65172032Y-27338086D01*
X65168782Y-27341893D01*
X65035136Y-27559984D01*
X65035134Y-27559987D01*
X64937252Y-27796297D01*
X64877542Y-28045010D01*
X64857475Y-28300000D01*
X63112999Y-28300000D01*
X63112999Y-27127128D01*
X63106591Y-27067517D01*
X63091527Y-27027129D01*
X63056297Y-26932671D01*
X63056293Y-26932664D01*
X62970047Y-26817455D01*
X62970044Y-26817452D01*
X62854835Y-26731206D01*
X62854828Y-26731202D01*
X62719982Y-26680908D01*
X62719983Y-26680908D01*
X62660383Y-26674501D01*
X62660381Y-26674500D01*
X62660373Y-26674500D01*
X62660364Y-26674500D01*
X60314629Y-26674500D01*
X60314623Y-26674501D01*
X60255016Y-26680908D01*
X60120171Y-26731202D01*
X60120164Y-26731206D01*
X60004955Y-26817452D01*
X60004952Y-26817455D01*
X59918706Y-26932664D01*
X59918702Y-26932671D01*
X59868408Y-27067517D01*
X59862001Y-27127116D01*
X59862001Y-27127123D01*
X59862000Y-27127135D01*
X59862000Y-29472870D01*
X59862001Y-29472876D01*
X59868408Y-29532483D01*
X59918702Y-29667328D01*
X59918706Y-29667335D01*
X60004952Y-29782544D01*
X60004955Y-29782547D01*
X60120164Y-29868793D01*
X60120171Y-29868797D01*
X60143838Y-29877624D01*
X60255017Y-29919091D01*
X60314627Y-29925500D01*
X60363000Y-29925499D01*
X60430037Y-29945182D01*
X60475793Y-29997985D01*
X60487000Y-30049499D01*
X60487000Y-36009319D01*
X60467315Y-36076358D01*
X60414511Y-36122113D01*
X60345353Y-36132057D01*
X60323996Y-36127025D01*
X60197607Y-36085144D01*
X60098322Y-36075000D01*
X60050000Y-36075000D01*
X60050000Y-37151000D01*
X60030315Y-37218039D01*
X59977511Y-37263794D01*
X59926000Y-37275000D01*
X58825001Y-37275000D01*
X58825001Y-37298322D01*
X58835144Y-37397607D01*
X58888452Y-37558481D01*
X58888457Y-37558492D01*
X58977424Y-37702728D01*
X58977427Y-37702732D01*
X58986660Y-37711965D01*
X59020145Y-37773288D01*
X59015161Y-37842980D01*
X58986663Y-37887324D01*
X58977033Y-37896953D01*
X58977029Y-37896959D01*
X58888001Y-38041294D01*
X58887996Y-38041305D01*
X58834651Y-38202290D01*
X58824500Y-38301647D01*
X58824500Y-38338564D01*
X58822117Y-38362755D01*
X58799500Y-38476456D01*
X58799500Y-38673538D01*
X58822118Y-38787253D01*
X58824500Y-38811440D01*
X58824500Y-38848336D01*
X58824501Y-38848356D01*
X58834650Y-38947707D01*
X58834651Y-38947710D01*
X58887996Y-39108694D01*
X58888001Y-39108705D01*
X58977029Y-39253040D01*
X58977032Y-39253044D01*
X59096955Y-39372967D01*
X59096959Y-39372970D01*
X59241294Y-39461998D01*
X59241297Y-39461999D01*
X59241303Y-39462003D01*
X59402292Y-39515349D01*
X59449630Y-39520185D01*
X59455209Y-39520755D01*
X59490059Y-39529552D01*
X59508159Y-39537049D01*
X59508164Y-39537051D01*
X59701455Y-39575499D01*
X59701458Y-39575500D01*
X59701460Y-39575500D01*
X59898542Y-39575500D01*
X59898543Y-39575499D01*
X60091836Y-39537051D01*
X60109942Y-39529550D01*
X60144793Y-39520754D01*
X60197708Y-39515349D01*
X60223527Y-39506793D01*
X60262529Y-39500500D01*
X60275500Y-39500500D01*
X60342539Y-39520185D01*
X60388294Y-39572989D01*
X60399500Y-39624500D01*
X60399500Y-40488000D01*
X60379815Y-40555039D01*
X60327011Y-40600794D01*
X60275500Y-40612000D01*
X55049499Y-40612000D01*
X54982460Y-40592315D01*
X54936705Y-40539511D01*
X54925499Y-40488000D01*
X54925499Y-40439629D01*
X54925498Y-40439623D01*
X54925497Y-40439616D01*
X54919091Y-40380017D01*
X54917837Y-40376656D01*
X54868797Y-40245171D01*
X54868793Y-40245164D01*
X54782547Y-40129955D01*
X54782544Y-40129952D01*
X54667335Y-40043706D01*
X54667328Y-40043702D01*
X54532482Y-39993408D01*
X54532483Y-39993408D01*
X54472883Y-39987001D01*
X54472881Y-39987000D01*
X54472873Y-39987000D01*
X54472864Y-39987000D01*
X52127129Y-39987000D01*
X52127123Y-39987001D01*
X52067516Y-39993408D01*
X51932671Y-40043702D01*
X51932664Y-40043706D01*
X51817455Y-40129952D01*
X51817452Y-40129955D01*
X51731206Y-40245164D01*
X51731202Y-40245171D01*
X51680908Y-40380017D01*
X51674702Y-40437749D01*
X51674501Y-40439623D01*
X51674500Y-40439635D01*
X49000500Y-40439635D01*
X49000500Y-36612500D01*
X51669975Y-36612500D01*
X51690042Y-36867489D01*
X51749752Y-37116202D01*
X51847634Y-37352512D01*
X51847636Y-37352515D01*
X51981277Y-37570598D01*
X51981284Y-37570607D01*
X51984533Y-37574412D01*
X52622421Y-36936524D01*
X52635359Y-36967758D01*
X52717437Y-37090597D01*
X52821903Y-37195063D01*
X52944742Y-37277141D01*
X52975974Y-37290078D01*
X52338087Y-37927965D01*
X52341897Y-37931219D01*
X52559984Y-38064863D01*
X52559987Y-38064865D01*
X52796297Y-38162747D01*
X53045011Y-38222457D01*
X53045010Y-38222457D01*
X53300000Y-38242524D01*
X53554989Y-38222457D01*
X53803702Y-38162747D01*
X54040012Y-38064865D01*
X54040015Y-38064863D01*
X54258095Y-37931224D01*
X54258110Y-37931213D01*
X54261911Y-37927966D01*
X54261911Y-37927964D01*
X53624025Y-37290077D01*
X53655258Y-37277141D01*
X53778097Y-37195063D01*
X53882563Y-37090597D01*
X53964641Y-36967758D01*
X53977578Y-36936525D01*
X54615464Y-37574411D01*
X54615466Y-37574411D01*
X54618713Y-37570610D01*
X54618724Y-37570595D01*
X54752363Y-37352515D01*
X54752365Y-37352512D01*
X54850247Y-37116202D01*
X54909957Y-36867489D01*
X54919071Y-36751677D01*
X58825000Y-36751677D01*
X58825000Y-36775000D01*
X59550000Y-36775000D01*
X59550000Y-36075000D01*
X59549999Y-36074999D01*
X59501693Y-36075000D01*
X59501675Y-36075001D01*
X59402392Y-36085144D01*
X59241518Y-36138452D01*
X59241507Y-36138457D01*
X59097271Y-36227424D01*
X59097267Y-36227427D01*
X58977427Y-36347267D01*
X58977424Y-36347271D01*
X58888457Y-36491507D01*
X58888452Y-36491518D01*
X58835144Y-36652393D01*
X58825000Y-36751677D01*
X54919071Y-36751677D01*
X54930024Y-36612500D01*
X54909957Y-36357510D01*
X54850247Y-36108797D01*
X54752365Y-35872487D01*
X54752363Y-35872484D01*
X54618719Y-35654397D01*
X54615465Y-35650587D01*
X53977578Y-36288474D01*
X53964641Y-36257242D01*
X53882563Y-36134403D01*
X53778097Y-36029937D01*
X53655258Y-35947859D01*
X53624024Y-35934921D01*
X54261912Y-35297033D01*
X54258107Y-35293784D01*
X54258098Y-35293777D01*
X54040015Y-35160136D01*
X54040012Y-35160134D01*
X53803702Y-35062252D01*
X53554988Y-35002542D01*
X53554989Y-35002542D01*
X53300000Y-34982475D01*
X53045010Y-35002542D01*
X52796297Y-35062252D01*
X52559987Y-35160134D01*
X52559984Y-35160136D01*
X52341893Y-35293782D01*
X52338086Y-35297032D01*
X52975975Y-35934921D01*
X52944742Y-35947859D01*
X52821903Y-36029937D01*
X52717437Y-36134403D01*
X52635359Y-36257242D01*
X52622421Y-36288475D01*
X51984532Y-35650586D01*
X51981282Y-35654393D01*
X51847636Y-35872484D01*
X51847634Y-35872487D01*
X51749752Y-36108797D01*
X51690042Y-36357510D01*
X51669975Y-36612500D01*
X49000500Y-36612500D01*
X49000500Y-26978711D01*
X51149500Y-26978711D01*
X51149500Y-27221288D01*
X51181161Y-27461785D01*
X51243947Y-27696104D01*
X51296055Y-27821903D01*
X51336776Y-27920212D01*
X51458064Y-28130289D01*
X51458066Y-28130292D01*
X51458067Y-28130293D01*
X51605733Y-28322736D01*
X51605739Y-28322743D01*
X51777256Y-28494260D01*
X51777263Y-28494266D01*
X51845852Y-28546896D01*
X51969711Y-28641936D01*
X52179788Y-28763224D01*
X52403900Y-28856054D01*
X52638211Y-28918838D01*
X52799069Y-28940015D01*
X52878711Y-28950500D01*
X52878712Y-28950500D01*
X53121289Y-28950500D01*
X53169388Y-28944167D01*
X53361789Y-28918838D01*
X53596100Y-28856054D01*
X53820212Y-28763224D01*
X54030289Y-28641936D01*
X54222738Y-28494265D01*
X54394265Y-28322738D01*
X54541936Y-28130289D01*
X54663224Y-27920212D01*
X54756054Y-27696100D01*
X54818838Y-27461789D01*
X54850500Y-27221288D01*
X54850500Y-26978712D01*
X54818838Y-26738211D01*
X54756054Y-26503900D01*
X54663224Y-26279788D01*
X54541936Y-26069711D01*
X54394265Y-25877262D01*
X54394260Y-25877256D01*
X54222743Y-25705739D01*
X54222736Y-25705733D01*
X54030293Y-25558067D01*
X54030292Y-25558066D01*
X54030289Y-25558064D01*
X53820212Y-25436776D01*
X53820205Y-25436773D01*
X53596104Y-25343947D01*
X53361785Y-25281161D01*
X53121289Y-25249500D01*
X53121288Y-25249500D01*
X52878712Y-25249500D01*
X52878711Y-25249500D01*
X52638214Y-25281161D01*
X52403895Y-25343947D01*
X52179794Y-25436773D01*
X52179785Y-25436777D01*
X51969706Y-25558067D01*
X51777263Y-25705733D01*
X51777256Y-25705739D01*
X51605739Y-25877256D01*
X51605733Y-25877263D01*
X51458067Y-26069706D01*
X51336777Y-26279785D01*
X51336773Y-26279794D01*
X51243947Y-26503895D01*
X51181161Y-26738214D01*
X51149500Y-26978711D01*
X49000500Y-26978711D01*
X49000500Y-23624500D01*
X49020185Y-23557461D01*
X49072989Y-23511706D01*
X49124500Y-23500500D01*
X121875500Y-23500500D01*
X121942539Y-23520185D01*
G37*
%TD.AperFunction*%
%TD*%
M02*
