%TF.GenerationSoftware,KiCad,Pcbnew,8.0.2*%
%TF.CreationDate,2024-07-10T14:47:37-04:00*%
%TF.ProjectId,Low-Power_PDP,4c6f772d-506f-4776-9572-5f5044502e6b,rev?*%
%TF.SameCoordinates,Original*%
%TF.FileFunction,Legend,Top*%
%TF.FilePolarity,Positive*%
%FSLAX46Y46*%
G04 Gerber Fmt 4.6, Leading zero omitted, Abs format (unit mm)*
G04 Created by KiCad (PCBNEW 8.0.2) date 2024-07-10 14:47:37*
%MOMM*%
%LPD*%
G01*
G04 APERTURE LIST*
%ADD10C,0.250000*%
%ADD11C,0.300000*%
%ADD12C,0.150000*%
%ADD13C,0.127000*%
%ADD14C,0.200000*%
%ADD15C,0.120000*%
%ADD16C,0.152400*%
%ADD17C,0.508000*%
G04 APERTURE END LIST*
D10*
X66026377Y-25212238D02*
X65931139Y-25164619D01*
X65931139Y-25164619D02*
X65788282Y-25164619D01*
X65788282Y-25164619D02*
X65645425Y-25212238D01*
X65645425Y-25212238D02*
X65550187Y-25307476D01*
X65550187Y-25307476D02*
X65502568Y-25402714D01*
X65502568Y-25402714D02*
X65454949Y-25593190D01*
X65454949Y-25593190D02*
X65454949Y-25736047D01*
X65454949Y-25736047D02*
X65502568Y-25926523D01*
X65502568Y-25926523D02*
X65550187Y-26021761D01*
X65550187Y-26021761D02*
X65645425Y-26117000D01*
X65645425Y-26117000D02*
X65788282Y-26164619D01*
X65788282Y-26164619D02*
X65883520Y-26164619D01*
X65883520Y-26164619D02*
X66026377Y-26117000D01*
X66026377Y-26117000D02*
X66073996Y-26069380D01*
X66073996Y-26069380D02*
X66073996Y-25736047D01*
X66073996Y-25736047D02*
X65883520Y-25736047D01*
X66502568Y-26164619D02*
X66502568Y-25164619D01*
X66502568Y-25164619D02*
X67073996Y-26164619D01*
X67073996Y-26164619D02*
X67073996Y-25164619D01*
X67550187Y-26164619D02*
X67550187Y-25164619D01*
X67550187Y-25164619D02*
X67788282Y-25164619D01*
X67788282Y-25164619D02*
X67931139Y-25212238D01*
X67931139Y-25212238D02*
X68026377Y-25307476D01*
X68026377Y-25307476D02*
X68073996Y-25402714D01*
X68073996Y-25402714D02*
X68121615Y-25593190D01*
X68121615Y-25593190D02*
X68121615Y-25736047D01*
X68121615Y-25736047D02*
X68073996Y-25926523D01*
X68073996Y-25926523D02*
X68026377Y-26021761D01*
X68026377Y-26021761D02*
X67931139Y-26117000D01*
X67931139Y-26117000D02*
X67788282Y-26164619D01*
X67788282Y-26164619D02*
X67550187Y-26164619D01*
X60259711Y-25164619D02*
X60593044Y-26164619D01*
X60593044Y-26164619D02*
X60926377Y-25164619D01*
X61259711Y-26164619D02*
X61259711Y-25497952D01*
X61259711Y-25164619D02*
X61212092Y-25212238D01*
X61212092Y-25212238D02*
X61259711Y-25259857D01*
X61259711Y-25259857D02*
X61307330Y-25212238D01*
X61307330Y-25212238D02*
X61259711Y-25164619D01*
X61259711Y-25164619D02*
X61259711Y-25259857D01*
X61735901Y-25497952D02*
X61735901Y-26164619D01*
X61735901Y-25593190D02*
X61783520Y-25545571D01*
X61783520Y-25545571D02*
X61878758Y-25497952D01*
X61878758Y-25497952D02*
X62021615Y-25497952D01*
X62021615Y-25497952D02*
X62116853Y-25545571D01*
X62116853Y-25545571D02*
X62164472Y-25640809D01*
X62164472Y-25640809D02*
X62164472Y-26164619D01*
X77459711Y-24964619D02*
X77793044Y-25964619D01*
X77793044Y-25964619D02*
X78126377Y-24964619D01*
X78459711Y-25964619D02*
X78459711Y-25297952D01*
X78459711Y-24964619D02*
X78412092Y-25012238D01*
X78412092Y-25012238D02*
X78459711Y-25059857D01*
X78459711Y-25059857D02*
X78507330Y-25012238D01*
X78507330Y-25012238D02*
X78459711Y-24964619D01*
X78459711Y-24964619D02*
X78459711Y-25059857D01*
X78935901Y-25297952D02*
X78935901Y-25964619D01*
X78935901Y-25393190D02*
X78983520Y-25345571D01*
X78983520Y-25345571D02*
X79078758Y-25297952D01*
X79078758Y-25297952D02*
X79221615Y-25297952D01*
X79221615Y-25297952D02*
X79316853Y-25345571D01*
X79316853Y-25345571D02*
X79364472Y-25440809D01*
X79364472Y-25440809D02*
X79364472Y-25964619D01*
X49864619Y-52640288D02*
X50864619Y-52306955D01*
X50864619Y-52306955D02*
X49864619Y-51973622D01*
X50864619Y-51640288D02*
X50197952Y-51640288D01*
X49864619Y-51640288D02*
X49912238Y-51687907D01*
X49912238Y-51687907D02*
X49959857Y-51640288D01*
X49959857Y-51640288D02*
X49912238Y-51592669D01*
X49912238Y-51592669D02*
X49864619Y-51640288D01*
X49864619Y-51640288D02*
X49959857Y-51640288D01*
X50197952Y-51164098D02*
X50864619Y-51164098D01*
X50293190Y-51164098D02*
X50245571Y-51116479D01*
X50245571Y-51116479D02*
X50197952Y-51021241D01*
X50197952Y-51021241D02*
X50197952Y-50878384D01*
X50197952Y-50878384D02*
X50245571Y-50783146D01*
X50245571Y-50783146D02*
X50340809Y-50735527D01*
X50340809Y-50735527D02*
X50864619Y-50735527D01*
X119235380Y-54759711D02*
X118235380Y-55093044D01*
X118235380Y-55093044D02*
X119235380Y-55426377D01*
X118235380Y-55759711D02*
X118902047Y-55759711D01*
X119235380Y-55759711D02*
X119187761Y-55712092D01*
X119187761Y-55712092D02*
X119140142Y-55759711D01*
X119140142Y-55759711D02*
X119187761Y-55807330D01*
X119187761Y-55807330D02*
X119235380Y-55759711D01*
X119235380Y-55759711D02*
X119140142Y-55759711D01*
X118902047Y-56235901D02*
X118235380Y-56235901D01*
X118806809Y-56235901D02*
X118854428Y-56283520D01*
X118854428Y-56283520D02*
X118902047Y-56378758D01*
X118902047Y-56378758D02*
X118902047Y-56521615D01*
X118902047Y-56521615D02*
X118854428Y-56616853D01*
X118854428Y-56616853D02*
X118759190Y-56664472D01*
X118759190Y-56664472D02*
X118235380Y-56664472D01*
X109826377Y-25012238D02*
X109731139Y-24964619D01*
X109731139Y-24964619D02*
X109588282Y-24964619D01*
X109588282Y-24964619D02*
X109445425Y-25012238D01*
X109445425Y-25012238D02*
X109350187Y-25107476D01*
X109350187Y-25107476D02*
X109302568Y-25202714D01*
X109302568Y-25202714D02*
X109254949Y-25393190D01*
X109254949Y-25393190D02*
X109254949Y-25536047D01*
X109254949Y-25536047D02*
X109302568Y-25726523D01*
X109302568Y-25726523D02*
X109350187Y-25821761D01*
X109350187Y-25821761D02*
X109445425Y-25917000D01*
X109445425Y-25917000D02*
X109588282Y-25964619D01*
X109588282Y-25964619D02*
X109683520Y-25964619D01*
X109683520Y-25964619D02*
X109826377Y-25917000D01*
X109826377Y-25917000D02*
X109873996Y-25869380D01*
X109873996Y-25869380D02*
X109873996Y-25536047D01*
X109873996Y-25536047D02*
X109683520Y-25536047D01*
X110302568Y-25964619D02*
X110302568Y-24964619D01*
X110302568Y-24964619D02*
X110873996Y-25964619D01*
X110873996Y-25964619D02*
X110873996Y-24964619D01*
X111350187Y-25964619D02*
X111350187Y-24964619D01*
X111350187Y-24964619D02*
X111588282Y-24964619D01*
X111588282Y-24964619D02*
X111731139Y-25012238D01*
X111731139Y-25012238D02*
X111826377Y-25107476D01*
X111826377Y-25107476D02*
X111873996Y-25202714D01*
X111873996Y-25202714D02*
X111921615Y-25393190D01*
X111921615Y-25393190D02*
X111921615Y-25536047D01*
X111921615Y-25536047D02*
X111873996Y-25726523D01*
X111873996Y-25726523D02*
X111826377Y-25821761D01*
X111826377Y-25821761D02*
X111731139Y-25917000D01*
X111731139Y-25917000D02*
X111588282Y-25964619D01*
X111588282Y-25964619D02*
X111350187Y-25964619D01*
X104359711Y-24664619D02*
X104693044Y-25664619D01*
X104693044Y-25664619D02*
X105026377Y-24664619D01*
X105359711Y-25664619D02*
X105359711Y-24997952D01*
X105359711Y-24664619D02*
X105312092Y-24712238D01*
X105312092Y-24712238D02*
X105359711Y-24759857D01*
X105359711Y-24759857D02*
X105407330Y-24712238D01*
X105407330Y-24712238D02*
X105359711Y-24664619D01*
X105359711Y-24664619D02*
X105359711Y-24759857D01*
X105835901Y-24997952D02*
X105835901Y-25664619D01*
X105835901Y-25093190D02*
X105883520Y-25045571D01*
X105883520Y-25045571D02*
X105978758Y-24997952D01*
X105978758Y-24997952D02*
X106121615Y-24997952D01*
X106121615Y-24997952D02*
X106216853Y-25045571D01*
X106216853Y-25045571D02*
X106264472Y-25140809D01*
X106264472Y-25140809D02*
X106264472Y-25664619D01*
X49864619Y-42640288D02*
X50864619Y-42306955D01*
X50864619Y-42306955D02*
X49864619Y-41973622D01*
X50864619Y-41640288D02*
X50197952Y-41640288D01*
X49864619Y-41640288D02*
X49912238Y-41687907D01*
X49912238Y-41687907D02*
X49959857Y-41640288D01*
X49959857Y-41640288D02*
X49912238Y-41592669D01*
X49912238Y-41592669D02*
X49864619Y-41640288D01*
X49864619Y-41640288D02*
X49959857Y-41640288D01*
X50197952Y-41164098D02*
X50864619Y-41164098D01*
X50293190Y-41164098D02*
X50245571Y-41116479D01*
X50245571Y-41116479D02*
X50197952Y-41021241D01*
X50197952Y-41021241D02*
X50197952Y-40878384D01*
X50197952Y-40878384D02*
X50245571Y-40783146D01*
X50245571Y-40783146D02*
X50340809Y-40735527D01*
X50340809Y-40735527D02*
X50864619Y-40735527D01*
X119135380Y-40159711D02*
X118135380Y-40493044D01*
X118135380Y-40493044D02*
X119135380Y-40826377D01*
X118135380Y-41159711D02*
X118802047Y-41159711D01*
X119135380Y-41159711D02*
X119087761Y-41112092D01*
X119087761Y-41112092D02*
X119040142Y-41159711D01*
X119040142Y-41159711D02*
X119087761Y-41207330D01*
X119087761Y-41207330D02*
X119135380Y-41159711D01*
X119135380Y-41159711D02*
X119040142Y-41159711D01*
X118802047Y-41635901D02*
X118135380Y-41635901D01*
X118706809Y-41635901D02*
X118754428Y-41683520D01*
X118754428Y-41683520D02*
X118802047Y-41778758D01*
X118802047Y-41778758D02*
X118802047Y-41921615D01*
X118802047Y-41921615D02*
X118754428Y-42016853D01*
X118754428Y-42016853D02*
X118659190Y-42064472D01*
X118659190Y-42064472D02*
X118135380Y-42064472D01*
X119087761Y-35526377D02*
X119135380Y-35431139D01*
X119135380Y-35431139D02*
X119135380Y-35288282D01*
X119135380Y-35288282D02*
X119087761Y-35145425D01*
X119087761Y-35145425D02*
X118992523Y-35050187D01*
X118992523Y-35050187D02*
X118897285Y-35002568D01*
X118897285Y-35002568D02*
X118706809Y-34954949D01*
X118706809Y-34954949D02*
X118563952Y-34954949D01*
X118563952Y-34954949D02*
X118373476Y-35002568D01*
X118373476Y-35002568D02*
X118278238Y-35050187D01*
X118278238Y-35050187D02*
X118183000Y-35145425D01*
X118183000Y-35145425D02*
X118135380Y-35288282D01*
X118135380Y-35288282D02*
X118135380Y-35383520D01*
X118135380Y-35383520D02*
X118183000Y-35526377D01*
X118183000Y-35526377D02*
X118230619Y-35573996D01*
X118230619Y-35573996D02*
X118563952Y-35573996D01*
X118563952Y-35573996D02*
X118563952Y-35383520D01*
X118135380Y-36002568D02*
X119135380Y-36002568D01*
X119135380Y-36002568D02*
X118135380Y-36573996D01*
X118135380Y-36573996D02*
X119135380Y-36573996D01*
X118135380Y-37050187D02*
X119135380Y-37050187D01*
X119135380Y-37050187D02*
X119135380Y-37288282D01*
X119135380Y-37288282D02*
X119087761Y-37431139D01*
X119087761Y-37431139D02*
X118992523Y-37526377D01*
X118992523Y-37526377D02*
X118897285Y-37573996D01*
X118897285Y-37573996D02*
X118706809Y-37621615D01*
X118706809Y-37621615D02*
X118563952Y-37621615D01*
X118563952Y-37621615D02*
X118373476Y-37573996D01*
X118373476Y-37573996D02*
X118278238Y-37526377D01*
X118278238Y-37526377D02*
X118183000Y-37431139D01*
X118183000Y-37431139D02*
X118135380Y-37288282D01*
X118135380Y-37288282D02*
X118135380Y-37050187D01*
X91159711Y-24764619D02*
X91493044Y-25764619D01*
X91493044Y-25764619D02*
X91826377Y-24764619D01*
X92159711Y-25764619D02*
X92159711Y-25097952D01*
X92159711Y-24764619D02*
X92112092Y-24812238D01*
X92112092Y-24812238D02*
X92159711Y-24859857D01*
X92159711Y-24859857D02*
X92207330Y-24812238D01*
X92207330Y-24812238D02*
X92159711Y-24764619D01*
X92159711Y-24764619D02*
X92159711Y-24859857D01*
X92635901Y-25097952D02*
X92635901Y-25764619D01*
X92635901Y-25193190D02*
X92683520Y-25145571D01*
X92683520Y-25145571D02*
X92778758Y-25097952D01*
X92778758Y-25097952D02*
X92921615Y-25097952D01*
X92921615Y-25097952D02*
X93016853Y-25145571D01*
X93016853Y-25145571D02*
X93064472Y-25240809D01*
X93064472Y-25240809D02*
X93064472Y-25764619D01*
X49912238Y-37273622D02*
X49864619Y-37368860D01*
X49864619Y-37368860D02*
X49864619Y-37511717D01*
X49864619Y-37511717D02*
X49912238Y-37654574D01*
X49912238Y-37654574D02*
X50007476Y-37749812D01*
X50007476Y-37749812D02*
X50102714Y-37797431D01*
X50102714Y-37797431D02*
X50293190Y-37845050D01*
X50293190Y-37845050D02*
X50436047Y-37845050D01*
X50436047Y-37845050D02*
X50626523Y-37797431D01*
X50626523Y-37797431D02*
X50721761Y-37749812D01*
X50721761Y-37749812D02*
X50817000Y-37654574D01*
X50817000Y-37654574D02*
X50864619Y-37511717D01*
X50864619Y-37511717D02*
X50864619Y-37416479D01*
X50864619Y-37416479D02*
X50817000Y-37273622D01*
X50817000Y-37273622D02*
X50769380Y-37226003D01*
X50769380Y-37226003D02*
X50436047Y-37226003D01*
X50436047Y-37226003D02*
X50436047Y-37416479D01*
X50864619Y-36797431D02*
X49864619Y-36797431D01*
X49864619Y-36797431D02*
X50864619Y-36226003D01*
X50864619Y-36226003D02*
X49864619Y-36226003D01*
X50864619Y-35749812D02*
X49864619Y-35749812D01*
X49864619Y-35749812D02*
X49864619Y-35511717D01*
X49864619Y-35511717D02*
X49912238Y-35368860D01*
X49912238Y-35368860D02*
X50007476Y-35273622D01*
X50007476Y-35273622D02*
X50102714Y-35226003D01*
X50102714Y-35226003D02*
X50293190Y-35178384D01*
X50293190Y-35178384D02*
X50436047Y-35178384D01*
X50436047Y-35178384D02*
X50626523Y-35226003D01*
X50626523Y-35226003D02*
X50721761Y-35273622D01*
X50721761Y-35273622D02*
X50817000Y-35368860D01*
X50817000Y-35368860D02*
X50864619Y-35511717D01*
X50864619Y-35511717D02*
X50864619Y-35749812D01*
X119087761Y-49926377D02*
X119135380Y-49831139D01*
X119135380Y-49831139D02*
X119135380Y-49688282D01*
X119135380Y-49688282D02*
X119087761Y-49545425D01*
X119087761Y-49545425D02*
X118992523Y-49450187D01*
X118992523Y-49450187D02*
X118897285Y-49402568D01*
X118897285Y-49402568D02*
X118706809Y-49354949D01*
X118706809Y-49354949D02*
X118563952Y-49354949D01*
X118563952Y-49354949D02*
X118373476Y-49402568D01*
X118373476Y-49402568D02*
X118278238Y-49450187D01*
X118278238Y-49450187D02*
X118183000Y-49545425D01*
X118183000Y-49545425D02*
X118135380Y-49688282D01*
X118135380Y-49688282D02*
X118135380Y-49783520D01*
X118135380Y-49783520D02*
X118183000Y-49926377D01*
X118183000Y-49926377D02*
X118230619Y-49973996D01*
X118230619Y-49973996D02*
X118563952Y-49973996D01*
X118563952Y-49973996D02*
X118563952Y-49783520D01*
X118135380Y-50402568D02*
X119135380Y-50402568D01*
X119135380Y-50402568D02*
X118135380Y-50973996D01*
X118135380Y-50973996D02*
X119135380Y-50973996D01*
X118135380Y-51450187D02*
X119135380Y-51450187D01*
X119135380Y-51450187D02*
X119135380Y-51688282D01*
X119135380Y-51688282D02*
X119087761Y-51831139D01*
X119087761Y-51831139D02*
X118992523Y-51926377D01*
X118992523Y-51926377D02*
X118897285Y-51973996D01*
X118897285Y-51973996D02*
X118706809Y-52021615D01*
X118706809Y-52021615D02*
X118563952Y-52021615D01*
X118563952Y-52021615D02*
X118373476Y-51973996D01*
X118373476Y-51973996D02*
X118278238Y-51926377D01*
X118278238Y-51926377D02*
X118183000Y-51831139D01*
X118183000Y-51831139D02*
X118135380Y-51688282D01*
X118135380Y-51688282D02*
X118135380Y-51450187D01*
X96826377Y-25012238D02*
X96731139Y-24964619D01*
X96731139Y-24964619D02*
X96588282Y-24964619D01*
X96588282Y-24964619D02*
X96445425Y-25012238D01*
X96445425Y-25012238D02*
X96350187Y-25107476D01*
X96350187Y-25107476D02*
X96302568Y-25202714D01*
X96302568Y-25202714D02*
X96254949Y-25393190D01*
X96254949Y-25393190D02*
X96254949Y-25536047D01*
X96254949Y-25536047D02*
X96302568Y-25726523D01*
X96302568Y-25726523D02*
X96350187Y-25821761D01*
X96350187Y-25821761D02*
X96445425Y-25917000D01*
X96445425Y-25917000D02*
X96588282Y-25964619D01*
X96588282Y-25964619D02*
X96683520Y-25964619D01*
X96683520Y-25964619D02*
X96826377Y-25917000D01*
X96826377Y-25917000D02*
X96873996Y-25869380D01*
X96873996Y-25869380D02*
X96873996Y-25536047D01*
X96873996Y-25536047D02*
X96683520Y-25536047D01*
X97302568Y-25964619D02*
X97302568Y-24964619D01*
X97302568Y-24964619D02*
X97873996Y-25964619D01*
X97873996Y-25964619D02*
X97873996Y-24964619D01*
X98350187Y-25964619D02*
X98350187Y-24964619D01*
X98350187Y-24964619D02*
X98588282Y-24964619D01*
X98588282Y-24964619D02*
X98731139Y-25012238D01*
X98731139Y-25012238D02*
X98826377Y-25107476D01*
X98826377Y-25107476D02*
X98873996Y-25202714D01*
X98873996Y-25202714D02*
X98921615Y-25393190D01*
X98921615Y-25393190D02*
X98921615Y-25536047D01*
X98921615Y-25536047D02*
X98873996Y-25726523D01*
X98873996Y-25726523D02*
X98826377Y-25821761D01*
X98826377Y-25821761D02*
X98731139Y-25917000D01*
X98731139Y-25917000D02*
X98588282Y-25964619D01*
X98588282Y-25964619D02*
X98350187Y-25964619D01*
X83126377Y-25112238D02*
X83031139Y-25064619D01*
X83031139Y-25064619D02*
X82888282Y-25064619D01*
X82888282Y-25064619D02*
X82745425Y-25112238D01*
X82745425Y-25112238D02*
X82650187Y-25207476D01*
X82650187Y-25207476D02*
X82602568Y-25302714D01*
X82602568Y-25302714D02*
X82554949Y-25493190D01*
X82554949Y-25493190D02*
X82554949Y-25636047D01*
X82554949Y-25636047D02*
X82602568Y-25826523D01*
X82602568Y-25826523D02*
X82650187Y-25921761D01*
X82650187Y-25921761D02*
X82745425Y-26017000D01*
X82745425Y-26017000D02*
X82888282Y-26064619D01*
X82888282Y-26064619D02*
X82983520Y-26064619D01*
X82983520Y-26064619D02*
X83126377Y-26017000D01*
X83126377Y-26017000D02*
X83173996Y-25969380D01*
X83173996Y-25969380D02*
X83173996Y-25636047D01*
X83173996Y-25636047D02*
X82983520Y-25636047D01*
X83602568Y-26064619D02*
X83602568Y-25064619D01*
X83602568Y-25064619D02*
X84173996Y-26064619D01*
X84173996Y-26064619D02*
X84173996Y-25064619D01*
X84650187Y-26064619D02*
X84650187Y-25064619D01*
X84650187Y-25064619D02*
X84888282Y-25064619D01*
X84888282Y-25064619D02*
X85031139Y-25112238D01*
X85031139Y-25112238D02*
X85126377Y-25207476D01*
X85126377Y-25207476D02*
X85173996Y-25302714D01*
X85173996Y-25302714D02*
X85221615Y-25493190D01*
X85221615Y-25493190D02*
X85221615Y-25636047D01*
X85221615Y-25636047D02*
X85173996Y-25826523D01*
X85173996Y-25826523D02*
X85126377Y-25921761D01*
X85126377Y-25921761D02*
X85031139Y-26017000D01*
X85031139Y-26017000D02*
X84888282Y-26064619D01*
X84888282Y-26064619D02*
X84650187Y-26064619D01*
X49812238Y-56373622D02*
X49764619Y-56468860D01*
X49764619Y-56468860D02*
X49764619Y-56611717D01*
X49764619Y-56611717D02*
X49812238Y-56754574D01*
X49812238Y-56754574D02*
X49907476Y-56849812D01*
X49907476Y-56849812D02*
X50002714Y-56897431D01*
X50002714Y-56897431D02*
X50193190Y-56945050D01*
X50193190Y-56945050D02*
X50336047Y-56945050D01*
X50336047Y-56945050D02*
X50526523Y-56897431D01*
X50526523Y-56897431D02*
X50621761Y-56849812D01*
X50621761Y-56849812D02*
X50717000Y-56754574D01*
X50717000Y-56754574D02*
X50764619Y-56611717D01*
X50764619Y-56611717D02*
X50764619Y-56516479D01*
X50764619Y-56516479D02*
X50717000Y-56373622D01*
X50717000Y-56373622D02*
X50669380Y-56326003D01*
X50669380Y-56326003D02*
X50336047Y-56326003D01*
X50336047Y-56326003D02*
X50336047Y-56516479D01*
X50764619Y-55897431D02*
X49764619Y-55897431D01*
X49764619Y-55897431D02*
X50764619Y-55326003D01*
X50764619Y-55326003D02*
X49764619Y-55326003D01*
X50764619Y-54849812D02*
X49764619Y-54849812D01*
X49764619Y-54849812D02*
X49764619Y-54611717D01*
X49764619Y-54611717D02*
X49812238Y-54468860D01*
X49812238Y-54468860D02*
X49907476Y-54373622D01*
X49907476Y-54373622D02*
X50002714Y-54326003D01*
X50002714Y-54326003D02*
X50193190Y-54278384D01*
X50193190Y-54278384D02*
X50336047Y-54278384D01*
X50336047Y-54278384D02*
X50526523Y-54326003D01*
X50526523Y-54326003D02*
X50621761Y-54373622D01*
X50621761Y-54373622D02*
X50717000Y-54468860D01*
X50717000Y-54468860D02*
X50764619Y-54611717D01*
X50764619Y-54611717D02*
X50764619Y-54849812D01*
D11*
X77300828Y-66545489D02*
X75800828Y-66545489D01*
X75800828Y-66545489D02*
X75800828Y-65974060D01*
X75800828Y-65974060D02*
X75872257Y-65831203D01*
X75872257Y-65831203D02*
X75943685Y-65759774D01*
X75943685Y-65759774D02*
X76086542Y-65688346D01*
X76086542Y-65688346D02*
X76300828Y-65688346D01*
X76300828Y-65688346D02*
X76443685Y-65759774D01*
X76443685Y-65759774D02*
X76515114Y-65831203D01*
X76515114Y-65831203D02*
X76586542Y-65974060D01*
X76586542Y-65974060D02*
X76586542Y-66545489D01*
X75800828Y-65188346D02*
X77300828Y-64831203D01*
X77300828Y-64831203D02*
X76229400Y-64545489D01*
X76229400Y-64545489D02*
X77300828Y-64259774D01*
X77300828Y-64259774D02*
X75800828Y-63902632D01*
X77300828Y-62474060D02*
X76586542Y-62974060D01*
X77300828Y-63331203D02*
X75800828Y-63331203D01*
X75800828Y-63331203D02*
X75800828Y-62759774D01*
X75800828Y-62759774D02*
X75872257Y-62616917D01*
X75872257Y-62616917D02*
X75943685Y-62545488D01*
X75943685Y-62545488D02*
X76086542Y-62474060D01*
X76086542Y-62474060D02*
X76300828Y-62474060D01*
X76300828Y-62474060D02*
X76443685Y-62545488D01*
X76443685Y-62545488D02*
X76515114Y-62616917D01*
X76515114Y-62616917D02*
X76586542Y-62759774D01*
X76586542Y-62759774D02*
X76586542Y-63331203D01*
X93127742Y-63540225D02*
X93199171Y-63397368D01*
X93199171Y-63397368D02*
X93199171Y-63183082D01*
X93199171Y-63183082D02*
X93127742Y-62968796D01*
X93127742Y-62968796D02*
X92984885Y-62825939D01*
X92984885Y-62825939D02*
X92842028Y-62754510D01*
X92842028Y-62754510D02*
X92556314Y-62683082D01*
X92556314Y-62683082D02*
X92342028Y-62683082D01*
X92342028Y-62683082D02*
X92056314Y-62754510D01*
X92056314Y-62754510D02*
X91913457Y-62825939D01*
X91913457Y-62825939D02*
X91770600Y-62968796D01*
X91770600Y-62968796D02*
X91699171Y-63183082D01*
X91699171Y-63183082D02*
X91699171Y-63325939D01*
X91699171Y-63325939D02*
X91770600Y-63540225D01*
X91770600Y-63540225D02*
X91842028Y-63611653D01*
X91842028Y-63611653D02*
X92342028Y-63611653D01*
X92342028Y-63611653D02*
X92342028Y-63325939D01*
X91699171Y-64254510D02*
X93199171Y-64254510D01*
X93199171Y-64254510D02*
X91699171Y-65111653D01*
X91699171Y-65111653D02*
X93199171Y-65111653D01*
X91699171Y-65825939D02*
X93199171Y-65825939D01*
X93199171Y-65825939D02*
X93199171Y-66183082D01*
X93199171Y-66183082D02*
X93127742Y-66397368D01*
X93127742Y-66397368D02*
X92984885Y-66540225D01*
X92984885Y-66540225D02*
X92842028Y-66611654D01*
X92842028Y-66611654D02*
X92556314Y-66683082D01*
X92556314Y-66683082D02*
X92342028Y-66683082D01*
X92342028Y-66683082D02*
X92056314Y-66611654D01*
X92056314Y-66611654D02*
X91913457Y-66540225D01*
X91913457Y-66540225D02*
X91770600Y-66397368D01*
X91770600Y-66397368D02*
X91699171Y-66183082D01*
X91699171Y-66183082D02*
X91699171Y-65825939D01*
D12*
X80966666Y-30254819D02*
X80966666Y-30969104D01*
X80966666Y-30969104D02*
X80919047Y-31111961D01*
X80919047Y-31111961D02*
X80823809Y-31207200D01*
X80823809Y-31207200D02*
X80680952Y-31254819D01*
X80680952Y-31254819D02*
X80585714Y-31254819D01*
X81347619Y-30254819D02*
X81966666Y-30254819D01*
X81966666Y-30254819D02*
X81633333Y-30635771D01*
X81633333Y-30635771D02*
X81776190Y-30635771D01*
X81776190Y-30635771D02*
X81871428Y-30683390D01*
X81871428Y-30683390D02*
X81919047Y-30731009D01*
X81919047Y-30731009D02*
X81966666Y-30826247D01*
X81966666Y-30826247D02*
X81966666Y-31064342D01*
X81966666Y-31064342D02*
X81919047Y-31159580D01*
X81919047Y-31159580D02*
X81871428Y-31207200D01*
X81871428Y-31207200D02*
X81776190Y-31254819D01*
X81776190Y-31254819D02*
X81490476Y-31254819D01*
X81490476Y-31254819D02*
X81395238Y-31207200D01*
X81395238Y-31207200D02*
X81347619Y-31159580D01*
X96089580Y-34066666D02*
X96137200Y-34114285D01*
X96137200Y-34114285D02*
X96184819Y-34257142D01*
X96184819Y-34257142D02*
X96184819Y-34352380D01*
X96184819Y-34352380D02*
X96137200Y-34495237D01*
X96137200Y-34495237D02*
X96041961Y-34590475D01*
X96041961Y-34590475D02*
X95946723Y-34638094D01*
X95946723Y-34638094D02*
X95756247Y-34685713D01*
X95756247Y-34685713D02*
X95613390Y-34685713D01*
X95613390Y-34685713D02*
X95422914Y-34638094D01*
X95422914Y-34638094D02*
X95327676Y-34590475D01*
X95327676Y-34590475D02*
X95232438Y-34495237D01*
X95232438Y-34495237D02*
X95184819Y-34352380D01*
X95184819Y-34352380D02*
X95184819Y-34257142D01*
X95184819Y-34257142D02*
X95232438Y-34114285D01*
X95232438Y-34114285D02*
X95280057Y-34066666D01*
X95184819Y-33209523D02*
X95184819Y-33399999D01*
X95184819Y-33399999D02*
X95232438Y-33495237D01*
X95232438Y-33495237D02*
X95280057Y-33542856D01*
X95280057Y-33542856D02*
X95422914Y-33638094D01*
X95422914Y-33638094D02*
X95613390Y-33685713D01*
X95613390Y-33685713D02*
X95994342Y-33685713D01*
X95994342Y-33685713D02*
X96089580Y-33638094D01*
X96089580Y-33638094D02*
X96137200Y-33590475D01*
X96137200Y-33590475D02*
X96184819Y-33495237D01*
X96184819Y-33495237D02*
X96184819Y-33304761D01*
X96184819Y-33304761D02*
X96137200Y-33209523D01*
X96137200Y-33209523D02*
X96089580Y-33161904D01*
X96089580Y-33161904D02*
X95994342Y-33114285D01*
X95994342Y-33114285D02*
X95756247Y-33114285D01*
X95756247Y-33114285D02*
X95661009Y-33161904D01*
X95661009Y-33161904D02*
X95613390Y-33209523D01*
X95613390Y-33209523D02*
X95565771Y-33304761D01*
X95565771Y-33304761D02*
X95565771Y-33495237D01*
X95565771Y-33495237D02*
X95613390Y-33590475D01*
X95613390Y-33590475D02*
X95661009Y-33638094D01*
X95661009Y-33638094D02*
X95756247Y-33685713D01*
X83559580Y-40266666D02*
X83607200Y-40314285D01*
X83607200Y-40314285D02*
X83654819Y-40457142D01*
X83654819Y-40457142D02*
X83654819Y-40552380D01*
X83654819Y-40552380D02*
X83607200Y-40695237D01*
X83607200Y-40695237D02*
X83511961Y-40790475D01*
X83511961Y-40790475D02*
X83416723Y-40838094D01*
X83416723Y-40838094D02*
X83226247Y-40885713D01*
X83226247Y-40885713D02*
X83083390Y-40885713D01*
X83083390Y-40885713D02*
X82892914Y-40838094D01*
X82892914Y-40838094D02*
X82797676Y-40790475D01*
X82797676Y-40790475D02*
X82702438Y-40695237D01*
X82702438Y-40695237D02*
X82654819Y-40552380D01*
X82654819Y-40552380D02*
X82654819Y-40457142D01*
X82654819Y-40457142D02*
X82702438Y-40314285D01*
X82702438Y-40314285D02*
X82750057Y-40266666D01*
X82988152Y-39409523D02*
X83654819Y-39409523D01*
X82607200Y-39647618D02*
X83321485Y-39885713D01*
X83321485Y-39885713D02*
X83321485Y-39266666D01*
X55254819Y-39533333D02*
X55969104Y-39533333D01*
X55969104Y-39533333D02*
X56111961Y-39580952D01*
X56111961Y-39580952D02*
X56207200Y-39676190D01*
X56207200Y-39676190D02*
X56254819Y-39819047D01*
X56254819Y-39819047D02*
X56254819Y-39914285D01*
X55254819Y-39152380D02*
X55254819Y-38485714D01*
X55254819Y-38485714D02*
X56254819Y-38914285D01*
X79359580Y-36966666D02*
X79407200Y-37014285D01*
X79407200Y-37014285D02*
X79454819Y-37157142D01*
X79454819Y-37157142D02*
X79454819Y-37252380D01*
X79454819Y-37252380D02*
X79407200Y-37395237D01*
X79407200Y-37395237D02*
X79311961Y-37490475D01*
X79311961Y-37490475D02*
X79216723Y-37538094D01*
X79216723Y-37538094D02*
X79026247Y-37585713D01*
X79026247Y-37585713D02*
X78883390Y-37585713D01*
X78883390Y-37585713D02*
X78692914Y-37538094D01*
X78692914Y-37538094D02*
X78597676Y-37490475D01*
X78597676Y-37490475D02*
X78502438Y-37395237D01*
X78502438Y-37395237D02*
X78454819Y-37252380D01*
X78454819Y-37252380D02*
X78454819Y-37157142D01*
X78454819Y-37157142D02*
X78502438Y-37014285D01*
X78502438Y-37014285D02*
X78550057Y-36966666D01*
X78454819Y-36061904D02*
X78454819Y-36538094D01*
X78454819Y-36538094D02*
X78931009Y-36585713D01*
X78931009Y-36585713D02*
X78883390Y-36538094D01*
X78883390Y-36538094D02*
X78835771Y-36442856D01*
X78835771Y-36442856D02*
X78835771Y-36204761D01*
X78835771Y-36204761D02*
X78883390Y-36109523D01*
X78883390Y-36109523D02*
X78931009Y-36061904D01*
X78931009Y-36061904D02*
X79026247Y-36014285D01*
X79026247Y-36014285D02*
X79264342Y-36014285D01*
X79264342Y-36014285D02*
X79359580Y-36061904D01*
X79359580Y-36061904D02*
X79407200Y-36109523D01*
X79407200Y-36109523D02*
X79454819Y-36204761D01*
X79454819Y-36204761D02*
X79454819Y-36442856D01*
X79454819Y-36442856D02*
X79407200Y-36538094D01*
X79407200Y-36538094D02*
X79359580Y-36585713D01*
X108366666Y-30654819D02*
X108366666Y-31369104D01*
X108366666Y-31369104D02*
X108319047Y-31511961D01*
X108319047Y-31511961D02*
X108223809Y-31607200D01*
X108223809Y-31607200D02*
X108080952Y-31654819D01*
X108080952Y-31654819D02*
X107985714Y-31654819D01*
X109319047Y-30654819D02*
X108842857Y-30654819D01*
X108842857Y-30654819D02*
X108795238Y-31131009D01*
X108795238Y-31131009D02*
X108842857Y-31083390D01*
X108842857Y-31083390D02*
X108938095Y-31035771D01*
X108938095Y-31035771D02*
X109176190Y-31035771D01*
X109176190Y-31035771D02*
X109271428Y-31083390D01*
X109271428Y-31083390D02*
X109319047Y-31131009D01*
X109319047Y-31131009D02*
X109366666Y-31226247D01*
X109366666Y-31226247D02*
X109366666Y-31464342D01*
X109366666Y-31464342D02*
X109319047Y-31559580D01*
X109319047Y-31559580D02*
X109271428Y-31607200D01*
X109271428Y-31607200D02*
X109176190Y-31654819D01*
X109176190Y-31654819D02*
X108938095Y-31654819D01*
X108938095Y-31654819D02*
X108842857Y-31607200D01*
X108842857Y-31607200D02*
X108795238Y-31559580D01*
X94666666Y-30554819D02*
X94666666Y-31269104D01*
X94666666Y-31269104D02*
X94619047Y-31411961D01*
X94619047Y-31411961D02*
X94523809Y-31507200D01*
X94523809Y-31507200D02*
X94380952Y-31554819D01*
X94380952Y-31554819D02*
X94285714Y-31554819D01*
X95571428Y-30888152D02*
X95571428Y-31554819D01*
X95333333Y-30507200D02*
X95095238Y-31221485D01*
X95095238Y-31221485D02*
X95714285Y-31221485D01*
X66259580Y-41566666D02*
X66307200Y-41614285D01*
X66307200Y-41614285D02*
X66354819Y-41757142D01*
X66354819Y-41757142D02*
X66354819Y-41852380D01*
X66354819Y-41852380D02*
X66307200Y-41995237D01*
X66307200Y-41995237D02*
X66211961Y-42090475D01*
X66211961Y-42090475D02*
X66116723Y-42138094D01*
X66116723Y-42138094D02*
X65926247Y-42185713D01*
X65926247Y-42185713D02*
X65783390Y-42185713D01*
X65783390Y-42185713D02*
X65592914Y-42138094D01*
X65592914Y-42138094D02*
X65497676Y-42090475D01*
X65497676Y-42090475D02*
X65402438Y-41995237D01*
X65402438Y-41995237D02*
X65354819Y-41852380D01*
X65354819Y-41852380D02*
X65354819Y-41757142D01*
X65354819Y-41757142D02*
X65402438Y-41614285D01*
X65402438Y-41614285D02*
X65450057Y-41566666D01*
X65354819Y-41233332D02*
X65354819Y-40614285D01*
X65354819Y-40614285D02*
X65735771Y-40947618D01*
X65735771Y-40947618D02*
X65735771Y-40804761D01*
X65735771Y-40804761D02*
X65783390Y-40709523D01*
X65783390Y-40709523D02*
X65831009Y-40661904D01*
X65831009Y-40661904D02*
X65926247Y-40614285D01*
X65926247Y-40614285D02*
X66164342Y-40614285D01*
X66164342Y-40614285D02*
X66259580Y-40661904D01*
X66259580Y-40661904D02*
X66307200Y-40709523D01*
X66307200Y-40709523D02*
X66354819Y-40804761D01*
X66354819Y-40804761D02*
X66354819Y-41090475D01*
X66354819Y-41090475D02*
X66307200Y-41185713D01*
X66307200Y-41185713D02*
X66259580Y-41233332D01*
X55454819Y-54433333D02*
X56169104Y-54433333D01*
X56169104Y-54433333D02*
X56311961Y-54480952D01*
X56311961Y-54480952D02*
X56407200Y-54576190D01*
X56407200Y-54576190D02*
X56454819Y-54719047D01*
X56454819Y-54719047D02*
X56454819Y-54814285D01*
X55883390Y-53814285D02*
X55835771Y-53909523D01*
X55835771Y-53909523D02*
X55788152Y-53957142D01*
X55788152Y-53957142D02*
X55692914Y-54004761D01*
X55692914Y-54004761D02*
X55645295Y-54004761D01*
X55645295Y-54004761D02*
X55550057Y-53957142D01*
X55550057Y-53957142D02*
X55502438Y-53909523D01*
X55502438Y-53909523D02*
X55454819Y-53814285D01*
X55454819Y-53814285D02*
X55454819Y-53623809D01*
X55454819Y-53623809D02*
X55502438Y-53528571D01*
X55502438Y-53528571D02*
X55550057Y-53480952D01*
X55550057Y-53480952D02*
X55645295Y-53433333D01*
X55645295Y-53433333D02*
X55692914Y-53433333D01*
X55692914Y-53433333D02*
X55788152Y-53480952D01*
X55788152Y-53480952D02*
X55835771Y-53528571D01*
X55835771Y-53528571D02*
X55883390Y-53623809D01*
X55883390Y-53623809D02*
X55883390Y-53814285D01*
X55883390Y-53814285D02*
X55931009Y-53909523D01*
X55931009Y-53909523D02*
X55978628Y-53957142D01*
X55978628Y-53957142D02*
X56073866Y-54004761D01*
X56073866Y-54004761D02*
X56264342Y-54004761D01*
X56264342Y-54004761D02*
X56359580Y-53957142D01*
X56359580Y-53957142D02*
X56407200Y-53909523D01*
X56407200Y-53909523D02*
X56454819Y-53814285D01*
X56454819Y-53814285D02*
X56454819Y-53623809D01*
X56454819Y-53623809D02*
X56407200Y-53528571D01*
X56407200Y-53528571D02*
X56359580Y-53480952D01*
X56359580Y-53480952D02*
X56264342Y-53433333D01*
X56264342Y-53433333D02*
X56073866Y-53433333D01*
X56073866Y-53433333D02*
X55978628Y-53480952D01*
X55978628Y-53480952D02*
X55931009Y-53528571D01*
X55931009Y-53528571D02*
X55883390Y-53623809D01*
X109933333Y-37659580D02*
X109885714Y-37707200D01*
X109885714Y-37707200D02*
X109742857Y-37754819D01*
X109742857Y-37754819D02*
X109647619Y-37754819D01*
X109647619Y-37754819D02*
X109504762Y-37707200D01*
X109504762Y-37707200D02*
X109409524Y-37611961D01*
X109409524Y-37611961D02*
X109361905Y-37516723D01*
X109361905Y-37516723D02*
X109314286Y-37326247D01*
X109314286Y-37326247D02*
X109314286Y-37183390D01*
X109314286Y-37183390D02*
X109361905Y-36992914D01*
X109361905Y-36992914D02*
X109409524Y-36897676D01*
X109409524Y-36897676D02*
X109504762Y-36802438D01*
X109504762Y-36802438D02*
X109647619Y-36754819D01*
X109647619Y-36754819D02*
X109742857Y-36754819D01*
X109742857Y-36754819D02*
X109885714Y-36802438D01*
X109885714Y-36802438D02*
X109933333Y-36850057D01*
X110504762Y-37183390D02*
X110409524Y-37135771D01*
X110409524Y-37135771D02*
X110361905Y-37088152D01*
X110361905Y-37088152D02*
X110314286Y-36992914D01*
X110314286Y-36992914D02*
X110314286Y-36945295D01*
X110314286Y-36945295D02*
X110361905Y-36850057D01*
X110361905Y-36850057D02*
X110409524Y-36802438D01*
X110409524Y-36802438D02*
X110504762Y-36754819D01*
X110504762Y-36754819D02*
X110695238Y-36754819D01*
X110695238Y-36754819D02*
X110790476Y-36802438D01*
X110790476Y-36802438D02*
X110838095Y-36850057D01*
X110838095Y-36850057D02*
X110885714Y-36945295D01*
X110885714Y-36945295D02*
X110885714Y-36992914D01*
X110885714Y-36992914D02*
X110838095Y-37088152D01*
X110838095Y-37088152D02*
X110790476Y-37135771D01*
X110790476Y-37135771D02*
X110695238Y-37183390D01*
X110695238Y-37183390D02*
X110504762Y-37183390D01*
X110504762Y-37183390D02*
X110409524Y-37231009D01*
X110409524Y-37231009D02*
X110361905Y-37278628D01*
X110361905Y-37278628D02*
X110314286Y-37373866D01*
X110314286Y-37373866D02*
X110314286Y-37564342D01*
X110314286Y-37564342D02*
X110361905Y-37659580D01*
X110361905Y-37659580D02*
X110409524Y-37707200D01*
X110409524Y-37707200D02*
X110504762Y-37754819D01*
X110504762Y-37754819D02*
X110695238Y-37754819D01*
X110695238Y-37754819D02*
X110790476Y-37707200D01*
X110790476Y-37707200D02*
X110838095Y-37659580D01*
X110838095Y-37659580D02*
X110885714Y-37564342D01*
X110885714Y-37564342D02*
X110885714Y-37373866D01*
X110885714Y-37373866D02*
X110838095Y-37278628D01*
X110838095Y-37278628D02*
X110790476Y-37231009D01*
X110790476Y-37231009D02*
X110695238Y-37183390D01*
X66359580Y-38066666D02*
X66407200Y-38114285D01*
X66407200Y-38114285D02*
X66454819Y-38257142D01*
X66454819Y-38257142D02*
X66454819Y-38352380D01*
X66454819Y-38352380D02*
X66407200Y-38495237D01*
X66407200Y-38495237D02*
X66311961Y-38590475D01*
X66311961Y-38590475D02*
X66216723Y-38638094D01*
X66216723Y-38638094D02*
X66026247Y-38685713D01*
X66026247Y-38685713D02*
X65883390Y-38685713D01*
X65883390Y-38685713D02*
X65692914Y-38638094D01*
X65692914Y-38638094D02*
X65597676Y-38590475D01*
X65597676Y-38590475D02*
X65502438Y-38495237D01*
X65502438Y-38495237D02*
X65454819Y-38352380D01*
X65454819Y-38352380D02*
X65454819Y-38257142D01*
X65454819Y-38257142D02*
X65502438Y-38114285D01*
X65502438Y-38114285D02*
X65550057Y-38066666D01*
X65550057Y-37685713D02*
X65502438Y-37638094D01*
X65502438Y-37638094D02*
X65454819Y-37542856D01*
X65454819Y-37542856D02*
X65454819Y-37304761D01*
X65454819Y-37304761D02*
X65502438Y-37209523D01*
X65502438Y-37209523D02*
X65550057Y-37161904D01*
X65550057Y-37161904D02*
X65645295Y-37114285D01*
X65645295Y-37114285D02*
X65740533Y-37114285D01*
X65740533Y-37114285D02*
X65883390Y-37161904D01*
X65883390Y-37161904D02*
X66454819Y-37733332D01*
X66454819Y-37733332D02*
X66454819Y-37114285D01*
X86254819Y-55138094D02*
X85254819Y-55138094D01*
X85254819Y-55138094D02*
X85254819Y-54899999D01*
X85254819Y-54899999D02*
X85302438Y-54757142D01*
X85302438Y-54757142D02*
X85397676Y-54661904D01*
X85397676Y-54661904D02*
X85492914Y-54614285D01*
X85492914Y-54614285D02*
X85683390Y-54566666D01*
X85683390Y-54566666D02*
X85826247Y-54566666D01*
X85826247Y-54566666D02*
X86016723Y-54614285D01*
X86016723Y-54614285D02*
X86111961Y-54661904D01*
X86111961Y-54661904D02*
X86207200Y-54757142D01*
X86207200Y-54757142D02*
X86254819Y-54899999D01*
X86254819Y-54899999D02*
X86254819Y-55138094D01*
X86254819Y-53614285D02*
X86254819Y-54185713D01*
X86254819Y-53899999D02*
X85254819Y-53899999D01*
X85254819Y-53899999D02*
X85397676Y-53995237D01*
X85397676Y-53995237D02*
X85492914Y-54090475D01*
X85492914Y-54090475D02*
X85540533Y-54185713D01*
X87154819Y-56334199D02*
X87392914Y-56334199D01*
X87297676Y-56572294D02*
X87392914Y-56334199D01*
X87392914Y-56334199D02*
X87297676Y-56096104D01*
X87583390Y-56477056D02*
X87392914Y-56334199D01*
X87392914Y-56334199D02*
X87583390Y-56191342D01*
X87154819Y-56334199D02*
X87392914Y-56334199D01*
X87297676Y-56572294D02*
X87392914Y-56334199D01*
X87392914Y-56334199D02*
X87297676Y-56096104D01*
X87583390Y-56477056D02*
X87392914Y-56334199D01*
X87392914Y-56334199D02*
X87583390Y-56191342D01*
X108989580Y-34491666D02*
X109037200Y-34539285D01*
X109037200Y-34539285D02*
X109084819Y-34682142D01*
X109084819Y-34682142D02*
X109084819Y-34777380D01*
X109084819Y-34777380D02*
X109037200Y-34920237D01*
X109037200Y-34920237D02*
X108941961Y-35015475D01*
X108941961Y-35015475D02*
X108846723Y-35063094D01*
X108846723Y-35063094D02*
X108656247Y-35110713D01*
X108656247Y-35110713D02*
X108513390Y-35110713D01*
X108513390Y-35110713D02*
X108322914Y-35063094D01*
X108322914Y-35063094D02*
X108227676Y-35015475D01*
X108227676Y-35015475D02*
X108132438Y-34920237D01*
X108132438Y-34920237D02*
X108084819Y-34777380D01*
X108084819Y-34777380D02*
X108084819Y-34682142D01*
X108084819Y-34682142D02*
X108132438Y-34539285D01*
X108132438Y-34539285D02*
X108180057Y-34491666D01*
X108084819Y-34158332D02*
X108084819Y-33491666D01*
X108084819Y-33491666D02*
X109084819Y-33920237D01*
X110457142Y-54889580D02*
X110409523Y-54937200D01*
X110409523Y-54937200D02*
X110266666Y-54984819D01*
X110266666Y-54984819D02*
X110171428Y-54984819D01*
X110171428Y-54984819D02*
X110028571Y-54937200D01*
X110028571Y-54937200D02*
X109933333Y-54841961D01*
X109933333Y-54841961D02*
X109885714Y-54746723D01*
X109885714Y-54746723D02*
X109838095Y-54556247D01*
X109838095Y-54556247D02*
X109838095Y-54413390D01*
X109838095Y-54413390D02*
X109885714Y-54222914D01*
X109885714Y-54222914D02*
X109933333Y-54127676D01*
X109933333Y-54127676D02*
X110028571Y-54032438D01*
X110028571Y-54032438D02*
X110171428Y-53984819D01*
X110171428Y-53984819D02*
X110266666Y-53984819D01*
X110266666Y-53984819D02*
X110409523Y-54032438D01*
X110409523Y-54032438D02*
X110457142Y-54080057D01*
X111409523Y-54984819D02*
X110838095Y-54984819D01*
X111123809Y-54984819D02*
X111123809Y-53984819D01*
X111123809Y-53984819D02*
X111028571Y-54127676D01*
X111028571Y-54127676D02*
X110933333Y-54222914D01*
X110933333Y-54222914D02*
X110838095Y-54270533D01*
X112028571Y-53984819D02*
X112123809Y-53984819D01*
X112123809Y-53984819D02*
X112219047Y-54032438D01*
X112219047Y-54032438D02*
X112266666Y-54080057D01*
X112266666Y-54080057D02*
X112314285Y-54175295D01*
X112314285Y-54175295D02*
X112361904Y-54365771D01*
X112361904Y-54365771D02*
X112361904Y-54603866D01*
X112361904Y-54603866D02*
X112314285Y-54794342D01*
X112314285Y-54794342D02*
X112266666Y-54889580D01*
X112266666Y-54889580D02*
X112219047Y-54937200D01*
X112219047Y-54937200D02*
X112123809Y-54984819D01*
X112123809Y-54984819D02*
X112028571Y-54984819D01*
X112028571Y-54984819D02*
X111933333Y-54937200D01*
X111933333Y-54937200D02*
X111885714Y-54889580D01*
X111885714Y-54889580D02*
X111838095Y-54794342D01*
X111838095Y-54794342D02*
X111790476Y-54603866D01*
X111790476Y-54603866D02*
X111790476Y-54365771D01*
X111790476Y-54365771D02*
X111838095Y-54175295D01*
X111838095Y-54175295D02*
X111885714Y-54080057D01*
X111885714Y-54080057D02*
X111933333Y-54032438D01*
X111933333Y-54032438D02*
X112028571Y-53984819D01*
X58729580Y-37966666D02*
X58777200Y-38014285D01*
X58777200Y-38014285D02*
X58824819Y-38157142D01*
X58824819Y-38157142D02*
X58824819Y-38252380D01*
X58824819Y-38252380D02*
X58777200Y-38395237D01*
X58777200Y-38395237D02*
X58681961Y-38490475D01*
X58681961Y-38490475D02*
X58586723Y-38538094D01*
X58586723Y-38538094D02*
X58396247Y-38585713D01*
X58396247Y-38585713D02*
X58253390Y-38585713D01*
X58253390Y-38585713D02*
X58062914Y-38538094D01*
X58062914Y-38538094D02*
X57967676Y-38490475D01*
X57967676Y-38490475D02*
X57872438Y-38395237D01*
X57872438Y-38395237D02*
X57824819Y-38252380D01*
X57824819Y-38252380D02*
X57824819Y-38157142D01*
X57824819Y-38157142D02*
X57872438Y-38014285D01*
X57872438Y-38014285D02*
X57920057Y-37966666D01*
X58824819Y-37490475D02*
X58824819Y-37299999D01*
X58824819Y-37299999D02*
X58777200Y-37204761D01*
X58777200Y-37204761D02*
X58729580Y-37157142D01*
X58729580Y-37157142D02*
X58586723Y-37061904D01*
X58586723Y-37061904D02*
X58396247Y-37014285D01*
X58396247Y-37014285D02*
X58015295Y-37014285D01*
X58015295Y-37014285D02*
X57920057Y-37061904D01*
X57920057Y-37061904D02*
X57872438Y-37109523D01*
X57872438Y-37109523D02*
X57824819Y-37204761D01*
X57824819Y-37204761D02*
X57824819Y-37395237D01*
X57824819Y-37395237D02*
X57872438Y-37490475D01*
X57872438Y-37490475D02*
X57920057Y-37538094D01*
X57920057Y-37538094D02*
X58015295Y-37585713D01*
X58015295Y-37585713D02*
X58253390Y-37585713D01*
X58253390Y-37585713D02*
X58348628Y-37538094D01*
X58348628Y-37538094D02*
X58396247Y-37490475D01*
X58396247Y-37490475D02*
X58443866Y-37395237D01*
X58443866Y-37395237D02*
X58443866Y-37204761D01*
X58443866Y-37204761D02*
X58396247Y-37109523D01*
X58396247Y-37109523D02*
X58348628Y-37061904D01*
X58348628Y-37061904D02*
X58253390Y-37014285D01*
X112554819Y-38533333D02*
X113269104Y-38533333D01*
X113269104Y-38533333D02*
X113411961Y-38580952D01*
X113411961Y-38580952D02*
X113507200Y-38676190D01*
X113507200Y-38676190D02*
X113554819Y-38819047D01*
X113554819Y-38819047D02*
X113554819Y-38914285D01*
X112554819Y-37628571D02*
X112554819Y-37819047D01*
X112554819Y-37819047D02*
X112602438Y-37914285D01*
X112602438Y-37914285D02*
X112650057Y-37961904D01*
X112650057Y-37961904D02*
X112792914Y-38057142D01*
X112792914Y-38057142D02*
X112983390Y-38104761D01*
X112983390Y-38104761D02*
X113364342Y-38104761D01*
X113364342Y-38104761D02*
X113459580Y-38057142D01*
X113459580Y-38057142D02*
X113507200Y-38009523D01*
X113507200Y-38009523D02*
X113554819Y-37914285D01*
X113554819Y-37914285D02*
X113554819Y-37723809D01*
X113554819Y-37723809D02*
X113507200Y-37628571D01*
X113507200Y-37628571D02*
X113459580Y-37580952D01*
X113459580Y-37580952D02*
X113364342Y-37533333D01*
X113364342Y-37533333D02*
X113126247Y-37533333D01*
X113126247Y-37533333D02*
X113031009Y-37580952D01*
X113031009Y-37580952D02*
X112983390Y-37628571D01*
X112983390Y-37628571D02*
X112935771Y-37723809D01*
X112935771Y-37723809D02*
X112935771Y-37914285D01*
X112935771Y-37914285D02*
X112983390Y-38009523D01*
X112983390Y-38009523D02*
X113031009Y-38057142D01*
X113031009Y-38057142D02*
X113126247Y-38104761D01*
X63666666Y-31054819D02*
X63666666Y-31769104D01*
X63666666Y-31769104D02*
X63619047Y-31911961D01*
X63619047Y-31911961D02*
X63523809Y-32007200D01*
X63523809Y-32007200D02*
X63380952Y-32054819D01*
X63380952Y-32054819D02*
X63285714Y-32054819D01*
X64095238Y-31150057D02*
X64142857Y-31102438D01*
X64142857Y-31102438D02*
X64238095Y-31054819D01*
X64238095Y-31054819D02*
X64476190Y-31054819D01*
X64476190Y-31054819D02*
X64571428Y-31102438D01*
X64571428Y-31102438D02*
X64619047Y-31150057D01*
X64619047Y-31150057D02*
X64666666Y-31245295D01*
X64666666Y-31245295D02*
X64666666Y-31340533D01*
X64666666Y-31340533D02*
X64619047Y-31483390D01*
X64619047Y-31483390D02*
X64047619Y-32054819D01*
X64047619Y-32054819D02*
X64666666Y-32054819D01*
X60257142Y-52389580D02*
X60209523Y-52437200D01*
X60209523Y-52437200D02*
X60066666Y-52484819D01*
X60066666Y-52484819D02*
X59971428Y-52484819D01*
X59971428Y-52484819D02*
X59828571Y-52437200D01*
X59828571Y-52437200D02*
X59733333Y-52341961D01*
X59733333Y-52341961D02*
X59685714Y-52246723D01*
X59685714Y-52246723D02*
X59638095Y-52056247D01*
X59638095Y-52056247D02*
X59638095Y-51913390D01*
X59638095Y-51913390D02*
X59685714Y-51722914D01*
X59685714Y-51722914D02*
X59733333Y-51627676D01*
X59733333Y-51627676D02*
X59828571Y-51532438D01*
X59828571Y-51532438D02*
X59971428Y-51484819D01*
X59971428Y-51484819D02*
X60066666Y-51484819D01*
X60066666Y-51484819D02*
X60209523Y-51532438D01*
X60209523Y-51532438D02*
X60257142Y-51580057D01*
X61209523Y-52484819D02*
X60638095Y-52484819D01*
X60923809Y-52484819D02*
X60923809Y-51484819D01*
X60923809Y-51484819D02*
X60828571Y-51627676D01*
X60828571Y-51627676D02*
X60733333Y-51722914D01*
X60733333Y-51722914D02*
X60638095Y-51770533D01*
X62161904Y-52484819D02*
X61590476Y-52484819D01*
X61876190Y-52484819D02*
X61876190Y-51484819D01*
X61876190Y-51484819D02*
X61780952Y-51627676D01*
X61780952Y-51627676D02*
X61685714Y-51722914D01*
X61685714Y-51722914D02*
X61590476Y-51770533D01*
X112954819Y-52933333D02*
X113669104Y-52933333D01*
X113669104Y-52933333D02*
X113811961Y-52980952D01*
X113811961Y-52980952D02*
X113907200Y-53076190D01*
X113907200Y-53076190D02*
X113954819Y-53219047D01*
X113954819Y-53219047D02*
X113954819Y-53314285D01*
X113954819Y-52409523D02*
X113954819Y-52219047D01*
X113954819Y-52219047D02*
X113907200Y-52123809D01*
X113907200Y-52123809D02*
X113859580Y-52076190D01*
X113859580Y-52076190D02*
X113716723Y-51980952D01*
X113716723Y-51980952D02*
X113526247Y-51933333D01*
X113526247Y-51933333D02*
X113145295Y-51933333D01*
X113145295Y-51933333D02*
X113050057Y-51980952D01*
X113050057Y-51980952D02*
X113002438Y-52028571D01*
X113002438Y-52028571D02*
X112954819Y-52123809D01*
X112954819Y-52123809D02*
X112954819Y-52314285D01*
X112954819Y-52314285D02*
X113002438Y-52409523D01*
X113002438Y-52409523D02*
X113050057Y-52457142D01*
X113050057Y-52457142D02*
X113145295Y-52504761D01*
X113145295Y-52504761D02*
X113383390Y-52504761D01*
X113383390Y-52504761D02*
X113478628Y-52457142D01*
X113478628Y-52457142D02*
X113526247Y-52409523D01*
X113526247Y-52409523D02*
X113573866Y-52314285D01*
X113573866Y-52314285D02*
X113573866Y-52123809D01*
X113573866Y-52123809D02*
X113526247Y-52028571D01*
X113526247Y-52028571D02*
X113478628Y-51980952D01*
X113478628Y-51980952D02*
X113383390Y-51933333D01*
X82889580Y-35291666D02*
X82937200Y-35339285D01*
X82937200Y-35339285D02*
X82984819Y-35482142D01*
X82984819Y-35482142D02*
X82984819Y-35577380D01*
X82984819Y-35577380D02*
X82937200Y-35720237D01*
X82937200Y-35720237D02*
X82841961Y-35815475D01*
X82841961Y-35815475D02*
X82746723Y-35863094D01*
X82746723Y-35863094D02*
X82556247Y-35910713D01*
X82556247Y-35910713D02*
X82413390Y-35910713D01*
X82413390Y-35910713D02*
X82222914Y-35863094D01*
X82222914Y-35863094D02*
X82127676Y-35815475D01*
X82127676Y-35815475D02*
X82032438Y-35720237D01*
X82032438Y-35720237D02*
X81984819Y-35577380D01*
X81984819Y-35577380D02*
X81984819Y-35482142D01*
X81984819Y-35482142D02*
X82032438Y-35339285D01*
X82032438Y-35339285D02*
X82080057Y-35291666D01*
X82984819Y-34339285D02*
X82984819Y-34910713D01*
X82984819Y-34624999D02*
X81984819Y-34624999D01*
X81984819Y-34624999D02*
X82127676Y-34720237D01*
X82127676Y-34720237D02*
X82222914Y-34815475D01*
X82222914Y-34815475D02*
X82270533Y-34910713D01*
X85166666Y-58954819D02*
X85166666Y-59669104D01*
X85166666Y-59669104D02*
X85119047Y-59811961D01*
X85119047Y-59811961D02*
X85023809Y-59907200D01*
X85023809Y-59907200D02*
X84880952Y-59954819D01*
X84880952Y-59954819D02*
X84785714Y-59954819D01*
X86166666Y-59954819D02*
X85595238Y-59954819D01*
X85880952Y-59954819D02*
X85880952Y-58954819D01*
X85880952Y-58954819D02*
X85785714Y-59097676D01*
X85785714Y-59097676D02*
X85690476Y-59192914D01*
X85690476Y-59192914D02*
X85595238Y-59240533D01*
D13*
%TO.C,J3*%
X76100000Y-26800000D02*
X77155000Y-26800000D01*
X76100000Y-29600000D02*
X76100000Y-26800000D01*
X77155000Y-29600000D02*
X76100000Y-29600000D01*
X85045000Y-26800000D02*
X86100000Y-26800000D01*
X85045000Y-29600000D02*
X86100000Y-29600000D01*
X86100000Y-26800000D02*
X86100000Y-29600000D01*
D14*
X75550000Y-28200000D02*
G75*
G02*
X75350000Y-28200000I-100000J0D01*
G01*
X75350000Y-28200000D02*
G75*
G02*
X75550000Y-28200000I100000J0D01*
G01*
D15*
%TO.C,C6*%
X93790000Y-33759420D02*
X93790000Y-34040580D01*
X94810000Y-33759420D02*
X94810000Y-34040580D01*
%TO.C,C4*%
X80590000Y-40340580D02*
X80590000Y-40059420D01*
X81610000Y-40340580D02*
X81610000Y-40059420D01*
D13*
%TO.C,J7*%
X51900000Y-34112500D02*
X54700000Y-34112500D01*
X51900000Y-35167500D02*
X51900000Y-34112500D01*
X51900000Y-44112500D02*
X51900000Y-43057500D01*
X54700000Y-35167500D02*
X54700000Y-34112500D01*
X54700000Y-43057500D02*
X54700000Y-44112500D01*
X54700000Y-44112500D02*
X51900000Y-44112500D01*
D14*
X53400000Y-44762500D02*
G75*
G02*
X53200000Y-44762500I-100000J0D01*
G01*
X53200000Y-44762500D02*
G75*
G02*
X53400000Y-44762500I100000J0D01*
G01*
D15*
%TO.C,C5*%
X67620000Y-36587677D02*
X77780000Y-36587677D01*
X67620000Y-36627677D02*
X77780000Y-36627677D01*
X67620000Y-36667677D02*
X77780000Y-36667677D01*
X67621000Y-36547677D02*
X77779000Y-36547677D01*
X67622000Y-36507677D02*
X77778000Y-36507677D01*
X67623000Y-36467677D02*
X77777000Y-36467677D01*
X67625000Y-36427677D02*
X77775000Y-36427677D01*
X67627000Y-36387677D02*
X77773000Y-36387677D01*
X67630000Y-36347677D02*
X77770000Y-36347677D01*
X67632000Y-36307677D02*
X77768000Y-36307677D01*
X67635000Y-36267677D02*
X77765000Y-36267677D01*
X67638000Y-36227677D02*
X77762000Y-36227677D01*
X67642000Y-36187677D02*
X77758000Y-36187677D01*
X67646000Y-36147677D02*
X77754000Y-36147677D01*
X67650000Y-36107677D02*
X77750000Y-36107677D01*
X67655000Y-36067677D02*
X77745000Y-36067677D01*
X67660000Y-36027677D02*
X77740000Y-36027677D01*
X67665000Y-35987677D02*
X77735000Y-35987677D01*
X67670000Y-35946677D02*
X77730000Y-35946677D01*
X67676000Y-35906677D02*
X77724000Y-35906677D01*
X67682000Y-35866677D02*
X77718000Y-35866677D01*
X67689000Y-35826677D02*
X77711000Y-35826677D01*
X67696000Y-35786677D02*
X77704000Y-35786677D01*
X67703000Y-35746677D02*
X77697000Y-35746677D01*
X67710000Y-35706677D02*
X77690000Y-35706677D01*
X67718000Y-35666677D02*
X77682000Y-35666677D01*
X67726000Y-35626677D02*
X77674000Y-35626677D01*
X67735000Y-35586677D02*
X77665000Y-35586677D01*
X67744000Y-35546677D02*
X77656000Y-35546677D01*
X67753000Y-35506677D02*
X77647000Y-35506677D01*
X67762000Y-35466677D02*
X77638000Y-35466677D01*
X67772000Y-35426677D02*
X77628000Y-35426677D01*
X67782000Y-35386677D02*
X71459000Y-35386677D01*
X67793000Y-35346677D02*
X71459000Y-35346677D01*
X67803000Y-35306677D02*
X71459000Y-35306677D01*
X67815000Y-35266677D02*
X71459000Y-35266677D01*
X67826000Y-35226677D02*
X71459000Y-35226677D01*
X67838000Y-35186677D02*
X71459000Y-35186677D01*
X67850000Y-35146677D02*
X71459000Y-35146677D01*
X67863000Y-35106677D02*
X71459000Y-35106677D01*
X67876000Y-35066677D02*
X71459000Y-35066677D01*
X67889000Y-35026677D02*
X71459000Y-35026677D01*
X67903000Y-34986677D02*
X71459000Y-34986677D01*
X67917000Y-34946677D02*
X71459000Y-34946677D01*
X67932000Y-34906677D02*
X71459000Y-34906677D01*
X67946000Y-34866677D02*
X71459000Y-34866677D01*
X67962000Y-34826677D02*
X71459000Y-34826677D01*
X67977000Y-34786677D02*
X71459000Y-34786677D01*
X67993000Y-34746677D02*
X71459000Y-34746677D01*
X68010000Y-34706677D02*
X71459000Y-34706677D01*
X68026000Y-34666677D02*
X71459000Y-34666677D01*
X68043000Y-34626677D02*
X71459000Y-34626677D01*
X68061000Y-34586677D02*
X71459000Y-34586677D01*
X68079000Y-34546677D02*
X71459000Y-34546677D01*
X68097000Y-34506677D02*
X71459000Y-34506677D01*
X68116000Y-34466677D02*
X71459000Y-34466677D01*
X68136000Y-34426677D02*
X71459000Y-34426677D01*
X68155000Y-34386677D02*
X71459000Y-34386677D01*
X68175000Y-34346677D02*
X71459000Y-34346677D01*
X68196000Y-34306677D02*
X71459000Y-34306677D01*
X68217000Y-34266677D02*
X71459000Y-34266677D01*
X68238000Y-34226677D02*
X71459000Y-34226677D01*
X68260000Y-34186677D02*
X71459000Y-34186677D01*
X68283000Y-34146677D02*
X71459000Y-34146677D01*
X68305000Y-34106677D02*
X71459000Y-34106677D01*
X68329000Y-34066677D02*
X71459000Y-34066677D01*
X68353000Y-34026677D02*
X71459000Y-34026677D01*
X68377000Y-33986677D02*
X71459000Y-33986677D01*
X68402000Y-33946677D02*
X71459000Y-33946677D01*
X68427000Y-33906677D02*
X71459000Y-33906677D01*
X68453000Y-33866677D02*
X71459000Y-33866677D01*
X68479000Y-33826677D02*
X71459000Y-33826677D01*
X68506000Y-33786677D02*
X71459000Y-33786677D01*
X68534000Y-33746677D02*
X71459000Y-33746677D01*
X68562000Y-33706677D02*
X71459000Y-33706677D01*
X68590000Y-33666677D02*
X71459000Y-33666677D01*
X68620000Y-33626677D02*
X71459000Y-33626677D01*
X68650000Y-33586677D02*
X71459000Y-33586677D01*
X68680000Y-33546677D02*
X71459000Y-33546677D01*
X68711000Y-33506677D02*
X71459000Y-33506677D01*
X68743000Y-33466677D02*
X71459000Y-33466677D01*
X68775000Y-33426677D02*
X71459000Y-33426677D01*
X68808000Y-33386677D02*
X71459000Y-33386677D01*
X68842000Y-33346677D02*
X71459000Y-33346677D01*
X68876000Y-33306677D02*
X71459000Y-33306677D01*
X68911000Y-33266677D02*
X71459000Y-33266677D01*
X68947000Y-33226677D02*
X71459000Y-33226677D01*
X68984000Y-33186677D02*
X71459000Y-33186677D01*
X69021000Y-33146677D02*
X71459000Y-33146677D01*
X69060000Y-33106677D02*
X71459000Y-33106677D01*
X69099000Y-33066677D02*
X71459000Y-33066677D01*
X69139000Y-33026677D02*
X71459000Y-33026677D01*
X69180000Y-32986677D02*
X71459000Y-32986677D01*
X69222000Y-32946677D02*
X71459000Y-32946677D01*
X69264000Y-32906677D02*
X76136000Y-32906677D01*
X69308000Y-32866677D02*
X76092000Y-32866677D01*
X69325000Y-41647323D02*
X70325000Y-41647323D01*
X69353000Y-32826677D02*
X76047000Y-32826677D01*
X69399000Y-32786677D02*
X76001000Y-32786677D01*
X69446000Y-32746677D02*
X75954000Y-32746677D01*
X69494000Y-32706677D02*
X75906000Y-32706677D01*
X69544000Y-32666677D02*
X75856000Y-32666677D01*
X69594000Y-32626677D02*
X75806000Y-32626677D01*
X69646000Y-32586677D02*
X75754000Y-32586677D01*
X69700000Y-32546677D02*
X75700000Y-32546677D01*
X69755000Y-32506677D02*
X75645000Y-32506677D01*
X69811000Y-32466677D02*
X75589000Y-32466677D01*
X69825000Y-42147323D02*
X69825000Y-41147323D01*
X69870000Y-32426677D02*
X75530000Y-32426677D01*
X69930000Y-32386677D02*
X75470000Y-32386677D01*
X69991000Y-32346677D02*
X75409000Y-32346677D01*
X70055000Y-32306677D02*
X75345000Y-32306677D01*
X70121000Y-32266677D02*
X75279000Y-32266677D01*
X70190000Y-32226677D02*
X75210000Y-32226677D01*
X70261000Y-32186677D02*
X75139000Y-32186677D01*
X70335000Y-32146677D02*
X75065000Y-32146677D01*
X70411000Y-32106677D02*
X74989000Y-32106677D01*
X70491000Y-32066677D02*
X74909000Y-32066677D01*
X70575000Y-32026677D02*
X74825000Y-32026677D01*
X70663000Y-31986677D02*
X74737000Y-31986677D01*
X70756000Y-31946677D02*
X74644000Y-31946677D01*
X70854000Y-31906677D02*
X74546000Y-31906677D01*
X70958000Y-31866677D02*
X74442000Y-31866677D01*
X71070000Y-31826677D02*
X74330000Y-31826677D01*
X71190000Y-31786677D02*
X74210000Y-31786677D01*
X71322000Y-31746677D02*
X74078000Y-31746677D01*
X71470000Y-31706677D02*
X73930000Y-31706677D01*
X71638000Y-31666677D02*
X73762000Y-31666677D01*
X71838000Y-31626677D02*
X73562000Y-31626677D01*
X72101000Y-31586677D02*
X73299000Y-31586677D01*
X73941000Y-32946677D02*
X76178000Y-32946677D01*
X73941000Y-32986677D02*
X76220000Y-32986677D01*
X73941000Y-33026677D02*
X76261000Y-33026677D01*
X73941000Y-33066677D02*
X76301000Y-33066677D01*
X73941000Y-33106677D02*
X76340000Y-33106677D01*
X73941000Y-33146677D02*
X76379000Y-33146677D01*
X73941000Y-33186677D02*
X76416000Y-33186677D01*
X73941000Y-33226677D02*
X76453000Y-33226677D01*
X73941000Y-33266677D02*
X76489000Y-33266677D01*
X73941000Y-33306677D02*
X76524000Y-33306677D01*
X73941000Y-33346677D02*
X76558000Y-33346677D01*
X73941000Y-33386677D02*
X76592000Y-33386677D01*
X73941000Y-33426677D02*
X76625000Y-33426677D01*
X73941000Y-33466677D02*
X76657000Y-33466677D01*
X73941000Y-33506677D02*
X76689000Y-33506677D01*
X73941000Y-33546677D02*
X76720000Y-33546677D01*
X73941000Y-33586677D02*
X76750000Y-33586677D01*
X73941000Y-33626677D02*
X76780000Y-33626677D01*
X73941000Y-33666677D02*
X76810000Y-33666677D01*
X73941000Y-33706677D02*
X76838000Y-33706677D01*
X73941000Y-33746677D02*
X76866000Y-33746677D01*
X73941000Y-33786677D02*
X76894000Y-33786677D01*
X73941000Y-33826677D02*
X76921000Y-33826677D01*
X73941000Y-33866677D02*
X76947000Y-33866677D01*
X73941000Y-33906677D02*
X76973000Y-33906677D01*
X73941000Y-33946677D02*
X76998000Y-33946677D01*
X73941000Y-33986677D02*
X77023000Y-33986677D01*
X73941000Y-34026677D02*
X77047000Y-34026677D01*
X73941000Y-34066677D02*
X77071000Y-34066677D01*
X73941000Y-34106677D02*
X77095000Y-34106677D01*
X73941000Y-34146677D02*
X77117000Y-34146677D01*
X73941000Y-34186677D02*
X77140000Y-34186677D01*
X73941000Y-34226677D02*
X77162000Y-34226677D01*
X73941000Y-34266677D02*
X77183000Y-34266677D01*
X73941000Y-34306677D02*
X77204000Y-34306677D01*
X73941000Y-34346677D02*
X77225000Y-34346677D01*
X73941000Y-34386677D02*
X77245000Y-34386677D01*
X73941000Y-34426677D02*
X77264000Y-34426677D01*
X73941000Y-34466677D02*
X77284000Y-34466677D01*
X73941000Y-34506677D02*
X77303000Y-34506677D01*
X73941000Y-34546677D02*
X77321000Y-34546677D01*
X73941000Y-34586677D02*
X77339000Y-34586677D01*
X73941000Y-34626677D02*
X77357000Y-34626677D01*
X73941000Y-34666677D02*
X77374000Y-34666677D01*
X73941000Y-34706677D02*
X77390000Y-34706677D01*
X73941000Y-34746677D02*
X77407000Y-34746677D01*
X73941000Y-34786677D02*
X77423000Y-34786677D01*
X73941000Y-34826677D02*
X77438000Y-34826677D01*
X73941000Y-34866677D02*
X77454000Y-34866677D01*
X73941000Y-34906677D02*
X77468000Y-34906677D01*
X73941000Y-34946677D02*
X77483000Y-34946677D01*
X73941000Y-34986677D02*
X77497000Y-34986677D01*
X73941000Y-35026677D02*
X77511000Y-35026677D01*
X73941000Y-35066677D02*
X77524000Y-35066677D01*
X73941000Y-35106677D02*
X77537000Y-35106677D01*
X73941000Y-35146677D02*
X77550000Y-35146677D01*
X73941000Y-35186677D02*
X77562000Y-35186677D01*
X73941000Y-35226677D02*
X77574000Y-35226677D01*
X73941000Y-35266677D02*
X77585000Y-35266677D01*
X73941000Y-35306677D02*
X77597000Y-35306677D01*
X73941000Y-35346677D02*
X77607000Y-35346677D01*
X73941000Y-35386677D02*
X77618000Y-35386677D01*
X77820000Y-36667677D02*
G75*
G02*
X67580000Y-36667677I-5120000J0D01*
G01*
X67580000Y-36667677D02*
G75*
G02*
X77820000Y-36667677I5120000J0D01*
G01*
D13*
%TO.C,J5*%
X102900000Y-26900000D02*
X103955000Y-26900000D01*
X102900000Y-29700000D02*
X102900000Y-26900000D01*
X103955000Y-29700000D02*
X102900000Y-29700000D01*
X111845000Y-26900000D02*
X112900000Y-26900000D01*
X111845000Y-29700000D02*
X112900000Y-29700000D01*
X112900000Y-26900000D02*
X112900000Y-29700000D01*
D14*
X102350000Y-28300000D02*
G75*
G02*
X102150000Y-28300000I-100000J0D01*
G01*
X102150000Y-28300000D02*
G75*
G02*
X102350000Y-28300000I100000J0D01*
G01*
D13*
%TO.C,J4*%
X89700000Y-26900000D02*
X90755000Y-26900000D01*
X89700000Y-29700000D02*
X89700000Y-26900000D01*
X90755000Y-29700000D02*
X89700000Y-29700000D01*
X98645000Y-26900000D02*
X99700000Y-26900000D01*
X98645000Y-29700000D02*
X99700000Y-29700000D01*
X99700000Y-26900000D02*
X99700000Y-29700000D01*
D14*
X89150000Y-28300000D02*
G75*
G02*
X88950000Y-28300000I-100000J0D01*
G01*
X88950000Y-28300000D02*
G75*
G02*
X89150000Y-28300000I100000J0D01*
G01*
D15*
%TO.C,C3*%
X63890000Y-41284420D02*
X63890000Y-41565580D01*
X64910000Y-41284420D02*
X64910000Y-41565580D01*
D13*
%TO.C,J8*%
X51900000Y-48887500D02*
X54700000Y-48887500D01*
X51900000Y-49942500D02*
X51900000Y-48887500D01*
X51900000Y-57832500D02*
X51900000Y-58887500D01*
X54700000Y-48887500D02*
X54700000Y-49942500D01*
X54700000Y-57832500D02*
X54700000Y-58887500D01*
X54700000Y-58887500D02*
X51900000Y-58887500D01*
D14*
X53400000Y-48237500D02*
G75*
G02*
X53200000Y-48237500I-100000J0D01*
G01*
X53200000Y-48237500D02*
G75*
G02*
X53400000Y-48237500I100000J0D01*
G01*
D15*
%TO.C,C8*%
X110265580Y-38390000D02*
X109984420Y-38390000D01*
X110265580Y-39410000D02*
X109984420Y-39410000D01*
%TO.C,C2*%
X63890000Y-38115580D02*
X63890000Y-37834420D01*
X64910000Y-38115580D02*
X64910000Y-37834420D01*
D16*
%TO.C,D1*%
X86823700Y-53218900D02*
X86823700Y-54108765D01*
X88576300Y-54108765D02*
X88576300Y-53218900D01*
D15*
%TO.C,C7*%
X106690000Y-34184420D02*
X106690000Y-34465580D01*
X107710000Y-34184420D02*
X107710000Y-34465580D01*
%TO.C,C10*%
X111240580Y-52590000D02*
X110959420Y-52590000D01*
X111240580Y-53610000D02*
X110959420Y-53610000D01*
%TO.C,C9*%
X59290000Y-37940580D02*
X59290000Y-37659420D01*
X60310000Y-37940580D02*
X60310000Y-37659420D01*
D13*
%TO.C,J6*%
X114400000Y-33712500D02*
X117200000Y-33712500D01*
X114400000Y-34767500D02*
X114400000Y-33712500D01*
X114400000Y-43712500D02*
X114400000Y-42657500D01*
X117200000Y-34767500D02*
X117200000Y-33712500D01*
X117200000Y-42657500D02*
X117200000Y-43712500D01*
X117200000Y-43712500D02*
X114400000Y-43712500D01*
D14*
X115900000Y-44362500D02*
G75*
G02*
X115700000Y-44362500I-100000J0D01*
G01*
X115700000Y-44362500D02*
G75*
G02*
X115900000Y-44362500I100000J0D01*
G01*
D13*
%TO.C,J2*%
X58987500Y-26900000D02*
X60042500Y-26900000D01*
X58987500Y-29700000D02*
X58987500Y-26900000D01*
X60042500Y-29700000D02*
X58987500Y-29700000D01*
X67932500Y-26900000D02*
X68987500Y-26900000D01*
X67932500Y-29700000D02*
X68987500Y-29700000D01*
X68987500Y-26900000D02*
X68987500Y-29700000D01*
D14*
X58437500Y-28300000D02*
G75*
G02*
X58237500Y-28300000I-100000J0D01*
G01*
X58237500Y-28300000D02*
G75*
G02*
X58437500Y-28300000I100000J0D01*
G01*
D15*
%TO.C,C11*%
X61040580Y-50090000D02*
X60759420Y-50090000D01*
X61040580Y-51110000D02*
X60759420Y-51110000D01*
D13*
%TO.C,J9*%
X114500000Y-48312500D02*
X117300000Y-48312500D01*
X114500000Y-49367500D02*
X114500000Y-48312500D01*
X114500000Y-58312500D02*
X114500000Y-57257500D01*
X117300000Y-49367500D02*
X117300000Y-48312500D01*
X117300000Y-57257500D02*
X117300000Y-58312500D01*
X117300000Y-58312500D02*
X114500000Y-58312500D01*
D14*
X116000000Y-58962500D02*
G75*
G02*
X115800000Y-58962500I-100000J0D01*
G01*
X115800000Y-58962500D02*
G75*
G02*
X116000000Y-58962500I100000J0D01*
G01*
D15*
%TO.C,C1*%
X80590000Y-34984420D02*
X80590000Y-35265580D01*
X81610000Y-34984420D02*
X81610000Y-35265580D01*
D16*
%TO.C,J1*%
X80074100Y-60375700D02*
X80074100Y-68224300D01*
X80074100Y-68224300D02*
X90335700Y-68224300D01*
X90335700Y-60375700D02*
X80074100Y-60375700D01*
X90335700Y-68224300D02*
X90335700Y-60375700D01*
D17*
X78677100Y-64002701D02*
G75*
G02*
X77915100Y-64002701I-381000J0D01*
G01*
X77915100Y-64002701D02*
G75*
G02*
X78677100Y-64002701I381000J0D01*
G01*
%TD*%
M02*
